<?xml version="1.0" encoding="ISO-8859-1" standalone="no"?>
<!DOCTYPE svg PUBLIC "-//W3C//DTD SVG 1.1//EN" "http://www.w3.org/Graphics/SVG/1.1/DTD/svg11.dtd">
<svg version="1.1" baseProfile="full" id="body" width="8in" height="8in" viewBox="0 0 1 1" preserveAspectRatio="none" xmlns="http://www.w3.org/2000/svg" xmlns:xlink="http://www.w3.org/1999/xlink" xmlns:ev="http://www.w3.org/2001/xml-events">
<title>SVG drawing</title>
<desc>This was produced by version 4.4 of GNU libplot, a free library for exporting 2-D vector graphics.</desc>
<rect id="background" x="0" y="0" width="1" height="1" stroke="none" fill="white"/>
<g id="content" transform="translate(0,1) scale(0.0016667,-0.0033333) " xml:space="preserve" stroke="black" stroke-linecap="butt" stroke-linejoin="miter" stroke-miterlimit="10.433" stroke-dasharray="none" stroke-dashoffset="0" stroke-opacity="1" fill="none" fill-rule="evenodd" fill-opacity="1" font-style="normal" font-variant="normal" font-weight="normal" font-stretch="normal" font-size-adjust="none" letter-spacing="normal" word-spacing="normal" text-anchor="start">
<line x1="231.53" y1="279.79" x2="231.53" y2="271.73" stroke-width="0.5447" stroke-linecap="round" />
<line x1="231.91" y1="279.79" x2="231.91" y2="271.73" stroke-width="0.5447" stroke-linecap="round" />
<polyline points="230.38,279.79 234.98,279.79 236.13,279.4 236.52,279.02 236.9,278.25 236.9,277.1 236.52,276.33 236.13,275.95 234.98,275.57 231.91,275.57 " stroke-width="0.5447" stroke-linecap="round" stroke-linejoin="round" />
<polyline points="234.98,279.79 235.75,279.4 236.13,279.02 236.52,278.25 236.52,277.1 236.13,276.33 235.75,275.95 234.98,275.57 " stroke-width="0.5447" stroke-linecap="round" stroke-linejoin="round" />
<line x1="230.38" y1="271.73" x2="233.06" y2="271.73" stroke-width="0.5447" stroke-linecap="round" />
<polygon points="241.5,277.1 240.35,276.72 239.59,275.95 239.2,274.8 239.2,274.03 239.59,272.88 240.35,272.12 241.5,271.73 242.27,271.73 243.42,272.12 244.19,272.88 244.57,274.03 244.57,274.8 244.19,275.95 243.42,276.72 242.27,277.1 " stroke-width="0.5447" stroke-linejoin="round" />
<polyline points="241.5,277.1 240.74,276.72 239.97,275.95 239.59,274.8 239.59,274.03 239.97,272.88 240.74,272.12 241.5,271.73 " stroke-width="0.5447" stroke-linecap="round" stroke-linejoin="round" />
<polyline points="242.27,271.73 243.04,272.12 243.8,272.88 244.19,274.03 244.19,274.8 243.8,275.95 243.04,276.72 242.27,277.1 " stroke-width="0.5447" stroke-linecap="round" stroke-linejoin="round" />
<line x1="247.64" y1="277.1" x2="247.64" y2="269.05" stroke-width="0.5447" stroke-linecap="round" />
<line x1="248.02" y1="277.1" x2="248.02" y2="269.05" stroke-width="0.5447" stroke-linecap="round" />
<polyline points="248.02,275.95 248.79,276.72 249.56,277.1 250.33,277.1 251.48,276.72 252.24,275.95 252.63,274.8 252.63,274.03 252.24,272.88 251.48,272.12 250.33,271.73 249.56,271.73 248.79,272.12 248.02,272.88 " stroke-width="0.5447" stroke-linecap="round" stroke-linejoin="round" />
<polyline points="250.33,277.1 251.09,276.72 251.86,275.95 252.24,274.8 252.24,274.03 251.86,272.88 251.09,272.12 250.33,271.73 " stroke-width="0.5447" stroke-linecap="round" stroke-linejoin="round" />
<line x1="246.49" y1="277.1" x2="248.02" y2="277.1" stroke-width="0.5447" stroke-linecap="round" />
<line x1="246.49" y1="269.05" x2="249.18" y2="269.05" stroke-width="0.5447" stroke-linecap="round" />
<polyline points="255.7,272.5 255.31,272.12 255.7,271.73 256.08,272.12 255.7,272.5 " stroke-width="0.5447" stroke-linecap="round" stroke-linejoin="round" />
<polyline points="265.67,276.33 265.67,275.95 265.29,275.95 265.29,276.33 265.67,276.72 266.44,277.1 267.97,277.1 268.74,276.72 269.12,276.33 269.51,275.57 269.51,272.88 269.89,272.12 270.27,271.73 " stroke-width="0.5447" stroke-linecap="round" stroke-linejoin="round" />
<polyline points="269.12,276.33 269.12,272.88 269.51,272.12 270.27,271.73 270.66,271.73 " stroke-width="0.5447" stroke-linecap="round" stroke-linejoin="round" />
<polyline points="269.12,275.57 268.74,275.18 266.44,274.8 265.29,274.42 264.9,273.65 264.9,272.88 265.29,272.12 266.44,271.73 267.59,271.73 268.35,272.12 269.12,272.88 " stroke-width="0.5447" stroke-linecap="round" stroke-linejoin="round" />
<polyline points="266.44,274.8 265.67,274.42 265.29,273.65 265.29,272.88 265.67,272.12 266.44,271.73 " stroke-width="0.5447" stroke-linecap="round" stroke-linejoin="round" />
<line x1="272.57" y1="277.1" x2="274.88" y2="271.73" stroke-width="0.5447" stroke-linecap="round" />
<line x1="272.96" y1="277.1" x2="274.88" y2="272.5" stroke-width="0.5447" stroke-linecap="round" />
<line x1="277.18" y1="277.1" x2="274.88" y2="271.73" stroke-width="0.5447" stroke-linecap="round" />
<line x1="271.81" y1="277.1" x2="274.11" y2="277.1" stroke-width="0.5447" stroke-linecap="round" />
<line x1="275.64" y1="277.1" x2="277.94" y2="277.1" stroke-width="0.5447" stroke-linecap="round" />
<polygon points="281.4,277.1 280.63,276.72 280.25,276.33 279.86,275.57 279.86,274.8 280.25,274.03 280.63,273.65 281.4,273.27 282.16,273.27 282.93,273.65 283.31,274.03 283.7,274.8 283.7,275.57 283.31,276.33 282.93,276.72 282.16,277.1 " stroke-width="0.5447" stroke-linejoin="round" />
<polyline points="280.63,276.72 280.25,275.95 280.25,274.42 280.63,273.65 " stroke-width="0.5447" stroke-linecap="round" stroke-linejoin="round" />
<polyline points="282.93,273.65 283.31,274.42 283.31,275.95 282.93,276.72 " stroke-width="0.5447" stroke-linecap="round" stroke-linejoin="round" />
<polyline points="283.31,276.33 283.7,276.72 284.47,277.1 284.47,276.72 283.7,276.72 " stroke-width="0.5447" stroke-linecap="round" stroke-linejoin="round" />
<polyline points="280.25,274.03 279.86,273.65 279.48,272.88 279.48,272.5 279.86,271.73 281.01,271.35 282.93,271.35 284.08,270.96 284.47,270.58 " stroke-width="0.5447" stroke-linecap="round" stroke-linejoin="round" />
<polyline points="279.48,272.5 279.86,272.12 281.01,271.73 282.93,271.73 284.08,271.35 284.47,270.58 284.47,270.2 284.08,269.43 282.93,269.05 280.63,269.05 279.48,269.43 279.1,270.2 279.1,270.58 279.48,271.35 280.63,271.73 " stroke-width="0.5447" stroke-linecap="round" stroke-linejoin="round" />
<polyline points="293.67,276.33 293.67,275.95 293.29,275.95 293.29,276.33 293.67,276.72 294.44,277.1 295.97,277.1 296.74,276.72 297.12,276.33 297.51,275.57 297.51,272.88 297.89,272.12 298.28,271.73 " stroke-width="0.5447" stroke-linecap="round" stroke-linejoin="round" />
<polyline points="297.12,276.33 297.12,272.88 297.51,272.12 298.28,271.73 298.66,271.73 " stroke-width="0.5447" stroke-linecap="round" stroke-linejoin="round" />
<polyline points="297.12,275.57 296.74,275.18 294.44,274.8 293.29,274.42 292.9,273.65 292.9,272.88 293.29,272.12 294.44,271.73 295.59,271.73 296.36,272.12 297.12,272.88 " stroke-width="0.5447" stroke-linecap="round" stroke-linejoin="round" />
<polyline points="294.44,274.8 293.67,274.42 293.29,273.65 293.29,272.88 293.67,272.12 294.44,271.73 " stroke-width="0.5447" stroke-linecap="round" stroke-linejoin="round" />
<line x1="301.34" y1="277.1" x2="301.34" y2="271.73" stroke-width="0.5447" stroke-linecap="round" />
<line x1="301.73" y1="277.1" x2="301.73" y2="271.73" stroke-width="0.5447" stroke-linecap="round" />
<polyline points="301.73,275.95 302.49,276.72 303.65,277.1 304.41,277.1 305.56,276.72 305.95,275.95 305.95,271.73 " stroke-width="0.5447" stroke-linecap="round" stroke-linejoin="round" />
<polyline points="304.41,277.1 305.18,276.72 305.56,275.95 305.56,271.73 " stroke-width="0.5447" stroke-linecap="round" stroke-linejoin="round" />
<line x1="300.19" y1="277.1" x2="301.73" y2="277.1" stroke-width="0.5447" stroke-linecap="round" />
<line x1="300.19" y1="271.73" x2="302.88" y2="271.73" stroke-width="0.5447" stroke-linecap="round" />
<line x1="304.41" y1="271.73" x2="307.1" y2="271.73" stroke-width="0.5447" stroke-linecap="round" />
<line x1="313.62" y1="279.79" x2="313.62" y2="271.73" stroke-width="0.5447" stroke-linecap="round" />
<line x1="314" y1="279.79" x2="314" y2="271.73" stroke-width="0.5447" stroke-linecap="round" />
<polyline points="313.62,275.95 312.85,276.72 312.08,277.1 311.32,277.1 310.17,276.72 309.4,275.95 309.02,274.8 309.02,274.03 309.4,272.88 310.17,272.12 311.32,271.73 312.08,271.73 312.85,272.12 313.62,272.88 " stroke-width="0.5447" stroke-linecap="round" stroke-linejoin="round" />
<polyline points="311.32,277.1 310.55,276.72 309.78,275.95 309.4,274.8 309.4,274.03 309.78,272.88 310.55,272.12 311.32,271.73 " stroke-width="0.5447" stroke-linecap="round" stroke-linejoin="round" />
<line x1="312.47" y1="279.79" x2="314" y2="279.79" stroke-width="0.5447" stroke-linecap="round" />
<line x1="313.62" y1="271.73" x2="315.15" y2="271.73" stroke-width="0.5447" stroke-linecap="round" />
<line x1="323.98" y1="279.79" x2="323.98" y2="271.73" stroke-width="0.5447" stroke-linecap="round" />
<line x1="324.36" y1="279.79" x2="324.36" y2="271.73" stroke-width="0.5447" stroke-linecap="round" />
<polyline points="324.36,275.95 325.13,276.72 325.89,277.1 326.66,277.1 327.81,276.72 328.58,275.95 328.96,274.8 328.96,274.03 328.58,272.88 327.81,272.12 326.66,271.73 325.89,271.73 325.13,272.12 324.36,272.88 " stroke-width="0.5447" stroke-linecap="round" stroke-linejoin="round" />
<polyline points="326.66,277.1 327.43,276.72 328.2,275.95 328.58,274.8 328.58,274.03 328.2,272.88 327.43,272.12 326.66,271.73 " stroke-width="0.5447" stroke-linecap="round" stroke-linejoin="round" />
<line x1="322.83" y1="279.79" x2="324.36" y2="279.79" stroke-width="0.5447" stroke-linecap="round" />
<polyline points="331.65,274.8 336.25,274.8 336.25,275.57 335.87,276.33 335.48,276.72 334.72,277.1 333.57,277.1 332.41,276.72 331.65,275.95 331.26,274.8 331.26,274.03 331.65,272.88 332.41,272.12 333.57,271.73 334.33,271.73 335.48,272.12 336.25,272.88 " stroke-width="0.5447" stroke-linecap="round" stroke-linejoin="round" />
<polyline points="335.87,274.8 335.87,275.95 335.48,276.72 " stroke-width="0.5447" stroke-linecap="round" stroke-linejoin="round" />
<polyline points="333.57,277.1 332.8,276.72 332.03,275.95 331.65,274.8 331.65,274.03 332.03,272.88 332.8,272.12 333.57,271.73 " stroke-width="0.5447" stroke-linecap="round" stroke-linejoin="round" />
<polyline points="342.39,276.33 342.77,277.1 342.77,275.57 342.39,276.33 342,276.72 341.24,277.1 339.7,277.1 338.94,276.72 338.55,276.33 338.55,275.57 338.94,275.18 339.7,274.8 341.62,274.03 342.39,273.65 342.77,273.27 " stroke-width="0.5447" stroke-linecap="round" stroke-linejoin="round" />
<polyline points="338.55,275.95 338.94,275.57 339.7,275.18 341.62,274.42 342.39,274.03 342.77,273.65 342.77,272.5 342.39,272.12 341.62,271.73 340.09,271.73 339.32,272.12 338.94,272.5 338.55,273.27 338.55,271.73 338.94,272.5 " stroke-width="0.5447" stroke-linecap="round" stroke-linejoin="round" />
<polyline points="345.84,279.79 345.84,273.27 346.22,272.12 346.99,271.73 347.76,271.73 348.53,272.12 348.91,272.88 " stroke-width="0.5447" stroke-linecap="round" stroke-linejoin="round" />
<polyline points="346.22,279.79 346.22,273.27 346.61,272.12 346.99,271.73 " stroke-width="0.5447" stroke-linecap="round" stroke-linejoin="round" />
<line x1="344.69" y1="277.1" x2="347.76" y2="277.1" stroke-width="0.5447" stroke-linecap="round" />
<polyline points="361.95,279.4 361.57,279.02 361.95,278.64 362.34,279.02 361.95,279.4 361.18,279.79 360.03,279.79 358.88,279.4 358.12,278.64 357.73,277.49 357.73,271.73 " stroke-width="0.5447" stroke-linecap="round" stroke-linejoin="round" />
<polyline points="360.03,279.79 359.27,279.4 358.5,278.64 358.12,277.49 358.12,271.73 " stroke-width="0.5447" stroke-linecap="round" stroke-linejoin="round" />
<line x1="361.95" y1="277.1" x2="361.95" y2="271.73" stroke-width="0.5447" stroke-linecap="round" />
<line x1="362.34" y1="277.1" x2="362.34" y2="271.73" stroke-width="0.5447" stroke-linecap="round" />
<line x1="356.58" y1="277.1" x2="362.34" y2="277.1" stroke-width="0.5447" stroke-linecap="round" />
<line x1="356.58" y1="271.73" x2="359.27" y2="271.73" stroke-width="0.5447" stroke-linecap="round" />
<line x1="360.8" y1="271.73" x2="363.49" y2="271.73" stroke-width="0.5447" stroke-linecap="round" />
<polyline points="366.17,279.79 366.17,273.27 366.55,272.12 367.32,271.73 368.09,271.73 368.86,272.12 369.24,272.88 " stroke-width="0.5447" stroke-linecap="round" stroke-linejoin="round" />
<polyline points="366.55,279.79 366.55,273.27 366.94,272.12 367.32,271.73 " stroke-width="0.5447" stroke-linecap="round" stroke-linejoin="round" />
<line x1="365.02" y1="277.1" x2="368.09" y2="277.1" stroke-width="0.5447" stroke-linecap="round" />
<line x1="371.93" y1="277.1" x2="371.93" y2="271.73" stroke-width="0.5447" stroke-linecap="round" />
<line x1="372.31" y1="277.1" x2="372.31" y2="271.73" stroke-width="0.5447" stroke-linecap="round" />
<polyline points="372.31,275.95 373.08,276.72 374.23,277.1 374.99,277.1 376.14,276.72 376.53,275.95 376.53,271.73 " stroke-width="0.5447" stroke-linecap="round" stroke-linejoin="round" />
<polyline points="374.99,277.1 375.76,276.72 376.14,275.95 376.14,271.73 " stroke-width="0.5447" stroke-linecap="round" stroke-linejoin="round" />
<line x1="370.77" y1="277.1" x2="372.31" y2="277.1" stroke-width="0.5447" stroke-linecap="round" />
<line x1="370.77" y1="271.73" x2="373.46" y2="271.73" stroke-width="0.5447" stroke-linecap="round" />
<line x1="374.99" y1="271.73" x2="377.68" y2="271.73" stroke-width="0.5447" stroke-linecap="round" />
<polyline points="379.98,274.8 384.58,274.8 384.58,275.57 384.2,276.33 383.82,276.72 383.05,277.1 381.9,277.1 380.75,276.72 379.98,275.95 379.6,274.8 379.6,274.03 379.98,272.88 380.75,272.12 381.9,271.73 382.67,271.73 383.82,272.12 384.58,272.88 " stroke-width="0.5447" stroke-linecap="round" stroke-linejoin="round" />
<polyline points="384.2,274.8 384.2,275.95 383.82,276.72 " stroke-width="0.5447" stroke-linecap="round" stroke-linejoin="round" />
<polyline points="381.9,277.1 381.13,276.72 380.36,275.95 379.98,274.8 379.98,274.03 380.36,272.88 381.13,272.12 381.9,271.73 " stroke-width="0.5447" stroke-linecap="round" stroke-linejoin="round" />
<polyline points="390.72,276.33 391.1,277.1 391.1,275.57 390.72,276.33 390.34,276.72 389.57,277.1 388.04,277.1 387.27,276.72 386.89,276.33 386.89,275.57 387.27,275.18 388.04,274.8 389.95,274.03 390.72,273.65 391.1,273.27 " stroke-width="0.5447" stroke-linecap="round" stroke-linejoin="round" />
<polyline points="386.89,275.95 387.27,275.57 388.04,275.18 389.95,274.42 390.72,274.03 391.1,273.65 391.1,272.5 390.72,272.12 389.95,271.73 388.42,271.73 387.65,272.12 387.27,272.5 386.89,273.27 386.89,271.73 387.27,272.5 " stroke-width="0.5447" stroke-linecap="round" stroke-linejoin="round" />
<polyline points="397.24,276.33 397.63,277.1 397.63,275.57 397.24,276.33 396.86,276.72 396.09,277.1 394.56,277.1 393.79,276.72 393.41,276.33 393.41,275.57 393.79,275.18 394.56,274.8 396.48,274.03 397.24,273.65 397.63,273.27 " stroke-width="0.5447" stroke-linecap="round" stroke-linejoin="round" />
<polyline points="393.41,275.95 393.79,275.57 394.56,275.18 396.48,274.42 397.24,274.03 397.63,273.65 397.63,272.5 397.24,272.12 396.48,271.73 394.94,271.73 394.17,272.12 393.79,272.5 393.41,273.27 393.41,271.73 393.79,272.5 " stroke-width="0.5447" stroke-linecap="round" stroke-linejoin="round" />
<line x1="565.97" y1="57.344" x2="562.81" y2="57.344" stroke-width="0.70588" />
<line x1="565.97" y1="69.779" x2="562.81" y2="69.779" stroke-width="0.70588" />
<line x1="565.97" y1="82.213" x2="562.81" y2="82.213" stroke-width="0.70588" />
<line x1="565.97" y1="94.648" x2="562.81" y2="94.648" stroke-width="0.70588" />
<line x1="565.97" y1="107.08" x2="562.81" y2="107.08" stroke-width="0.70588" />
<line x1="565.97" y1="119.52" x2="562.81" y2="119.52" stroke-width="0.70588" />
<line x1="565.97" y1="131.95" x2="562.81" y2="131.95" stroke-width="0.70588" />
<line x1="565.97" y1="144.39" x2="562.81" y2="144.39" stroke-width="0.70588" />
<line x1="565.97" y1="156.82" x2="562.81" y2="156.82" stroke-width="0.70588" />
<line x1="565.97" y1="169.25" x2="562.81" y2="169.25" stroke-width="0.70588" />
<line x1="565.97" y1="181.69" x2="562.81" y2="181.69" stroke-width="0.70588" />
<line x1="565.97" y1="194.12" x2="562.81" y2="194.12" stroke-width="0.70588" />
<line x1="565.97" y1="206.56" x2="562.81" y2="206.56" stroke-width="0.70588" />
<line x1="565.97" y1="218.99" x2="562.81" y2="218.99" stroke-width="0.70588" />
<line x1="565.97" y1="231.43" x2="562.81" y2="231.43" stroke-width="0.70588" />
<line x1="565.97" y1="243.86" x2="562.81" y2="243.86" stroke-width="0.70588" />
<line x1="565.97" y1="256.3" x2="562.81" y2="256.3" stroke-width="0.70588" />
<line x1="565.97" y1="57.344" x2="559.64" y2="57.344" stroke-width="0.70588" />
<line x1="565.97" y1="107.08" x2="559.64" y2="107.08" stroke-width="0.70588" />
<line x1="565.97" y1="156.82" x2="559.64" y2="156.82" stroke-width="0.70588" />
<line x1="565.97" y1="206.56" x2="559.64" y2="206.56" stroke-width="0.70588" />
<line x1="565.97" y1="256.3" x2="559.64" y2="256.3" stroke-width="0.70588" />
<line x1="565.97" y1="52.65" x2="565.97" y2="264.64" stroke-width="0.70588" />
<line x1="62.415" y1="264.64" x2="62.415" y2="261.47" stroke-width="0.70588" />
<line x1="87.593" y1="264.64" x2="87.593" y2="261.47" stroke-width="0.70588" />
<line x1="112.77" y1="264.64" x2="112.77" y2="261.47" stroke-width="0.70588" />
<line x1="137.95" y1="264.64" x2="137.95" y2="261.47" stroke-width="0.70588" />
<line x1="163.13" y1="264.64" x2="163.13" y2="261.47" stroke-width="0.70588" />
<line x1="188.3" y1="264.64" x2="188.3" y2="261.47" stroke-width="0.70588" />
<line x1="213.48" y1="264.64" x2="213.48" y2="261.47" stroke-width="0.70588" />
<line x1="238.66" y1="264.64" x2="238.66" y2="261.47" stroke-width="0.70588" />
<line x1="263.84" y1="264.64" x2="263.84" y2="261.47" stroke-width="0.70588" />
<line x1="289.02" y1="264.64" x2="289.02" y2="261.47" stroke-width="0.70588" />
<line x1="314.19" y1="264.64" x2="314.19" y2="261.47" stroke-width="0.70588" />
<line x1="339.37" y1="264.64" x2="339.37" y2="261.47" stroke-width="0.70588" />
<line x1="364.55" y1="264.64" x2="364.55" y2="261.47" stroke-width="0.70588" />
<line x1="389.73" y1="264.64" x2="389.73" y2="261.47" stroke-width="0.70588" />
<line x1="414.91" y1="264.64" x2="414.91" y2="261.47" stroke-width="0.70588" />
<line x1="440.08" y1="264.64" x2="440.08" y2="261.47" stroke-width="0.70588" />
<line x1="465.26" y1="264.64" x2="465.26" y2="261.47" stroke-width="0.70588" />
<line x1="490.44" y1="264.64" x2="490.44" y2="261.47" stroke-width="0.70588" />
<line x1="515.62" y1="264.64" x2="515.62" y2="261.47" stroke-width="0.70588" />
<line x1="540.8" y1="264.64" x2="540.8" y2="261.47" stroke-width="0.70588" />
<line x1="565.97" y1="264.64" x2="565.97" y2="261.47" stroke-width="0.70588" />
<line x1="62.415" y1="264.64" x2="62.415" y2="258.31" stroke-width="0.70588" />
<line x1="188.3" y1="264.64" x2="188.3" y2="258.31" stroke-width="0.70588" />
<line x1="314.19" y1="264.64" x2="314.19" y2="258.31" stroke-width="0.70588" />
<line x1="440.08" y1="264.64" x2="440.08" y2="258.31" stroke-width="0.70588" />
<line x1="565.97" y1="264.64" x2="565.97" y2="258.31" stroke-width="0.70588" />
<line x1="62.415" y1="264.64" x2="565.97" y2="264.64" stroke-width="0.70588" />
<line x1="62.415" y1="57.344" x2="65.58" y2="57.344" stroke-width="0.70588" />
<line x1="62.415" y1="69.779" x2="65.58" y2="69.779" stroke-width="0.70588" />
<line x1="62.415" y1="82.213" x2="65.58" y2="82.213" stroke-width="0.70588" />
<line x1="62.415" y1="94.648" x2="65.58" y2="94.648" stroke-width="0.70588" />
<line x1="62.415" y1="107.08" x2="65.58" y2="107.08" stroke-width="0.70588" />
<line x1="62.415" y1="119.52" x2="65.58" y2="119.52" stroke-width="0.70588" />
<line x1="62.415" y1="131.95" x2="65.58" y2="131.95" stroke-width="0.70588" />
<line x1="62.415" y1="144.39" x2="65.58" y2="144.39" stroke-width="0.70588" />
<line x1="62.415" y1="156.82" x2="65.58" y2="156.82" stroke-width="0.70588" />
<line x1="62.415" y1="169.25" x2="65.58" y2="169.25" stroke-width="0.70588" />
<line x1="62.415" y1="181.69" x2="65.58" y2="181.69" stroke-width="0.70588" />
<line x1="62.415" y1="194.12" x2="65.58" y2="194.12" stroke-width="0.70588" />
<line x1="62.415" y1="206.56" x2="65.58" y2="206.56" stroke-width="0.70588" />
<line x1="62.415" y1="218.99" x2="65.58" y2="218.99" stroke-width="0.70588" />
<line x1="62.415" y1="231.43" x2="65.58" y2="231.43" stroke-width="0.70588" />
<line x1="62.415" y1="243.86" x2="65.58" y2="243.86" stroke-width="0.70588" />
<line x1="62.415" y1="256.3" x2="65.58" y2="256.3" stroke-width="0.70588" />
<line x1="62.415" y1="57.344" x2="68.745" y2="57.344" stroke-width="0.70588" />
<line x1="62.415" y1="107.08" x2="68.745" y2="107.08" stroke-width="0.70588" />
<line x1="62.415" y1="156.82" x2="68.745" y2="156.82" stroke-width="0.70588" />
<line x1="62.415" y1="206.56" x2="68.745" y2="206.56" stroke-width="0.70588" />
<line x1="62.415" y1="256.3" x2="68.745" y2="256.3" stroke-width="0.70588" />
<line x1="62.415" y1="52.65" x2="62.415" y2="264.64" stroke-width="0.70588" />
<polygon points="51.866,61.948 50.716,61.564 49.949,60.413 49.565,58.495 49.565,57.344 49.949,55.426 50.716,54.276 51.866,53.892 52.634,53.892 53.784,54.276 54.552,55.426 54.935,57.344 54.935,58.495 54.552,60.413 53.784,61.564 52.634,61.948 " stroke-width="0.5447" stroke-linejoin="round" />
<polyline points="51.866,61.948 51.099,61.564 50.716,61.18 50.332,60.413 49.949,58.495 49.949,57.344 50.332,55.426 50.716,54.659 51.099,54.276 51.866,53.892 " stroke-width="0.5447" stroke-linecap="round" stroke-linejoin="round" />
<polyline points="52.634,53.892 53.401,54.276 53.784,54.659 54.168,55.426 54.552,57.344 54.552,58.495 54.168,60.413 53.784,61.18 53.401,61.564 52.634,61.948 " stroke-width="0.5447" stroke-linecap="round" stroke-linejoin="round" />
<polyline points="49.949,110.15 50.332,109.77 49.949,109.38 49.565,109.77 49.565,110.15 49.949,110.92 50.332,111.3 51.483,111.69 53.017,111.69 54.168,111.3 54.552,110.92 54.935,110.15 54.935,109.38 54.552,108.62 53.401,107.85 51.483,107.08 50.716,106.7 49.949,105.93 49.565,104.78 49.565,103.63 " stroke-width="0.5447" stroke-linecap="round" stroke-linejoin="round" />
<polyline points="53.017,111.69 53.784,111.3 54.168,110.92 54.552,110.15 54.552,109.38 54.168,108.62 53.017,107.85 51.483,107.08 " stroke-width="0.5447" stroke-linecap="round" stroke-linejoin="round" />
<polyline points="49.565,104.4 49.949,104.78 50.716,104.78 52.634,104.01 53.784,104.01 54.552,104.4 54.935,104.78 " stroke-width="0.5447" stroke-linecap="round" stroke-linejoin="round" />
<polyline points="50.716,104.78 52.634,103.63 54.168,103.63 54.552,104.01 54.935,104.78 54.935,105.55 " stroke-width="0.5447" stroke-linecap="round" stroke-linejoin="round" />
<line x1="53.017" y1="160.66" x2="53.017" y2="153.37" stroke-width="0.5447" stroke-linecap="round" />
<line x1="53.401" y1="161.42" x2="53.401" y2="153.37" stroke-width="0.5447" stroke-linecap="round" />
<polyline points="53.401,161.42 49.181,155.67 55.319,155.67 " stroke-width="0.5447" stroke-linecap="round" stroke-linejoin="round" />
<line x1="51.866" y1="153.37" x2="54.552" y2="153.37" stroke-width="0.5447" stroke-linecap="round" />
<polyline points="54.168,210.01 53.784,209.63 54.168,209.24 54.552,209.63 54.552,210.01 54.168,210.78 53.401,211.16 52.25,211.16 51.099,210.78 50.332,210.01 49.949,209.24 49.565,207.71 49.565,205.41 49.949,204.26 50.716,203.49 51.866,203.11 52.634,203.11 53.784,203.49 54.552,204.26 54.935,205.41 54.935,205.79 54.552,206.94 53.784,207.71 52.634,208.09 52.25,208.09 51.099,207.71 50.332,206.94 49.949,205.79 " stroke-width="0.5447" stroke-linecap="round" stroke-linejoin="round" />
<polyline points="52.25,211.16 51.483,210.78 50.716,210.01 50.332,209.24 49.949,207.71 49.949,205.41 50.332,204.26 51.099,203.49 51.866,203.11 " stroke-width="0.5447" stroke-linecap="round" stroke-linejoin="round" />
<polyline points="52.634,203.11 53.401,203.49 54.168,204.26 54.552,205.41 54.552,205.79 54.168,206.94 53.401,207.71 52.634,208.09 " stroke-width="0.5447" stroke-linecap="round" stroke-linejoin="round" />
<polygon points="51.483,260.9 50.332,260.51 49.949,259.75 49.949,258.6 50.332,257.83 51.483,257.45 53.017,257.45 54.168,257.83 54.552,258.6 54.552,259.75 54.168,260.51 53.017,260.9 " stroke-width="0.5447" stroke-linejoin="round" />
<polyline points="51.483,260.9 50.716,260.51 50.332,259.75 50.332,258.6 50.716,257.83 51.483,257.45 " stroke-width="0.5447" stroke-linecap="round" stroke-linejoin="round" />
<polyline points="53.017,257.45 53.784,257.83 54.168,258.6 54.168,259.75 53.784,260.51 53.017,260.9 " stroke-width="0.5447" stroke-linecap="round" stroke-linejoin="round" />
<polyline points="51.483,257.45 50.332,257.06 49.949,256.68 49.565,255.91 49.565,254.38 49.949,253.61 50.332,253.23 51.483,252.84 53.017,252.84 54.168,253.23 54.552,253.61 54.935,254.38 54.935,255.91 54.552,256.68 54.168,257.06 53.017,257.45 " stroke-width="0.5447" stroke-linecap="round" stroke-linejoin="round" />
<polyline points="51.483,257.45 50.716,257.06 50.332,256.68 49.949,255.91 49.949,254.38 50.332,253.61 50.716,253.23 51.483,252.84 " stroke-width="0.5447" stroke-linecap="round" stroke-linejoin="round" />
<polyline points="53.017,252.84 53.784,253.23 54.168,253.61 54.552,254.38 54.552,255.91 54.168,256.68 53.784,257.06 53.017,257.45 " stroke-width="0.5447" stroke-linecap="round" stroke-linejoin="round" />
<line x1="33.262" y1="136.54" x2="41.318" y2="136.54" stroke-width="0.5447" stroke-linecap="round" />
<line x1="33.262" y1="136.92" x2="41.318" y2="136.92" stroke-width="0.5447" stroke-linecap="round" />
<line x1="35.564" y1="139.22" x2="38.633" y2="139.22" stroke-width="0.5447" stroke-linecap="round" />
<polyline points="33.262,135.38 33.262,141.52 35.564,141.52 33.262,141.14 " stroke-width="0.5447" stroke-linecap="round" stroke-linejoin="round" />
<line x1="37.098" y1="136.92" x2="37.098" y2="139.22" stroke-width="0.5447" stroke-linecap="round" />
<line x1="41.318" y1="135.38" x2="41.318" y2="138.07" stroke-width="0.5447" stroke-linecap="round" />
<polygon points="33.262,144.21 33.646,143.82 34.029,144.21 33.646,144.59 " stroke-width="0.5447" stroke-linejoin="round" />
<line x1="35.947" y1="144.21" x2="41.318" y2="144.21" stroke-width="0.5447" stroke-linecap="round" />
<line x1="35.947" y1="144.59" x2="41.318" y2="144.59" stroke-width="0.5447" stroke-linecap="round" />
<line x1="35.947" y1="143.06" x2="35.947" y2="144.59" stroke-width="0.5447" stroke-linecap="round" />
<line x1="41.318" y1="143.06" x2="41.318" y2="145.74" stroke-width="0.5447" stroke-linecap="round" />
<polyline points="33.262,148.43 39.783,148.43 40.934,148.81 41.318,149.58 41.318,150.35 40.934,151.11 40.167,151.5 " stroke-width="0.5447" stroke-linecap="round" stroke-linejoin="round" />
<polyline points="33.262,148.81 39.783,148.81 40.934,149.19 41.318,149.58 " stroke-width="0.5447" stroke-linecap="round" stroke-linejoin="round" />
<line x1="35.947" y1="147.28" x2="35.947" y2="150.35" stroke-width="0.5447" stroke-linecap="round" />
<line x1="35.947" y1="154.18" x2="41.318" y2="154.18" stroke-width="0.5447" stroke-linecap="round" />
<line x1="35.947" y1="154.56" x2="41.318" y2="154.56" stroke-width="0.5447" stroke-linecap="round" />
<polyline points="37.098,154.56 36.331,155.33 35.947,156.48 35.947,157.25 36.331,158.4 37.098,158.78 41.318,158.78 " stroke-width="0.5447" stroke-linecap="round" stroke-linejoin="round" />
<polyline points="35.947,157.25 36.331,158.02 37.098,158.4 41.318,158.4 " stroke-width="0.5447" stroke-linecap="round" stroke-linejoin="round" />
<line x1="35.947" y1="153.03" x2="35.947" y2="154.56" stroke-width="0.5447" stroke-linecap="round" />
<line x1="41.318" y1="153.03" x2="41.318" y2="155.72" stroke-width="0.5447" stroke-linecap="round" />
<line x1="41.318" y1="157.25" x2="41.318" y2="159.93" stroke-width="0.5447" stroke-linecap="round" />
<polyline points="38.249,162.24 38.249,166.84 37.482,166.84 36.715,166.46 36.331,166.07 35.947,165.31 35.947,164.15 36.331,163 37.098,162.24 38.249,161.85 39.016,161.85 40.167,162.24 40.934,163 41.318,164.15 41.318,164.92 40.934,166.07 40.167,166.84 " stroke-width="0.5447" stroke-linecap="round" stroke-linejoin="round" />
<polyline points="38.249,166.46 37.098,166.46 36.331,166.07 " stroke-width="0.5447" stroke-linecap="round" stroke-linejoin="round" />
<polyline points="35.947,164.15 36.331,163.39 37.098,162.62 38.249,162.24 39.016,162.24 40.167,162.62 40.934,163.39 41.318,164.15 " stroke-width="0.5447" stroke-linecap="round" stroke-linejoin="round" />
<polyline points="36.715,172.98 35.947,173.36 37.482,173.36 36.715,172.98 36.331,172.59 35.947,171.83 35.947,170.29 36.331,169.52 36.715,169.14 37.482,169.14 37.865,169.52 38.249,170.29 39.016,172.21 39.4,172.98 39.783,173.36 " stroke-width="0.5447" stroke-linecap="round" stroke-linejoin="round" />
<polyline points="37.098,169.14 37.482,169.52 37.865,170.29 38.633,172.21 39.016,172.98 39.4,173.36 40.55,173.36 40.934,172.98 41.318,172.21 41.318,170.68 40.934,169.91 40.55,169.52 39.783,169.14 41.318,169.14 40.55,169.52 " stroke-width="0.5447" stroke-linecap="round" stroke-linejoin="round" />
<polyline points="36.715,179.5 35.947,179.88 37.482,179.88 36.715,179.5 36.331,179.11 35.947,178.35 35.947,176.81 36.331,176.05 36.715,175.66 37.482,175.66 37.865,176.05 38.249,176.81 39.016,178.73 39.4,179.5 39.783,179.88 " stroke-width="0.5447" stroke-linecap="round" stroke-linejoin="round" />
<polyline points="37.098,175.66 37.482,176.05 37.865,176.81 38.633,178.73 39.016,179.5 39.4,179.88 40.55,179.88 40.934,179.5 41.318,178.73 41.318,177.2 40.934,176.43 40.55,176.05 39.783,175.66 41.318,175.66 40.55,176.05 " stroke-width="0.5447" stroke-linecap="round" stroke-linejoin="round" />
<line x1="62.415" y1="52.65" x2="62.415" y2="55.815" stroke-width="0.70588" />
<line x1="87.593" y1="52.65" x2="87.593" y2="55.815" stroke-width="0.70588" />
<line x1="112.77" y1="52.65" x2="112.77" y2="55.815" stroke-width="0.70588" />
<line x1="137.95" y1="52.65" x2="137.95" y2="55.815" stroke-width="0.70588" />
<line x1="163.13" y1="52.65" x2="163.13" y2="55.815" stroke-width="0.70588" />
<line x1="188.3" y1="52.65" x2="188.3" y2="55.815" stroke-width="0.70588" />
<line x1="213.48" y1="52.65" x2="213.48" y2="55.815" stroke-width="0.70588" />
<line x1="238.66" y1="52.65" x2="238.66" y2="55.815" stroke-width="0.70588" />
<line x1="263.84" y1="52.65" x2="263.84" y2="55.815" stroke-width="0.70588" />
<line x1="289.02" y1="52.65" x2="289.02" y2="55.815" stroke-width="0.70588" />
<line x1="314.19" y1="52.65" x2="314.19" y2="55.815" stroke-width="0.70588" />
<line x1="339.37" y1="52.65" x2="339.37" y2="55.815" stroke-width="0.70588" />
<line x1="364.55" y1="52.65" x2="364.55" y2="55.815" stroke-width="0.70588" />
<line x1="389.73" y1="52.65" x2="389.73" y2="55.815" stroke-width="0.70588" />
<line x1="414.91" y1="52.65" x2="414.91" y2="55.815" stroke-width="0.70588" />
<line x1="440.08" y1="52.65" x2="440.08" y2="55.815" stroke-width="0.70588" />
<line x1="465.26" y1="52.65" x2="465.26" y2="55.815" stroke-width="0.70588" />
<line x1="490.44" y1="52.65" x2="490.44" y2="55.815" stroke-width="0.70588" />
<line x1="515.62" y1="52.65" x2="515.62" y2="55.815" stroke-width="0.70588" />
<line x1="540.8" y1="52.65" x2="540.8" y2="55.815" stroke-width="0.70588" />
<line x1="565.97" y1="52.65" x2="565.97" y2="55.815" stroke-width="0.70588" />
<line x1="62.415" y1="52.65" x2="62.415" y2="58.979" stroke-width="0.70588" />
<line x1="188.3" y1="52.65" x2="188.3" y2="58.979" stroke-width="0.70588" />
<line x1="314.19" y1="52.65" x2="314.19" y2="58.979" stroke-width="0.70588" />
<line x1="440.08" y1="52.65" x2="440.08" y2="58.979" stroke-width="0.70588" />
<line x1="565.97" y1="52.65" x2="565.97" y2="58.979" stroke-width="0.70588" />
<line x1="62.415" y1="52.65" x2="565.97" y2="52.65" stroke-width="0.70588" />
<line x1="55.127" y1="39.992" x2="62.032" y2="39.992" stroke-width="0.5447" stroke-linecap="round" />
<polyline points="65.868,43.06 66.635,43.444 67.786,44.595 67.786,36.539 " stroke-width="0.5447" stroke-linecap="round" stroke-linejoin="round" />
<line x1="67.402" y1="44.211" x2="67.402" y2="36.539" stroke-width="0.5447" stroke-linecap="round" />
<line x1="65.868" y1="36.539" x2="69.32" y2="36.539" stroke-width="0.5447" stroke-linecap="round" />
<line x1="175.26" y1="39.992" x2="182.17" y2="39.992" stroke-width="0.5447" stroke-linecap="round" />
<polygon points="187.15,44.595 186,44.211 185.24,43.06 184.85,41.142 184.85,39.992 185.24,38.074 186,36.923 187.15,36.539 187.92,36.539 189.07,36.923 189.84,38.074 190.22,39.992 190.22,41.142 189.84,43.06 189.07,44.211 187.92,44.595 " stroke-width="0.5447" stroke-linejoin="round" />
<polyline points="187.15,44.595 186.39,44.211 186,43.827 185.62,43.06 185.24,41.142 185.24,39.992 185.62,38.074 186,37.306 186.39,36.923 187.15,36.539 " stroke-width="0.5447" stroke-linecap="round" stroke-linejoin="round" />
<polyline points="187.92,36.539 188.69,36.923 189.07,37.306 189.46,38.074 189.84,39.992 189.84,41.142 189.46,43.06 189.07,43.827 188.69,44.211 187.92,44.595 " stroke-width="0.5447" stroke-linecap="round" stroke-linejoin="round" />
<polygon points="193.29,37.306 192.91,36.923 193.29,36.539 193.68,36.923 " stroke-width="0.5447" stroke-linejoin="round" />
<line x1="197.13" y1="44.595" x2="196.36" y2="40.759" stroke-width="0.5447" stroke-linecap="round" />
<polyline points="196.36,40.759 197.13,41.526 198.28,41.909 199.43,41.909 200.58,41.526 201.35,40.759 201.73,39.608 201.73,38.841 201.35,37.69 200.58,36.923 199.43,36.539 198.28,36.539 197.13,36.923 196.74,37.306 196.36,38.074 196.36,38.457 196.74,38.841 197.13,38.457 196.74,38.074 " stroke-width="0.5447" stroke-linecap="round" stroke-linejoin="round" />
<polyline points="199.43,41.909 200.2,41.526 200.96,40.759 201.35,39.608 201.35,38.841 200.96,37.69 200.2,36.923 199.43,36.539 " stroke-width="0.5447" stroke-linecap="round" stroke-linejoin="round" />
<line x1="197.13" y1="44.595" x2="200.96" y2="44.595" stroke-width="0.5447" stroke-linecap="round" />
<polyline points="197.13,44.211 199.05,44.211 200.96,44.595 " stroke-width="0.5447" stroke-linecap="round" stroke-linejoin="round" />
<polygon points="313.81,44.595 312.66,44.211 311.89,43.06 311.51,41.142 311.51,39.992 311.89,38.074 312.66,36.923 313.81,36.539 314.58,36.539 315.73,36.923 316.5,38.074 316.88,39.992 316.88,41.142 316.5,43.06 315.73,44.211 314.58,44.595 " stroke-width="0.5447" stroke-linejoin="round" />
<polyline points="313.81,44.595 313.04,44.211 312.66,43.827 312.28,43.06 311.89,41.142 311.89,39.992 312.28,38.074 312.66,37.306 313.04,36.923 313.81,36.539 " stroke-width="0.5447" stroke-linecap="round" stroke-linejoin="round" />
<polyline points="314.58,36.539 315.35,36.923 315.73,37.306 316.11,38.074 316.5,39.992 316.5,41.142 316.11,43.06 315.73,43.827 315.35,44.211 314.58,44.595 " stroke-width="0.5447" stroke-linecap="round" stroke-linejoin="round" />
<polygon points="433.95,44.595 432.8,44.211 432.03,43.06 431.64,41.142 431.64,39.992 432.03,38.074 432.8,36.923 433.95,36.539 434.71,36.539 435.86,36.923 436.63,38.074 437.02,39.992 437.02,41.142 436.63,43.06 435.86,44.211 434.71,44.595 " stroke-width="0.5447" stroke-linejoin="round" />
<polyline points="433.95,44.595 433.18,44.211 432.8,43.827 432.41,43.06 432.03,41.142 432.03,39.992 432.41,38.074 432.8,37.306 433.18,36.923 433.95,36.539 " stroke-width="0.5447" stroke-linecap="round" stroke-linejoin="round" />
<polyline points="434.71,36.539 435.48,36.923 435.86,37.306 436.25,38.074 436.63,39.992 436.63,41.142 436.25,43.06 435.86,43.827 435.48,44.211 434.71,44.595 " stroke-width="0.5447" stroke-linecap="round" stroke-linejoin="round" />
<polygon points="440.08,37.306 439.7,36.923 440.08,36.539 440.47,36.923 " stroke-width="0.5447" stroke-linejoin="round" />
<line x1="443.92" y1="44.595" x2="443.15" y2="40.759" stroke-width="0.5447" stroke-linecap="round" />
<polyline points="443.15,40.759 443.92,41.526 445.07,41.909 446.22,41.909 447.37,41.526 448.14,40.759 448.52,39.608 448.52,38.841 448.14,37.69 447.37,36.923 446.22,36.539 445.07,36.539 443.92,36.923 443.54,37.306 443.15,38.074 443.15,38.457 443.54,38.841 443.92,38.457 443.54,38.074 " stroke-width="0.5447" stroke-linecap="round" stroke-linejoin="round" />
<polyline points="446.22,41.909 446.99,41.526 447.76,40.759 448.14,39.608 448.14,38.841 447.76,37.69 446.99,36.923 446.22,36.539 " stroke-width="0.5447" stroke-linecap="round" stroke-linejoin="round" />
<line x1="443.92" y1="44.595" x2="447.76" y2="44.595" stroke-width="0.5447" stroke-linecap="round" />
<polyline points="443.92,44.211 445.84,44.211 447.76,44.595 " stroke-width="0.5447" stroke-linecap="round" stroke-linejoin="round" />
<polyline points="564.44,43.06 565.21,43.444 566.36,44.595 566.36,36.539 " stroke-width="0.5447" stroke-linecap="round" stroke-linejoin="round" />
<line x1="565.97" y1="44.211" x2="565.97" y2="36.539" stroke-width="0.5447" stroke-linecap="round" />
<line x1="564.44" y1="36.539" x2="567.89" y2="36.539" stroke-width="0.5447" stroke-linecap="round" />
<polyline points="278.9,26.566 279.29,25.415 279.29,27.717 278.9,26.566 278.14,27.333 276.99,27.717 276.22,27.717 275.07,27.333 274.3,26.566 273.92,25.799 273.53,24.648 273.53,22.73 273.92,21.579 274.3,20.812 275.07,20.045 276.22,19.661 276.99,19.661 278.14,20.045 278.9,20.812 " stroke-width="0.5447" stroke-linecap="round" stroke-linejoin="round" />
<polyline points="276.22,27.717 275.45,27.333 274.68,26.566 274.3,25.799 273.92,24.648 273.92,22.73 274.3,21.579 274.68,20.812 275.45,20.045 276.22,19.661 " stroke-width="0.5447" stroke-linecap="round" stroke-linejoin="round" />
<line x1="278.9" y1="22.73" x2="278.9" y2="19.661" stroke-width="0.5447" stroke-linecap="round" />
<line x1="279.29" y1="22.73" x2="279.29" y2="19.661" stroke-width="0.5447" stroke-linecap="round" />
<line x1="277.75" y1="22.73" x2="280.44" y2="22.73" stroke-width="0.5447" stroke-linecap="round" />
<polyline points="282.74,22.73 287.34,22.73 287.34,23.497 286.96,24.264 286.58,24.648 285.81,25.031 284.66,25.031 283.51,24.648 282.74,23.881 282.36,22.73 282.36,21.963 282.74,20.812 283.51,20.045 284.66,19.661 285.42,19.661 286.58,20.045 287.34,20.812 " stroke-width="0.5447" stroke-linecap="round" stroke-linejoin="round" />
<polyline points="286.96,22.73 286.96,23.881 286.58,24.648 " stroke-width="0.5447" stroke-linecap="round" stroke-linejoin="round" />
<polyline points="284.66,25.031 283.89,24.648 283.12,23.881 282.74,22.73 282.74,21.963 283.12,20.812 283.89,20.045 284.66,19.661 " stroke-width="0.5447" stroke-linecap="round" stroke-linejoin="round" />
<line x1="290.41" y1="25.031" x2="290.41" y2="19.661" stroke-width="0.5447" stroke-linecap="round" />
<line x1="290.8" y1="25.031" x2="290.8" y2="19.661" stroke-width="0.5447" stroke-linecap="round" />
<polyline points="290.8,23.881 291.56,24.648 292.71,25.031 293.48,25.031 294.63,24.648 295.01,23.881 295.01,19.661 " stroke-width="0.5447" stroke-linecap="round" stroke-linejoin="round" />
<polyline points="293.48,25.031 294.25,24.648 294.63,23.881 294.63,19.661 " stroke-width="0.5447" stroke-linecap="round" stroke-linejoin="round" />
<line x1="289.26" y1="25.031" x2="290.8" y2="25.031" stroke-width="0.5447" stroke-linecap="round" />
<line x1="289.26" y1="19.661" x2="291.95" y2="19.661" stroke-width="0.5447" stroke-linecap="round" />
<line x1="293.48" y1="19.661" x2="296.17" y2="19.661" stroke-width="0.5447" stroke-linecap="round" />
<polyline points="298.47,22.73 303.07,22.73 303.07,23.497 302.69,24.264 302.3,24.648 301.54,25.031 300.38,25.031 299.23,24.648 298.47,23.881 298.08,22.73 298.08,21.963 298.47,20.812 299.23,20.045 300.38,19.661 301.15,19.661 302.3,20.045 303.07,20.812 " stroke-width="0.5447" stroke-linecap="round" stroke-linejoin="round" />
<polyline points="302.69,22.73 302.69,23.881 302.3,24.648 " stroke-width="0.5447" stroke-linecap="round" stroke-linejoin="round" />
<polyline points="300.38,25.031 299.62,24.648 298.85,23.881 298.47,22.73 298.47,21.963 298.85,20.812 299.62,20.045 300.38,19.661 " stroke-width="0.5447" stroke-linecap="round" stroke-linejoin="round" />
<line x1="306.14" y1="25.031" x2="306.14" y2="19.661" stroke-width="0.5447" stroke-linecap="round" />
<line x1="306.52" y1="25.031" x2="306.52" y2="19.661" stroke-width="0.5447" stroke-linecap="round" />
<polyline points="306.52,22.73 306.91,23.881 307.67,24.648 308.44,25.031 309.59,25.031 309.97,24.648 309.97,24.264 309.59,23.881 309.21,24.264 309.59,24.648 " stroke-width="0.5447" stroke-linecap="round" stroke-linejoin="round" />
<line x1="304.99" y1="25.031" x2="306.52" y2="25.031" stroke-width="0.5447" stroke-linecap="round" />
<line x1="304.99" y1="19.661" x2="307.67" y2="19.661" stroke-width="0.5447" stroke-linecap="round" />
<polyline points="312.66,24.264 312.66,23.881 312.28,23.881 312.28,24.264 312.66,24.648 313.43,25.031 314.96,25.031 315.73,24.648 316.11,24.264 316.5,23.497 316.5,20.812 316.88,20.045 317.26,19.661 " stroke-width="0.5447" stroke-linecap="round" stroke-linejoin="round" />
<polyline points="316.11,24.264 316.11,20.812 316.5,20.045 317.26,19.661 317.65,19.661 " stroke-width="0.5447" stroke-linecap="round" stroke-linejoin="round" />
<polyline points="316.11,23.497 315.73,23.113 313.43,22.73 312.28,22.346 311.89,21.579 311.89,20.812 312.28,20.045 313.43,19.661 314.58,19.661 315.35,20.045 316.11,20.812 " stroke-width="0.5447" stroke-linecap="round" stroke-linejoin="round" />
<polyline points="313.43,22.73 312.66,22.346 312.28,21.579 312.28,20.812 312.66,20.045 313.43,19.661 " stroke-width="0.5447" stroke-linecap="round" stroke-linejoin="round" />
<polyline points="320.33,27.717 320.33,21.195 320.72,20.045 321.48,19.661 322.25,19.661 323.02,20.045 323.4,20.812 " stroke-width="0.5447" stroke-linecap="round" stroke-linejoin="round" />
<polyline points="320.72,27.717 320.72,21.195 321.1,20.045 321.48,19.661 " stroke-width="0.5447" stroke-linecap="round" stroke-linejoin="round" />
<line x1="319.18" y1="25.031" x2="322.25" y2="25.031" stroke-width="0.5447" stroke-linecap="round" />
<polygon points="326.09,27.717 325.7,27.333 326.09,26.949 326.47,27.333 " stroke-width="0.5447" stroke-linejoin="round" />
<line x1="326.09" y1="25.031" x2="326.09" y2="19.661" stroke-width="0.5447" stroke-linecap="round" />
<line x1="326.47" y1="25.031" x2="326.47" y2="19.661" stroke-width="0.5447" stroke-linecap="round" />
<line x1="324.93" y1="25.031" x2="326.47" y2="25.031" stroke-width="0.5447" stroke-linecap="round" />
<line x1="324.93" y1="19.661" x2="327.62" y2="19.661" stroke-width="0.5447" stroke-linecap="round" />
<polygon points="331.84,25.031 330.69,24.648 329.92,23.881 329.54,22.73 329.54,21.963 329.92,20.812 330.69,20.045 331.84,19.661 332.61,19.661 333.76,20.045 334.52,20.812 334.91,21.963 334.91,22.73 334.52,23.881 333.76,24.648 332.61,25.031 " stroke-width="0.5447" stroke-linejoin="round" />
<polyline points="331.84,25.031 331.07,24.648 330.31,23.881 329.92,22.73 329.92,21.963 330.31,20.812 331.07,20.045 331.84,19.661 " stroke-width="0.5447" stroke-linecap="round" stroke-linejoin="round" />
<polyline points="332.61,19.661 333.37,20.045 334.14,20.812 334.52,21.963 334.52,22.73 334.14,23.881 333.37,24.648 332.61,25.031 " stroke-width="0.5447" stroke-linecap="round" stroke-linejoin="round" />
<line x1="337.98" y1="25.031" x2="337.98" y2="19.661" stroke-width="0.5447" stroke-linecap="round" />
<line x1="338.36" y1="25.031" x2="338.36" y2="19.661" stroke-width="0.5447" stroke-linecap="round" />
<polyline points="338.36,23.881 339.13,24.648 340.28,25.031 341.05,25.031 342.2,24.648 342.58,23.881 342.58,19.661 " stroke-width="0.5447" stroke-linecap="round" stroke-linejoin="round" />
<polyline points="341.05,25.031 341.81,24.648 342.2,23.881 342.2,19.661 " stroke-width="0.5447" stroke-linecap="round" stroke-linejoin="round" />
<line x1="336.83" y1="25.031" x2="338.36" y2="25.031" stroke-width="0.5447" stroke-linecap="round" />
<line x1="336.83" y1="19.661" x2="339.51" y2="19.661" stroke-width="0.5447" stroke-linecap="round" />
<line x1="341.05" y1="19.661" x2="343.73" y2="19.661" stroke-width="0.5447" stroke-linecap="round" />
<polyline points="349.48,24.264 349.87,25.031 349.87,23.497 349.48,24.264 349.1,24.648 348.33,25.031 346.8,25.031 346.03,24.648 345.65,24.264 345.65,23.497 346.03,23.113 346.8,22.73 348.72,21.963 349.48,21.579 349.87,21.195 " stroke-width="0.5447" stroke-linecap="round" stroke-linejoin="round" />
<polyline points="345.65,23.881 346.03,23.497 346.8,23.113 348.72,22.346 349.48,21.963 349.87,21.579 349.87,20.428 349.48,20.045 348.72,19.661 347.18,19.661 346.42,20.045 346.03,20.428 345.65,21.195 345.65,19.661 346.03,20.428 " stroke-width="0.5447" stroke-linecap="round" stroke-linejoin="round" />
</g>
</svg>
