<?xml version="1.0" encoding="ISO-8859-1" standalone="no"?>
<!DOCTYPE svg PUBLIC "-//W3C//DTD SVG 1.1//EN" "http://www.w3.org/Graphics/SVG/1.1/DTD/svg11.dtd">
<svg version="1.1" baseProfile="full" id="body" width="8in" height="8in" viewBox="0 0 1 1" preserveAspectRatio="none" xmlns="http://www.w3.org/2000/svg" xmlns:xlink="http://www.w3.org/1999/xlink" xmlns:ev="http://www.w3.org/2001/xml-events">
<title>SVG drawing</title>
<desc>This was produced by version 4.4 of GNU libplot, a free library for exporting 2-D vector graphics.</desc>
<rect id="background" x="0" y="0" width="1" height="1" stroke="none" fill="white"/>
<g id="content" transform="translate(0,1) scale(0.0016667,-0.0033333) " xml:space="preserve" stroke="black" stroke-linecap="butt" stroke-linejoin="miter" stroke-miterlimit="10.433" stroke-dasharray="none" stroke-dashoffset="0" stroke-opacity="1" fill="none" fill-rule="evenodd" fill-opacity="1" font-style="normal" font-variant="normal" font-weight="normal" font-stretch="normal" font-size-adjust="none" letter-spacing="normal" word-spacing="normal" text-anchor="start">
<line x1="238.86" y1="279.27" x2="238.86" y2="271.38" stroke-width="0.53334" stroke-linecap="round" />
<line x1="239.23" y1="279.27" x2="239.23" y2="271.38" stroke-width="0.53334" stroke-linecap="round" />
<polyline points="237.73,279.27 242.24,279.27 243.36,278.89 243.74,278.52 244.11,277.76 244.11,276.64 243.74,275.89 243.36,275.51 242.24,275.14 239.23,275.14 " stroke-width="0.53334" stroke-linecap="round" stroke-linejoin="round" />
<polyline points="242.24,279.27 242.99,278.89 243.36,278.52 243.74,277.76 243.74,276.64 243.36,275.89 242.99,275.51 242.24,275.14 " stroke-width="0.53334" stroke-linecap="round" stroke-linejoin="round" />
<line x1="237.73" y1="271.38" x2="240.36" y2="271.38" stroke-width="0.53334" stroke-linecap="round" />
<polygon points="248.62,276.64 247.5,276.26 246.74,275.51 246.37,274.38 246.37,273.63 246.74,272.51 247.5,271.76 248.62,271.38 249.37,271.38 250.5,271.76 251.25,272.51 251.63,273.63 251.63,274.38 251.25,275.51 250.5,276.26 249.37,276.64 " stroke-width="0.53334" stroke-linejoin="round" />
<polyline points="248.62,276.64 247.87,276.26 247.12,275.51 246.74,274.38 246.74,273.63 247.12,272.51 247.87,271.76 248.62,271.38 " stroke-width="0.53334" stroke-linecap="round" stroke-linejoin="round" />
<polyline points="249.37,271.38 250.12,271.76 250.88,272.51 251.25,273.63 251.25,274.38 250.88,275.51 250.12,276.26 249.37,276.64 " stroke-width="0.53334" stroke-linecap="round" stroke-linejoin="round" />
<line x1="254.63" y1="276.64" x2="254.63" y2="268.75" stroke-width="0.53334" stroke-linecap="round" />
<line x1="255.01" y1="276.64" x2="255.01" y2="268.75" stroke-width="0.53334" stroke-linecap="round" />
<polyline points="255.01,275.51 255.76,276.26 256.51,276.64 257.26,276.64 258.39,276.26 259.14,275.51 259.51,274.38 259.51,273.63 259.14,272.51 258.39,271.76 257.26,271.38 256.51,271.38 255.76,271.76 255.01,272.51 " stroke-width="0.53334" stroke-linecap="round" stroke-linejoin="round" />
<polyline points="257.26,276.64 258.01,276.26 258.76,275.51 259.14,274.38 259.14,273.63 258.76,272.51 258.01,271.76 257.26,271.38 " stroke-width="0.53334" stroke-linecap="round" stroke-linejoin="round" />
<line x1="253.5" y1="276.64" x2="255.01" y2="276.64" stroke-width="0.53334" stroke-linecap="round" />
<line x1="253.5" y1="268.75" x2="256.13" y2="268.75" stroke-width="0.53334" stroke-linecap="round" />
<polygon points="262.52,272.13 262.14,271.76 262.52,271.38 262.89,271.76 " stroke-width="0.53334" stroke-linejoin="round" />
<polyline points="272.28,275.89 272.28,275.51 271.91,275.51 271.91,275.89 272.28,276.26 273.04,276.64 274.54,276.64 275.29,276.26 275.66,275.89 276.04,275.14 276.04,272.51 276.42,271.76 276.79,271.38 " stroke-width="0.53334" stroke-linecap="round" stroke-linejoin="round" />
<polyline points="275.66,275.89 275.66,272.51 276.04,271.76 276.79,271.38 277.17,271.38 " stroke-width="0.53334" stroke-linecap="round" stroke-linejoin="round" />
<polyline points="275.66,275.14 275.29,274.76 273.04,274.38 271.91,274.01 271.53,273.26 271.53,272.51 271.91,271.76 273.04,271.38 274.16,271.38 274.91,271.76 275.66,272.51 " stroke-width="0.53334" stroke-linecap="round" stroke-linejoin="round" />
<polyline points="273.04,274.38 272.28,274.01 271.91,273.26 271.91,272.51 272.28,271.76 273.04,271.38 " stroke-width="0.53334" stroke-linecap="round" stroke-linejoin="round" />
<line x1="279.04" y1="276.64" x2="281.3" y2="271.38" stroke-width="0.53334" stroke-linecap="round" />
<line x1="279.42" y1="276.64" x2="281.3" y2="272.13" stroke-width="0.53334" stroke-linecap="round" />
<line x1="283.55" y1="276.64" x2="281.3" y2="271.38" stroke-width="0.53334" stroke-linecap="round" />
<line x1="278.29" y1="276.64" x2="280.55" y2="276.64" stroke-width="0.53334" stroke-linecap="round" />
<line x1="282.05" y1="276.64" x2="284.3" y2="276.64" stroke-width="0.53334" stroke-linecap="round" />
<polygon points="287.68,276.64 286.93,276.26 286.56,275.89 286.18,275.14 286.18,274.38 286.56,273.63 286.93,273.26 287.68,272.88 288.43,272.88 289.19,273.26 289.56,273.63 289.94,274.38 289.94,275.14 289.56,275.89 289.19,276.26 288.43,276.64 " stroke-width="0.53334" stroke-linejoin="round" />
<polyline points="286.93,276.26 286.56,275.51 286.56,274.01 286.93,273.26 " stroke-width="0.53334" stroke-linecap="round" stroke-linejoin="round" />
<polyline points="289.19,273.26 289.56,274.01 289.56,275.51 289.19,276.26 " stroke-width="0.53334" stroke-linecap="round" stroke-linejoin="round" />
<polyline points="289.56,275.89 289.94,276.26 290.69,276.64 290.69,276.26 289.94,276.26 " stroke-width="0.53334" stroke-linecap="round" stroke-linejoin="round" />
<polyline points="286.56,273.63 286.18,273.26 285.81,272.51 285.81,272.13 286.18,271.38 287.31,271 289.19,271 290.31,270.63 290.69,270.25 " stroke-width="0.53334" stroke-linecap="round" stroke-linejoin="round" />
<polyline points="285.81,272.13 286.18,271.76 287.31,271.38 289.19,271.38 290.31,271 290.69,270.25 290.69,269.88 290.31,269.13 289.19,268.75 286.93,268.75 285.81,269.13 285.43,269.88 285.43,270.25 285.81,271 286.93,271.38 " stroke-width="0.53334" stroke-linecap="round" stroke-linejoin="round" />
<polyline points="299.7,275.89 299.7,275.51 299.33,275.51 299.33,275.89 299.7,276.26 300.45,276.64 301.96,276.64 302.71,276.26 303.08,275.89 303.46,275.14 303.46,272.51 303.83,271.76 304.21,271.38 " stroke-width="0.53334" stroke-linecap="round" stroke-linejoin="round" />
<polyline points="303.08,275.89 303.08,272.51 303.46,271.76 304.21,271.38 304.59,271.38 " stroke-width="0.53334" stroke-linecap="round" stroke-linejoin="round" />
<polyline points="303.08,275.14 302.71,274.76 300.45,274.38 299.33,274.01 298.95,273.26 298.95,272.51 299.33,271.76 300.45,271.38 301.58,271.38 302.33,271.76 303.08,272.51 " stroke-width="0.53334" stroke-linecap="round" stroke-linejoin="round" />
<polyline points="300.45,274.38 299.7,274.01 299.33,273.26 299.33,272.51 299.7,271.76 300.45,271.38 " stroke-width="0.53334" stroke-linecap="round" stroke-linejoin="round" />
<line x1="307.21" y1="276.64" x2="307.21" y2="271.38" stroke-width="0.53334" stroke-linecap="round" />
<line x1="307.59" y1="276.64" x2="307.59" y2="271.38" stroke-width="0.53334" stroke-linecap="round" />
<polyline points="307.59,275.51 308.34,276.26 309.47,276.64 310.22,276.64 311.35,276.26 311.72,275.51 311.72,271.38 " stroke-width="0.53334" stroke-linecap="round" stroke-linejoin="round" />
<polyline points="310.22,276.64 310.97,276.26 311.35,275.51 311.35,271.38 " stroke-width="0.53334" stroke-linecap="round" stroke-linejoin="round" />
<line x1="306.09" y1="276.64" x2="307.59" y2="276.64" stroke-width="0.53334" stroke-linecap="round" />
<line x1="306.09" y1="271.38" x2="308.72" y2="271.38" stroke-width="0.53334" stroke-linecap="round" />
<line x1="310.22" y1="271.38" x2="312.85" y2="271.38" stroke-width="0.53334" stroke-linecap="round" />
<line x1="319.23" y1="279.27" x2="319.23" y2="271.38" stroke-width="0.53334" stroke-linecap="round" />
<line x1="319.61" y1="279.27" x2="319.61" y2="271.38" stroke-width="0.53334" stroke-linecap="round" />
<polyline points="319.23,275.51 318.48,276.26 317.73,276.64 316.98,276.64 315.85,276.26 315.1,275.51 314.73,274.38 314.73,273.63 315.1,272.51 315.85,271.76 316.98,271.38 317.73,271.38 318.48,271.76 319.23,272.51 " stroke-width="0.53334" stroke-linecap="round" stroke-linejoin="round" />
<polyline points="316.98,276.64 316.23,276.26 315.48,275.51 315.1,274.38 315.1,273.63 315.48,272.51 316.23,271.76 316.98,271.38 " stroke-width="0.53334" stroke-linecap="round" stroke-linejoin="round" />
<line x1="318.11" y1="279.27" x2="319.61" y2="279.27" stroke-width="0.53334" stroke-linecap="round" />
<line x1="319.23" y1="271.38" x2="320.74" y2="271.38" stroke-width="0.53334" stroke-linecap="round" />
<line x1="329.37" y1="279.27" x2="329.37" y2="271.38" stroke-width="0.53334" stroke-linecap="round" />
<line x1="329.75" y1="279.27" x2="329.75" y2="271.38" stroke-width="0.53334" stroke-linecap="round" />
<polyline points="329.75,275.51 330.5,276.26 331.25,276.64 332,276.64 333.13,276.26 333.88,275.51 334.26,274.38 334.26,273.63 333.88,272.51 333.13,271.76 332,271.38 331.25,271.38 330.5,271.76 329.75,272.51 " stroke-width="0.53334" stroke-linecap="round" stroke-linejoin="round" />
<polyline points="332,276.64 332.75,276.26 333.51,275.51 333.88,274.38 333.88,273.63 333.51,272.51 332.75,271.76 332,271.38 " stroke-width="0.53334" stroke-linecap="round" stroke-linejoin="round" />
<line x1="328.25" y1="279.27" x2="329.75" y2="279.27" stroke-width="0.53334" stroke-linecap="round" />
<polyline points="336.89,274.38 341.39,274.38 341.39,275.14 341.02,275.89 340.64,276.26 339.89,276.64 338.76,276.64 337.64,276.26 336.89,275.51 336.51,274.38 336.51,273.63 336.89,272.51 337.64,271.76 338.76,271.38 339.52,271.38 340.64,271.76 341.39,272.51 " stroke-width="0.53334" stroke-linecap="round" stroke-linejoin="round" />
<polyline points="341.02,274.38 341.02,275.51 340.64,276.26 " stroke-width="0.53334" stroke-linecap="round" stroke-linejoin="round" />
<polyline points="338.76,276.64 338.01,276.26 337.26,275.51 336.89,274.38 336.89,273.63 337.26,272.51 338.01,271.76 338.76,271.38 " stroke-width="0.53334" stroke-linecap="round" stroke-linejoin="round" />
<polyline points="347.4,275.89 347.78,276.64 347.78,275.14 347.4,275.89 347.03,276.26 346.28,276.64 344.77,276.64 344.02,276.26 343.65,275.89 343.65,275.14 344.02,274.76 344.77,274.38 346.65,273.63 347.4,273.26 347.78,272.88 " stroke-width="0.53334" stroke-linecap="round" stroke-linejoin="round" />
<polyline points="343.65,275.51 344.02,275.14 344.77,274.76 346.65,274.01 347.4,273.63 347.78,273.26 347.78,272.13 347.4,271.76 346.65,271.38 345.15,271.38 344.4,271.76 344.02,272.13 343.65,272.88 343.65,271.38 344.02,272.13 " stroke-width="0.53334" stroke-linecap="round" stroke-linejoin="round" />
<polyline points="350.78,279.27 350.78,272.88 351.16,271.76 351.91,271.38 352.66,271.38 353.41,271.76 353.79,272.51 " stroke-width="0.53334" stroke-linecap="round" stroke-linejoin="round" />
<polyline points="351.16,279.27 351.16,272.88 351.53,271.76 351.91,271.38 " stroke-width="0.53334" stroke-linecap="round" stroke-linejoin="round" />
<line x1="349.66" y1="276.64" x2="352.66" y2="276.64" stroke-width="0.53334" stroke-linecap="round" />
<polyline points="366.56,278.89 366.18,278.52 366.56,278.14 366.93,278.52 366.56,278.89 365.81,279.27 364.68,279.27 363.55,278.89 362.8,278.14 362.43,277.01 362.43,271.38 " stroke-width="0.53334" stroke-linecap="round" stroke-linejoin="round" />
<polyline points="364.68,279.27 363.93,278.89 363.18,278.14 362.8,277.01 362.8,271.38 " stroke-width="0.53334" stroke-linecap="round" stroke-linejoin="round" />
<line x1="366.56" y1="276.64" x2="366.56" y2="271.38" stroke-width="0.53334" stroke-linecap="round" />
<line x1="366.93" y1="276.64" x2="366.93" y2="271.38" stroke-width="0.53334" stroke-linecap="round" />
<line x1="361.3" y1="276.64" x2="366.93" y2="276.64" stroke-width="0.53334" stroke-linecap="round" />
<line x1="361.3" y1="271.38" x2="363.93" y2="271.38" stroke-width="0.53334" stroke-linecap="round" />
<line x1="365.43" y1="271.38" x2="368.06" y2="271.38" stroke-width="0.53334" stroke-linecap="round" />
<polyline points="370.69,279.27 370.69,272.88 371.06,271.76 371.82,271.38 372.57,271.38 373.32,271.76 373.69,272.51 " stroke-width="0.53334" stroke-linecap="round" stroke-linejoin="round" />
<polyline points="371.06,279.27 371.06,272.88 371.44,271.76 371.82,271.38 " stroke-width="0.53334" stroke-linecap="round" stroke-linejoin="round" />
<line x1="369.56" y1="276.64" x2="372.57" y2="276.64" stroke-width="0.53334" stroke-linecap="round" />
<line x1="376.32" y1="276.64" x2="376.32" y2="271.38" stroke-width="0.53334" stroke-linecap="round" />
<line x1="376.7" y1="276.64" x2="376.7" y2="271.38" stroke-width="0.53334" stroke-linecap="round" />
<polyline points="376.7,275.51 377.45,276.26 378.58,276.64 379.33,276.64 380.45,276.26 380.83,275.51 380.83,271.38 " stroke-width="0.53334" stroke-linecap="round" stroke-linejoin="round" />
<polyline points="379.33,276.64 380.08,276.26 380.45,275.51 380.45,271.38 " stroke-width="0.53334" stroke-linecap="round" stroke-linejoin="round" />
<line x1="375.2" y1="276.64" x2="376.7" y2="276.64" stroke-width="0.53334" stroke-linecap="round" />
<line x1="375.2" y1="271.38" x2="377.83" y2="271.38" stroke-width="0.53334" stroke-linecap="round" />
<line x1="379.33" y1="271.38" x2="381.96" y2="271.38" stroke-width="0.53334" stroke-linecap="round" />
<polyline points="384.21,274.38 388.72,274.38 388.72,275.14 388.34,275.89 387.97,276.26 387.22,276.64 386.09,276.64 384.96,276.26 384.21,275.51 383.83,274.38 383.83,273.63 384.21,272.51 384.96,271.76 386.09,271.38 386.84,271.38 387.97,271.76 388.72,272.51 " stroke-width="0.53334" stroke-linecap="round" stroke-linejoin="round" />
<polyline points="388.34,274.38 388.34,275.51 387.97,276.26 " stroke-width="0.53334" stroke-linecap="round" stroke-linejoin="round" />
<polyline points="386.09,276.64 385.34,276.26 384.59,275.51 384.21,274.38 384.21,273.63 384.59,272.51 385.34,271.76 386.09,271.38 " stroke-width="0.53334" stroke-linecap="round" stroke-linejoin="round" />
<polyline points="394.73,275.89 395.1,276.64 395.1,275.14 394.73,275.89 394.35,276.26 393.6,276.64 392.1,276.64 391.35,276.26 390.97,275.89 390.97,275.14 391.35,274.76 392.1,274.38 393.98,273.63 394.73,273.26 395.1,272.88 " stroke-width="0.53334" stroke-linecap="round" stroke-linejoin="round" />
<polyline points="390.97,275.51 391.35,275.14 392.1,274.76 393.98,274.01 394.73,273.63 395.1,273.26 395.1,272.13 394.73,271.76 393.98,271.38 392.47,271.38 391.72,271.76 391.35,272.13 390.97,272.88 390.97,271.38 391.35,272.13 " stroke-width="0.53334" stroke-linecap="round" stroke-linejoin="round" />
<polyline points="401.11,275.89 401.49,276.64 401.49,275.14 401.11,275.89 400.74,276.26 399.99,276.64 398.48,276.64 397.73,276.26 397.36,275.89 397.36,275.14 397.73,274.76 398.48,274.38 400.36,273.63 401.11,273.26 401.49,272.88 " stroke-width="0.53334" stroke-linecap="round" stroke-linejoin="round" />
<polyline points="397.36,275.51 397.73,275.14 398.48,274.76 400.36,274.01 401.11,273.63 401.49,273.26 401.49,272.13 401.11,271.76 400.36,271.38 398.86,271.38 398.11,271.76 397.73,272.13 397.36,272.88 397.36,271.38 397.73,272.13 " stroke-width="0.53334" stroke-linecap="round" stroke-linejoin="round" />
<line x1="566.06" y1="52.808" x2="562.96" y2="52.808" stroke-width="0.70588" />
<line x1="566.06" y1="61.74" x2="562.96" y2="61.74" stroke-width="0.70588" />
<line x1="566.06" y1="70.671" x2="562.96" y2="70.671" stroke-width="0.70588" />
<line x1="566.06" y1="79.603" x2="562.96" y2="79.603" stroke-width="0.70588" />
<line x1="566.06" y1="88.534" x2="562.96" y2="88.534" stroke-width="0.70588" />
<line x1="566.06" y1="97.466" x2="562.96" y2="97.466" stroke-width="0.70588" />
<line x1="566.06" y1="106.4" x2="562.96" y2="106.4" stroke-width="0.70588" />
<line x1="566.06" y1="115.33" x2="562.96" y2="115.33" stroke-width="0.70588" />
<line x1="566.06" y1="124.26" x2="562.96" y2="124.26" stroke-width="0.70588" />
<line x1="566.06" y1="133.19" x2="562.96" y2="133.19" stroke-width="0.70588" />
<line x1="566.06" y1="142.12" x2="562.96" y2="142.12" stroke-width="0.70588" />
<line x1="566.06" y1="151.06" x2="562.96" y2="151.06" stroke-width="0.70588" />
<line x1="566.06" y1="159.99" x2="562.96" y2="159.99" stroke-width="0.70588" />
<line x1="566.06" y1="168.92" x2="562.96" y2="168.92" stroke-width="0.70588" />
<line x1="566.06" y1="177.85" x2="562.96" y2="177.85" stroke-width="0.70588" />
<line x1="566.06" y1="186.78" x2="562.96" y2="186.78" stroke-width="0.70588" />
<line x1="566.06" y1="195.71" x2="562.96" y2="195.71" stroke-width="0.70588" />
<line x1="566.06" y1="204.64" x2="562.96" y2="204.64" stroke-width="0.70588" />
<line x1="566.06" y1="213.58" x2="562.96" y2="213.58" stroke-width="0.70588" />
<line x1="566.06" y1="222.51" x2="562.96" y2="222.51" stroke-width="0.70588" />
<line x1="566.06" y1="231.44" x2="562.96" y2="231.44" stroke-width="0.70588" />
<line x1="566.06" y1="240.37" x2="562.96" y2="240.37" stroke-width="0.70588" />
<line x1="566.06" y1="249.3" x2="562.96" y2="249.3" stroke-width="0.70588" />
<line x1="566.06" y1="258.23" x2="562.96" y2="258.23" stroke-width="0.70588" />
<line x1="566.06" y1="79.603" x2="559.86" y2="79.603" stroke-width="0.70588" />
<line x1="566.06" y1="124.26" x2="559.86" y2="124.26" stroke-width="0.70588" />
<line x1="566.06" y1="168.92" x2="559.86" y2="168.92" stroke-width="0.70588" />
<line x1="566.06" y1="213.58" x2="559.86" y2="213.58" stroke-width="0.70588" />
<line x1="566.06" y1="258.23" x2="559.86" y2="258.23" stroke-width="0.70588" />
<line x1="566.06" y1="51.836" x2="566.06" y2="259.49" stroke-width="0.70588" />
<line x1="73.533" y1="259.49" x2="73.533" y2="256.39" stroke-width="0.70588" />
<line x1="98.159" y1="259.49" x2="98.159" y2="256.39" stroke-width="0.70588" />
<line x1="122.79" y1="259.49" x2="122.79" y2="256.39" stroke-width="0.70588" />
<line x1="147.41" y1="259.49" x2="147.41" y2="256.39" stroke-width="0.70588" />
<line x1="172.04" y1="259.49" x2="172.04" y2="256.39" stroke-width="0.70588" />
<line x1="196.66" y1="259.49" x2="196.66" y2="256.39" stroke-width="0.70588" />
<line x1="221.29" y1="259.49" x2="221.29" y2="256.39" stroke-width="0.70588" />
<line x1="245.92" y1="259.49" x2="245.92" y2="256.39" stroke-width="0.70588" />
<line x1="270.54" y1="259.49" x2="270.54" y2="256.39" stroke-width="0.70588" />
<line x1="295.17" y1="259.49" x2="295.17" y2="256.39" stroke-width="0.70588" />
<line x1="319.8" y1="259.49" x2="319.8" y2="256.39" stroke-width="0.70588" />
<line x1="344.42" y1="259.49" x2="344.42" y2="256.39" stroke-width="0.70588" />
<line x1="369.05" y1="259.49" x2="369.05" y2="256.39" stroke-width="0.70588" />
<line x1="393.68" y1="259.49" x2="393.68" y2="256.39" stroke-width="0.70588" />
<line x1="418.3" y1="259.49" x2="418.3" y2="256.39" stroke-width="0.70588" />
<line x1="442.93" y1="259.49" x2="442.93" y2="256.39" stroke-width="0.70588" />
<line x1="467.55" y1="259.49" x2="467.55" y2="256.39" stroke-width="0.70588" />
<line x1="492.18" y1="259.49" x2="492.18" y2="256.39" stroke-width="0.70588" />
<line x1="516.81" y1="259.49" x2="516.81" y2="256.39" stroke-width="0.70588" />
<line x1="541.43" y1="259.49" x2="541.43" y2="256.39" stroke-width="0.70588" />
<line x1="566.06" y1="259.49" x2="566.06" y2="256.39" stroke-width="0.70588" />
<line x1="73.533" y1="259.49" x2="73.533" y2="253.29" stroke-width="0.70588" />
<line x1="196.66" y1="259.49" x2="196.66" y2="253.29" stroke-width="0.70588" />
<line x1="319.8" y1="259.49" x2="319.8" y2="253.29" stroke-width="0.70588" />
<line x1="442.93" y1="259.49" x2="442.93" y2="253.29" stroke-width="0.70588" />
<line x1="566.06" y1="259.49" x2="566.06" y2="253.29" stroke-width="0.70588" />
<line x1="73.533" y1="259.49" x2="566.06" y2="259.49" stroke-width="0.70588" />
<line x1="73.533" y1="52.808" x2="76.632" y2="52.808" stroke-width="0.70588" />
<line x1="73.533" y1="61.74" x2="76.632" y2="61.74" stroke-width="0.70588" />
<line x1="73.533" y1="70.671" x2="76.632" y2="70.671" stroke-width="0.70588" />
<line x1="73.533" y1="79.603" x2="76.632" y2="79.603" stroke-width="0.70588" />
<line x1="73.533" y1="88.534" x2="76.632" y2="88.534" stroke-width="0.70588" />
<line x1="73.533" y1="97.466" x2="76.632" y2="97.466" stroke-width="0.70588" />
<line x1="73.533" y1="106.4" x2="76.632" y2="106.4" stroke-width="0.70588" />
<line x1="73.533" y1="115.33" x2="76.632" y2="115.33" stroke-width="0.70588" />
<line x1="73.533" y1="124.26" x2="76.632" y2="124.26" stroke-width="0.70588" />
<line x1="73.533" y1="133.19" x2="76.632" y2="133.19" stroke-width="0.70588" />
<line x1="73.533" y1="142.12" x2="76.632" y2="142.12" stroke-width="0.70588" />
<line x1="73.533" y1="151.06" x2="76.632" y2="151.06" stroke-width="0.70588" />
<line x1="73.533" y1="159.99" x2="76.632" y2="159.99" stroke-width="0.70588" />
<line x1="73.533" y1="168.92" x2="76.632" y2="168.92" stroke-width="0.70588" />
<line x1="73.533" y1="177.85" x2="76.632" y2="177.85" stroke-width="0.70588" />
<line x1="73.533" y1="186.78" x2="76.632" y2="186.78" stroke-width="0.70588" />
<line x1="73.533" y1="195.71" x2="76.632" y2="195.71" stroke-width="0.70588" />
<line x1="73.533" y1="204.64" x2="76.632" y2="204.64" stroke-width="0.70588" />
<line x1="73.533" y1="213.58" x2="76.632" y2="213.58" stroke-width="0.70588" />
<line x1="73.533" y1="222.51" x2="76.632" y2="222.51" stroke-width="0.70588" />
<line x1="73.533" y1="231.44" x2="76.632" y2="231.44" stroke-width="0.70588" />
<line x1="73.533" y1="240.37" x2="76.632" y2="240.37" stroke-width="0.70588" />
<line x1="73.533" y1="249.3" x2="76.632" y2="249.3" stroke-width="0.70588" />
<line x1="73.533" y1="258.23" x2="76.632" y2="258.23" stroke-width="0.70588" />
<line x1="73.533" y1="79.603" x2="79.73" y2="79.603" stroke-width="0.70588" />
<line x1="73.533" y1="124.26" x2="79.73" y2="124.26" stroke-width="0.70588" />
<line x1="73.533" y1="168.92" x2="79.73" y2="168.92" stroke-width="0.70588" />
<line x1="73.533" y1="213.58" x2="79.73" y2="213.58" stroke-width="0.70588" />
<line x1="73.533" y1="258.23" x2="79.73" y2="258.23" stroke-width="0.70588" />
<line x1="73.533" y1="51.836" x2="73.533" y2="259.49" stroke-width="0.70588" />
<polyline points="62.077,82.608 62.829,82.983 63.955,84.11 63.955,76.223 " stroke-width="0.53334" stroke-linecap="round" stroke-linejoin="round" />
<line x1="63.58" y1="83.734" x2="63.58" y2="76.223" stroke-width="0.53334" stroke-linecap="round" />
<line x1="62.077" y1="76.223" x2="65.458" y2="76.223" stroke-width="0.53334" stroke-linecap="round" />
<polyline points="50.81,127.27 51.561,127.64 52.688,128.77 52.688,120.88 " stroke-width="0.53334" stroke-linecap="round" stroke-linejoin="round" />
<line x1="52.312" y1="128.39" x2="52.312" y2="120.88" stroke-width="0.53334" stroke-linecap="round" />
<line x1="50.81" y1="120.88" x2="54.19" y2="120.88" stroke-width="0.53334" stroke-linecap="round" />
<polygon points="57.946,121.63 57.57,121.26 57.946,120.88 58.321,121.26 " stroke-width="0.53334" stroke-linejoin="round" />
<line x1="61.702" y1="128.77" x2="60.951" y2="125.01" stroke-width="0.53334" stroke-linecap="round" />
<polyline points="60.951,125.01 61.702,125.76 62.829,126.14 63.955,126.14 65.082,125.76 65.833,125.01 66.209,123.89 66.209,123.13 65.833,122.01 65.082,121.26 63.955,120.88 62.829,120.88 61.702,121.26 61.326,121.63 60.951,122.38 60.951,122.76 61.326,123.13 61.702,122.76 61.326,122.38 " stroke-width="0.53334" stroke-linecap="round" stroke-linejoin="round" />
<polyline points="63.955,126.14 64.706,125.76 65.458,125.01 65.833,123.89 65.833,123.13 65.458,122.01 64.706,121.26 63.955,120.88 " stroke-width="0.53334" stroke-linecap="round" stroke-linejoin="round" />
<line x1="61.702" y1="128.77" x2="65.458" y2="128.77" stroke-width="0.53334" stroke-linecap="round" />
<polyline points="61.702,128.39 63.58,128.39 65.458,128.77 " stroke-width="0.53334" stroke-linecap="round" stroke-linejoin="round" />
<polyline points="61.326,171.92 61.702,171.55 61.326,171.17 60.951,171.55 60.951,171.92 61.326,172.67 61.702,173.05 62.829,173.43 64.331,173.43 65.458,173.05 65.833,172.67 66.209,171.92 66.209,171.17 65.833,170.42 64.706,169.67 62.829,168.92 62.077,168.54 61.326,167.79 60.951,166.67 60.951,165.54 " stroke-width="0.53334" stroke-linecap="round" stroke-linejoin="round" />
<polyline points="64.331,173.43 65.082,173.05 65.458,172.67 65.833,171.92 65.833,171.17 65.458,170.42 64.331,169.67 62.829,168.92 " stroke-width="0.53334" stroke-linecap="round" stroke-linejoin="round" />
<polyline points="60.951,166.29 61.326,166.67 62.077,166.67 63.955,165.91 65.082,165.91 65.833,166.29 66.209,166.67 " stroke-width="0.53334" stroke-linecap="round" stroke-linejoin="round" />
<polyline points="62.077,166.67 63.955,165.54 65.458,165.54 65.833,165.91 66.209,166.67 66.209,167.42 " stroke-width="0.53334" stroke-linecap="round" stroke-linejoin="round" />
<polyline points="50.058,216.58 50.434,216.21 50.058,215.83 49.683,216.21 49.683,216.58 50.058,217.33 50.434,217.71 51.561,218.08 53.063,218.08 54.19,217.71 54.566,217.33 54.941,216.58 54.941,215.83 54.566,215.08 53.439,214.33 51.561,213.58 50.81,213.2 50.058,212.45 49.683,211.32 49.683,210.2 " stroke-width="0.53334" stroke-linecap="round" stroke-linejoin="round" />
<polyline points="53.063,218.08 53.814,217.71 54.19,217.33 54.566,216.58 54.566,215.83 54.19,215.08 53.063,214.33 51.561,213.58 " stroke-width="0.53334" stroke-linecap="round" stroke-linejoin="round" />
<polyline points="49.683,210.95 50.058,211.32 50.81,211.32 52.688,210.57 53.814,210.57 54.566,210.95 54.941,211.32 " stroke-width="0.53334" stroke-linecap="round" stroke-linejoin="round" />
<polyline points="50.81,211.32 52.688,210.2 54.19,210.2 54.566,210.57 54.941,211.32 54.941,212.07 " stroke-width="0.53334" stroke-linecap="round" stroke-linejoin="round" />
<polygon points="57.946,210.95 57.57,210.57 57.946,210.2 58.321,210.57 " stroke-width="0.53334" stroke-linejoin="round" />
<line x1="61.702" y1="218.08" x2="60.951" y2="214.33" stroke-width="0.53334" stroke-linecap="round" />
<polyline points="60.951,214.33 61.702,215.08 62.829,215.45 63.955,215.45 65.082,215.08 65.833,214.33 66.209,213.2 66.209,212.45 65.833,211.32 65.082,210.57 63.955,210.2 62.829,210.2 61.702,210.57 61.326,210.95 60.951,211.7 60.951,212.07 61.326,212.45 61.702,212.07 61.326,211.7 " stroke-width="0.53334" stroke-linecap="round" stroke-linejoin="round" />
<polyline points="63.955,215.45 64.706,215.08 65.458,214.33 65.833,213.2 65.833,212.45 65.458,211.32 64.706,210.57 63.955,210.2 " stroke-width="0.53334" stroke-linecap="round" stroke-linejoin="round" />
<line x1="61.702" y1="218.08" x2="65.458" y2="218.08" stroke-width="0.53334" stroke-linecap="round" />
<polyline points="61.702,217.71 63.58,217.71 65.458,218.08 " stroke-width="0.53334" stroke-linecap="round" stroke-linejoin="round" />
<polyline points="61.326,261.24 61.702,260.86 61.326,260.49 60.951,260.86 60.951,261.24 61.326,261.99 61.702,262.37 62.829,262.74 64.331,262.74 65.458,262.37 65.833,261.61 65.833,260.49 65.458,259.74 64.331,259.36 63.204,259.36 " stroke-width="0.53334" stroke-linecap="round" stroke-linejoin="round" />
<polyline points="64.331,262.74 65.082,262.37 65.458,261.61 65.458,260.49 65.082,259.74 64.331,259.36 " stroke-width="0.53334" stroke-linecap="round" stroke-linejoin="round" />
<polyline points="64.331,259.36 65.082,258.99 65.833,258.23 66.209,257.48 66.209,256.36 65.833,255.61 65.458,255.23 64.331,254.85 62.829,254.85 61.702,255.23 61.326,255.61 60.951,256.36 60.951,256.73 61.326,257.11 61.702,256.73 61.326,256.36 " stroke-width="0.53334" stroke-linecap="round" stroke-linejoin="round" />
<polyline points="65.458,258.61 65.833,257.48 65.833,256.36 65.458,255.61 65.082,255.23 64.331,254.85 " stroke-width="0.53334" stroke-linecap="round" stroke-linejoin="round" />
<line x1="33.72" y1="137.29" x2="41.608" y2="137.29" stroke-width="0.53334" stroke-linecap="round" />
<line x1="33.72" y1="137.66" x2="41.608" y2="137.66" stroke-width="0.53334" stroke-linecap="round" />
<line x1="35.974" y1="139.92" x2="38.978" y2="139.92" stroke-width="0.53334" stroke-linecap="round" />
<polyline points="33.72,136.16 33.72,142.17 35.974,142.17 33.72,141.8 " stroke-width="0.53334" stroke-linecap="round" stroke-linejoin="round" />
<line x1="37.476" y1="137.66" x2="37.476" y2="139.92" stroke-width="0.53334" stroke-linecap="round" />
<line x1="41.608" y1="136.16" x2="41.608" y2="138.79" stroke-width="0.53334" stroke-linecap="round" />
<polygon points="33.72,144.8 34.096,144.42 34.471,144.8 34.096,145.18 " stroke-width="0.53334" stroke-linejoin="round" />
<line x1="36.349" y1="144.8" x2="41.608" y2="144.8" stroke-width="0.53334" stroke-linecap="round" />
<line x1="36.349" y1="145.18" x2="41.608" y2="145.18" stroke-width="0.53334" stroke-linecap="round" />
<line x1="36.349" y1="143.67" x2="36.349" y2="145.18" stroke-width="0.53334" stroke-linecap="round" />
<line x1="41.608" y1="143.67" x2="41.608" y2="146.3" stroke-width="0.53334" stroke-linecap="round" />
<polyline points="33.72,148.93 40.105,148.93 41.232,149.31 41.608,150.06 41.608,150.81 41.232,151.56 40.481,151.94 " stroke-width="0.53334" stroke-linecap="round" stroke-linejoin="round" />
<polyline points="33.72,149.31 40.105,149.31 41.232,149.68 41.608,150.06 " stroke-width="0.53334" stroke-linecap="round" stroke-linejoin="round" />
<line x1="36.349" y1="147.8" x2="36.349" y2="150.81" stroke-width="0.53334" stroke-linecap="round" />
<line x1="36.349" y1="154.57" x2="41.608" y2="154.57" stroke-width="0.53334" stroke-linecap="round" />
<line x1="36.349" y1="154.94" x2="41.608" y2="154.94" stroke-width="0.53334" stroke-linecap="round" />
<polyline points="37.476,154.94 36.725,155.69 36.349,156.82 36.349,157.57 36.725,158.7 37.476,159.07 41.608,159.07 " stroke-width="0.53334" stroke-linecap="round" stroke-linejoin="round" />
<polyline points="36.349,157.57 36.725,158.32 37.476,158.7 41.608,158.7 " stroke-width="0.53334" stroke-linecap="round" stroke-linejoin="round" />
<line x1="36.349" y1="153.44" x2="36.349" y2="154.94" stroke-width="0.53334" stroke-linecap="round" />
<line x1="41.608" y1="153.44" x2="41.608" y2="156.07" stroke-width="0.53334" stroke-linecap="round" />
<line x1="41.608" y1="157.57" x2="41.608" y2="160.2" stroke-width="0.53334" stroke-linecap="round" />
<polyline points="38.603,162.45 38.603,166.96 37.852,166.96 37.101,166.58 36.725,166.21 36.349,165.46 36.349,164.33 36.725,163.2 37.476,162.45 38.603,162.08 39.354,162.08 40.481,162.45 41.232,163.2 41.608,164.33 41.608,165.08 41.232,166.21 40.481,166.96 " stroke-width="0.53334" stroke-linecap="round" stroke-linejoin="round" />
<polyline points="38.603,166.58 37.476,166.58 36.725,166.21 " stroke-width="0.53334" stroke-linecap="round" stroke-linejoin="round" />
<polyline points="36.349,164.33 36.725,163.58 37.476,162.83 38.603,162.45 39.354,162.45 40.481,162.83 41.232,163.58 41.608,164.33 " stroke-width="0.53334" stroke-linecap="round" stroke-linejoin="round" />
<polyline points="37.101,172.97 36.349,173.34 37.852,173.34 37.101,172.97 36.725,172.59 36.349,171.84 36.349,170.34 36.725,169.59 37.101,169.21 37.852,169.21 38.227,169.59 38.603,170.34 39.354,172.22 39.73,172.97 40.105,173.34 " stroke-width="0.53334" stroke-linecap="round" stroke-linejoin="round" />
<polyline points="37.476,169.21 37.852,169.59 38.227,170.34 38.978,172.22 39.354,172.97 39.73,173.34 40.856,173.34 41.232,172.97 41.608,172.22 41.608,170.72 41.232,169.96 40.856,169.59 40.105,169.21 41.608,169.21 40.856,169.59 " stroke-width="0.53334" stroke-linecap="round" stroke-linejoin="round" />
<polyline points="37.101,179.35 36.349,179.73 37.852,179.73 37.101,179.35 36.725,178.98 36.349,178.23 36.349,176.73 36.725,175.97 37.101,175.6 37.852,175.6 38.227,175.97 38.603,176.73 39.354,178.6 39.73,179.35 40.105,179.73 " stroke-width="0.53334" stroke-linecap="round" stroke-linejoin="round" />
<polyline points="37.476,175.6 37.852,175.97 38.227,176.73 38.978,178.6 39.354,179.35 39.73,179.73 40.856,179.73 41.232,179.35 41.608,178.6 41.608,177.1 41.232,176.35 40.856,175.97 40.105,175.6 41.608,175.6 40.856,175.97 " stroke-width="0.53334" stroke-linecap="round" stroke-linejoin="round" />
<line x1="73.533" y1="51.836" x2="73.533" y2="54.934" stroke-width="0.70588" />
<line x1="98.159" y1="51.836" x2="98.159" y2="54.934" stroke-width="0.70588" />
<line x1="122.79" y1="51.836" x2="122.79" y2="54.934" stroke-width="0.70588" />
<line x1="147.41" y1="51.836" x2="147.41" y2="54.934" stroke-width="0.70588" />
<line x1="172.04" y1="51.836" x2="172.04" y2="54.934" stroke-width="0.70588" />
<line x1="196.66" y1="51.836" x2="196.66" y2="54.934" stroke-width="0.70588" />
<line x1="221.29" y1="51.836" x2="221.29" y2="54.934" stroke-width="0.70588" />
<line x1="245.92" y1="51.836" x2="245.92" y2="54.934" stroke-width="0.70588" />
<line x1="270.54" y1="51.836" x2="270.54" y2="54.934" stroke-width="0.70588" />
<line x1="295.17" y1="51.836" x2="295.17" y2="54.934" stroke-width="0.70588" />
<line x1="319.8" y1="51.836" x2="319.8" y2="54.934" stroke-width="0.70588" />
<line x1="344.42" y1="51.836" x2="344.42" y2="54.934" stroke-width="0.70588" />
<line x1="369.05" y1="51.836" x2="369.05" y2="54.934" stroke-width="0.70588" />
<line x1="393.68" y1="51.836" x2="393.68" y2="54.934" stroke-width="0.70588" />
<line x1="418.3" y1="51.836" x2="418.3" y2="54.934" stroke-width="0.70588" />
<line x1="442.93" y1="51.836" x2="442.93" y2="54.934" stroke-width="0.70588" />
<line x1="467.55" y1="51.836" x2="467.55" y2="54.934" stroke-width="0.70588" />
<line x1="492.18" y1="51.836" x2="492.18" y2="54.934" stroke-width="0.70588" />
<line x1="516.81" y1="51.836" x2="516.81" y2="54.934" stroke-width="0.70588" />
<line x1="541.43" y1="51.836" x2="541.43" y2="54.934" stroke-width="0.70588" />
<line x1="566.06" y1="51.836" x2="566.06" y2="54.934" stroke-width="0.70588" />
<line x1="73.533" y1="51.836" x2="73.533" y2="58.033" stroke-width="0.70588" />
<line x1="196.66" y1="51.836" x2="196.66" y2="58.033" stroke-width="0.70588" />
<line x1="319.8" y1="51.836" x2="319.8" y2="58.033" stroke-width="0.70588" />
<line x1="442.93" y1="51.836" x2="442.93" y2="58.033" stroke-width="0.70588" />
<line x1="566.06" y1="51.836" x2="566.06" y2="58.033" stroke-width="0.70588" />
<line x1="73.533" y1="51.836" x2="566.06" y2="51.836" stroke-width="0.70588" />
<line x1="66.397" y1="39.441" x2="73.157" y2="39.441" stroke-width="0.53334" stroke-linecap="round" />
<polyline points="76.913,42.446 77.664,42.821 78.791,43.948 78.791,36.061 " stroke-width="0.53334" stroke-linecap="round" stroke-linejoin="round" />
<line x1="78.416" y1="43.573" x2="78.416" y2="36.061" stroke-width="0.53334" stroke-linecap="round" />
<line x1="76.913" y1="36.061" x2="80.294" y2="36.061" stroke-width="0.53334" stroke-linecap="round" />
<line x1="183.89" y1="39.441" x2="190.66" y2="39.441" stroke-width="0.53334" stroke-linecap="round" />
<polygon points="195.54,43.948 194.41,43.573 193.66,42.446 193.28,40.568 193.28,39.441 193.66,37.563 194.41,36.436 195.54,36.061 196.29,36.061 197.42,36.436 198.17,37.563 198.54,39.441 198.54,40.568 198.17,42.446 197.42,43.573 196.29,43.948 " stroke-width="0.53334" stroke-linejoin="round" />
<polyline points="195.54,43.948 194.79,43.573 194.41,43.197 194.04,42.446 193.66,40.568 193.66,39.441 194.04,37.563 194.41,36.812 194.79,36.436 195.54,36.061 " stroke-width="0.53334" stroke-linecap="round" stroke-linejoin="round" />
<polyline points="196.29,36.061 197.04,36.436 197.42,36.812 197.79,37.563 198.17,39.441 198.17,40.568 197.79,42.446 197.42,43.197 197.04,43.573 196.29,43.948 " stroke-width="0.53334" stroke-linecap="round" stroke-linejoin="round" />
<polygon points="201.55,36.812 201.17,36.436 201.55,36.061 201.92,36.436 " stroke-width="0.53334" stroke-linejoin="round" />
<line x1="205.3" y1="43.948" x2="204.55" y2="40.192" stroke-width="0.53334" stroke-linecap="round" />
<polyline points="204.55,40.192 205.3,40.943 206.43,41.319 207.56,41.319 208.68,40.943 209.43,40.192 209.81,39.065 209.81,38.314 209.43,37.187 208.68,36.436 207.56,36.061 206.43,36.061 205.3,36.436 204.93,36.812 204.55,37.563 204.55,37.939 204.93,38.314 205.3,37.939 204.93,37.563 " stroke-width="0.53334" stroke-linecap="round" stroke-linejoin="round" />
<polyline points="207.56,41.319 208.31,40.943 209.06,40.192 209.43,39.065 209.43,38.314 209.06,37.187 208.31,36.436 207.56,36.061 " stroke-width="0.53334" stroke-linecap="round" stroke-linejoin="round" />
<line x1="205.3" y1="43.948" x2="209.06" y2="43.948" stroke-width="0.53334" stroke-linecap="round" />
<polyline points="205.3,43.573 207.18,43.573 209.06,43.948 " stroke-width="0.53334" stroke-linecap="round" stroke-linejoin="round" />
<polygon points="319.42,43.948 318.29,43.573 317.54,42.446 317.17,40.568 317.17,39.441 317.54,37.563 318.29,36.436 319.42,36.061 320.17,36.061 321.3,36.436 322.05,37.563 322.43,39.441 322.43,40.568 322.05,42.446 321.3,43.573 320.17,43.948 " stroke-width="0.53334" stroke-linejoin="round" />
<polyline points="319.42,43.948 318.67,43.573 318.29,43.197 317.92,42.446 317.54,40.568 317.54,39.441 317.92,37.563 318.29,36.812 318.67,36.436 319.42,36.061 " stroke-width="0.53334" stroke-linecap="round" stroke-linejoin="round" />
<polyline points="320.17,36.061 320.92,36.436 321.3,36.812 321.67,37.563 322.05,39.441 322.05,40.568 321.67,42.446 321.3,43.197 320.92,43.573 320.17,43.948 " stroke-width="0.53334" stroke-linecap="round" stroke-linejoin="round" />
<polygon points="436.92,43.948 435.79,43.573 435.04,42.446 434.67,40.568 434.67,39.441 435.04,37.563 435.79,36.436 436.92,36.061 437.67,36.061 438.8,36.436 439.55,37.563 439.92,39.441 439.92,40.568 439.55,42.446 438.8,43.573 437.67,43.948 " stroke-width="0.53334" stroke-linejoin="round" />
<polyline points="436.92,43.948 436.17,43.573 435.79,43.197 435.42,42.446 435.04,40.568 435.04,39.441 435.42,37.563 435.79,36.812 436.17,36.436 436.92,36.061 " stroke-width="0.53334" stroke-linecap="round" stroke-linejoin="round" />
<polyline points="437.67,36.061 438.42,36.436 438.8,36.812 439.17,37.563 439.55,39.441 439.55,40.568 439.17,42.446 438.8,43.197 438.42,43.573 437.67,43.948 " stroke-width="0.53334" stroke-linecap="round" stroke-linejoin="round" />
<polygon points="442.93,36.812 442.55,36.436 442.93,36.061 443.3,36.436 " stroke-width="0.53334" stroke-linejoin="round" />
<line x1="446.68" y1="43.948" x2="445.93" y2="40.192" stroke-width="0.53334" stroke-linecap="round" />
<polyline points="445.93,40.192 446.68,40.943 447.81,41.319 448.94,41.319 450.06,40.943 450.82,40.192 451.19,39.065 451.19,38.314 450.82,37.187 450.06,36.436 448.94,36.061 447.81,36.061 446.68,36.436 446.31,36.812 445.93,37.563 445.93,37.939 446.31,38.314 446.68,37.939 446.31,37.563 " stroke-width="0.53334" stroke-linecap="round" stroke-linejoin="round" />
<polyline points="448.94,41.319 449.69,40.943 450.44,40.192 450.82,39.065 450.82,38.314 450.44,37.187 449.69,36.436 448.94,36.061 " stroke-width="0.53334" stroke-linecap="round" stroke-linejoin="round" />
<line x1="446.68" y1="43.948" x2="450.44" y2="43.948" stroke-width="0.53334" stroke-linecap="round" />
<polyline points="446.68,43.573 448.56,43.573 450.44,43.948 " stroke-width="0.53334" stroke-linecap="round" stroke-linejoin="round" />
<polyline points="564.56,42.446 565.31,42.821 566.44,43.948 566.44,36.061 " stroke-width="0.53334" stroke-linecap="round" stroke-linejoin="round" />
<line x1="566.06" y1="43.573" x2="566.06" y2="36.061" stroke-width="0.53334" stroke-linecap="round" />
<line x1="564.56" y1="36.061" x2="567.94" y2="36.061" stroke-width="0.53334" stroke-linecap="round" />
<polyline points="285.24,26.295 285.62,25.169 285.62,27.422 285.24,26.295 284.49,27.046 283.36,27.422 282.61,27.422 281.49,27.046 280.74,26.295 280.36,25.544 279.98,24.417 279.98,22.539 280.36,21.413 280.74,20.661 281.49,19.91 282.61,19.535 283.36,19.535 284.49,19.91 285.24,20.661 " stroke-width="0.53334" stroke-linecap="round" stroke-linejoin="round" />
<polyline points="282.61,27.422 281.86,27.046 281.11,26.295 280.74,25.544 280.36,24.417 280.36,22.539 280.74,21.413 281.11,20.661 281.86,19.91 282.61,19.535 " stroke-width="0.53334" stroke-linecap="round" stroke-linejoin="round" />
<line x1="285.24" y1="22.539" x2="285.24" y2="19.535" stroke-width="0.53334" stroke-linecap="round" />
<line x1="285.62" y1="22.539" x2="285.62" y2="19.535" stroke-width="0.53334" stroke-linecap="round" />
<line x1="284.12" y1="22.539" x2="286.74" y2="22.539" stroke-width="0.53334" stroke-linecap="round" />
<polyline points="289,22.539 293.51,22.539 293.51,23.291 293.13,24.042 292.75,24.417 292,24.793 290.88,24.793 289.75,24.417 289,23.666 288.62,22.539 288.62,21.788 289,20.661 289.75,19.91 290.88,19.535 291.63,19.535 292.75,19.91 293.51,20.661 " stroke-width="0.53334" stroke-linecap="round" stroke-linejoin="round" />
<polyline points="293.13,22.539 293.13,23.666 292.75,24.417 " stroke-width="0.53334" stroke-linecap="round" stroke-linejoin="round" />
<polyline points="290.88,24.793 290.12,24.417 289.37,23.666 289,22.539 289,21.788 289.37,20.661 290.12,19.91 290.88,19.535 " stroke-width="0.53334" stroke-linecap="round" stroke-linejoin="round" />
<line x1="296.51" y1="24.793" x2="296.51" y2="19.535" stroke-width="0.53334" stroke-linecap="round" />
<line x1="296.89" y1="24.793" x2="296.89" y2="19.535" stroke-width="0.53334" stroke-linecap="round" />
<polyline points="296.89,23.666 297.64,24.417 298.76,24.793 299.51,24.793 300.64,24.417 301.02,23.666 301.02,19.535 " stroke-width="0.53334" stroke-linecap="round" stroke-linejoin="round" />
<polyline points="299.51,24.793 300.27,24.417 300.64,23.666 300.64,19.535 " stroke-width="0.53334" stroke-linecap="round" stroke-linejoin="round" />
<line x1="295.38" y1="24.793" x2="296.89" y2="24.793" stroke-width="0.53334" stroke-linecap="round" />
<line x1="295.38" y1="19.535" x2="298.01" y2="19.535" stroke-width="0.53334" stroke-linecap="round" />
<line x1="299.51" y1="19.535" x2="302.14" y2="19.535" stroke-width="0.53334" stroke-linecap="round" />
<polyline points="304.4,22.539 308.9,22.539 308.9,23.291 308.53,24.042 308.15,24.417 307.4,24.793 306.28,24.793 305.15,24.417 304.4,23.666 304.02,22.539 304.02,21.788 304.4,20.661 305.15,19.91 306.28,19.535 307.03,19.535 308.15,19.91 308.9,20.661 " stroke-width="0.53334" stroke-linecap="round" stroke-linejoin="round" />
<polyline points="308.53,22.539 308.53,23.666 308.15,24.417 " stroke-width="0.53334" stroke-linecap="round" stroke-linejoin="round" />
<polyline points="306.28,24.793 305.52,24.417 304.77,23.666 304.4,22.539 304.4,21.788 304.77,20.661 305.52,19.91 306.28,19.535 " stroke-width="0.53334" stroke-linecap="round" stroke-linejoin="round" />
<line x1="311.91" y1="24.793" x2="311.91" y2="19.535" stroke-width="0.53334" stroke-linecap="round" />
<line x1="312.28" y1="24.793" x2="312.28" y2="19.535" stroke-width="0.53334" stroke-linecap="round" />
<polyline points="312.28,22.539 312.66,23.666 313.41,24.417 314.16,24.793 315.29,24.793 315.67,24.417 315.67,24.042 315.29,23.666 314.91,24.042 315.29,24.417 " stroke-width="0.53334" stroke-linecap="round" stroke-linejoin="round" />
<line x1="310.78" y1="24.793" x2="312.28" y2="24.793" stroke-width="0.53334" stroke-linecap="round" />
<line x1="310.78" y1="19.535" x2="313.41" y2="19.535" stroke-width="0.53334" stroke-linecap="round" />
<polyline points="318.29,24.042 318.29,23.666 317.92,23.666 317.92,24.042 318.29,24.417 319.05,24.793 320.55,24.793 321.3,24.417 321.67,24.042 322.05,23.291 322.05,20.661 322.43,19.91 322.8,19.535 " stroke-width="0.53334" stroke-linecap="round" stroke-linejoin="round" />
<polyline points="321.67,24.042 321.67,20.661 322.05,19.91 322.8,19.535 323.18,19.535 " stroke-width="0.53334" stroke-linecap="round" stroke-linejoin="round" />
<polyline points="321.67,23.291 321.3,22.915 319.05,22.539 317.92,22.164 317.54,21.413 317.54,20.661 317.92,19.91 319.05,19.535 320.17,19.535 320.92,19.91 321.67,20.661 " stroke-width="0.53334" stroke-linecap="round" stroke-linejoin="round" />
<polyline points="319.05,22.539 318.29,22.164 317.92,21.413 317.92,20.661 318.29,19.91 319.05,19.535 " stroke-width="0.53334" stroke-linecap="round" stroke-linejoin="round" />
<polyline points="325.81,27.422 325.81,21.037 326.18,19.91 326.93,19.535 327.68,19.535 328.44,19.91 328.81,20.661 " stroke-width="0.53334" stroke-linecap="round" stroke-linejoin="round" />
<polyline points="326.18,27.422 326.18,21.037 326.56,19.91 326.93,19.535 " stroke-width="0.53334" stroke-linecap="round" stroke-linejoin="round" />
<line x1="324.68" y1="24.793" x2="327.68" y2="24.793" stroke-width="0.53334" stroke-linecap="round" />
<polygon points="331.44,27.422 331.06,27.046 331.44,26.671 331.82,27.046 " stroke-width="0.53334" stroke-linejoin="round" />
<line x1="331.44" y1="24.793" x2="331.44" y2="19.535" stroke-width="0.53334" stroke-linecap="round" />
<line x1="331.82" y1="24.793" x2="331.82" y2="19.535" stroke-width="0.53334" stroke-linecap="round" />
<line x1="330.31" y1="24.793" x2="331.82" y2="24.793" stroke-width="0.53334" stroke-linecap="round" />
<line x1="330.31" y1="19.535" x2="332.94" y2="19.535" stroke-width="0.53334" stroke-linecap="round" />
<polygon points="337.07,24.793 335.95,24.417 335.2,23.666 334.82,22.539 334.82,21.788 335.2,20.661 335.95,19.91 337.07,19.535 337.83,19.535 338.95,19.91 339.7,20.661 340.08,21.788 340.08,22.539 339.7,23.666 338.95,24.417 337.83,24.793 " stroke-width="0.53334" stroke-linejoin="round" />
<polyline points="337.07,24.793 336.32,24.417 335.57,23.666 335.2,22.539 335.2,21.788 335.57,20.661 336.32,19.91 337.07,19.535 " stroke-width="0.53334" stroke-linecap="round" stroke-linejoin="round" />
<polyline points="337.83,19.535 338.58,19.91 339.33,20.661 339.7,21.788 339.7,22.539 339.33,23.666 338.58,24.417 337.83,24.793 " stroke-width="0.53334" stroke-linecap="round" stroke-linejoin="round" />
<line x1="343.08" y1="24.793" x2="343.08" y2="19.535" stroke-width="0.53334" stroke-linecap="round" />
<line x1="343.46" y1="24.793" x2="343.46" y2="19.535" stroke-width="0.53334" stroke-linecap="round" />
<polyline points="343.46,23.666 344.21,24.417 345.34,24.793 346.09,24.793 347.21,24.417 347.59,23.666 347.59,19.535 " stroke-width="0.53334" stroke-linecap="round" stroke-linejoin="round" />
<polyline points="346.09,24.793 346.84,24.417 347.21,23.666 347.21,19.535 " stroke-width="0.53334" stroke-linecap="round" stroke-linejoin="round" />
<line x1="341.96" y1="24.793" x2="343.46" y2="24.793" stroke-width="0.53334" stroke-linecap="round" />
<line x1="341.96" y1="19.535" x2="344.59" y2="19.535" stroke-width="0.53334" stroke-linecap="round" />
<line x1="346.09" y1="19.535" x2="348.72" y2="19.535" stroke-width="0.53334" stroke-linecap="round" />
<polyline points="354.35,24.042 354.73,24.793 354.73,23.291 354.35,24.042 353.98,24.417 353.22,24.793 351.72,24.793 350.97,24.417 350.6,24.042 350.6,23.291 350.97,22.915 351.72,22.539 353.6,21.788 354.35,21.413 354.73,21.037 " stroke-width="0.53334" stroke-linecap="round" stroke-linejoin="round" />
<polyline points="350.6,23.666 350.97,23.291 351.72,22.915 353.6,22.164 354.35,21.788 354.73,21.413 354.73,20.286 354.35,19.91 353.6,19.535 352.1,19.535 351.35,19.91 350.97,20.286 350.6,21.037 350.6,19.535 350.97,20.286 " stroke-width="0.53334" stroke-linecap="round" stroke-linejoin="round" />
</g>
</svg>
