<?xml version="1.0" encoding="UTF-8" standalone="no"?>
<!DOCTYPE svg PUBLIC "-//W3C//DTD SVG 1.1//EN"
 "http://www.w3.org/Graphics/SVG/1.1/DTD/svg11.dtd">
<!-- Generated by graphviz version 2.38.0 (20140413.2041)
 -->
<!-- Title: G Pages: 1 -->
<svg width="919pt" height="2016pt"
 viewBox="0.00 0.00 918.50 2016.00" xmlns="http://www.w3.org/2000/svg" xmlns:xlink="http://www.w3.org/1999/xlink">
<g id="graph0" class="graph" transform="scale(1 1) rotate(0) translate(4 2012)">
<title>G</title>
<polygon fill="white" stroke="none" points="-4,4 -4,-2012 914.5,-2012 914.5,4 -4,4"/>
<!-- 140545465851352 -->
<g id="node1" class="node"><title>140545465851352</title>
<polygon fill="none" stroke="black" points="358,-1971.5 358,-2007.5 497,-2007.5 497,-1971.5 358,-1971.5"/>
<text text-anchor="middle" x="427.5" y="-1985.8" font-family="Times,serif" font-size="14.00">input_101: InputLayer</text>
</g>
<!-- 140545465851464 -->
<g id="node2" class="node"><title>140545465851464</title>
<polygon fill="none" stroke="black" points="359,-1898.5 359,-1934.5 496,-1934.5 496,-1898.5 359,-1898.5"/>
<text text-anchor="middle" x="427.5" y="-1912.8" font-family="Times,serif" font-size="14.00">conv2d_341: Conv2D</text>
</g>
<!-- 140545465851352&#45;&gt;140545465851464 -->
<g id="edge1" class="edge"><title>140545465851352&#45;&gt;140545465851464</title>
<path fill="none" stroke="black" d="M427.5,-1971.31C427.5,-1963.29 427.5,-1953.55 427.5,-1944.57"/>
<polygon fill="black" stroke="black" points="431,-1944.53 427.5,-1934.53 424,-1944.53 431,-1944.53"/>
</g>
<!-- 140545465851520 -->
<g id="node3" class="node"><title>140545465851520</title>
<polygon fill="none" stroke="black" points="25.5,-1825.5 25.5,-1861.5 273.5,-1861.5 273.5,-1825.5 25.5,-1825.5"/>
<text text-anchor="middle" x="149.5" y="-1839.8" font-family="Times,serif" font-size="14.00">separable_conv2d_370: SeparableConv2D</text>
</g>
<!-- 140545465851464&#45;&gt;140545465851520 -->
<g id="edge2" class="edge"><title>140545465851464&#45;&gt;140545465851520</title>
<path fill="none" stroke="black" d="M360.912,-1898.49C320.463,-1888.16 268.663,-1874.93 226.462,-1864.16"/>
<polygon fill="black" stroke="black" points="227.063,-1860.7 216.508,-1861.61 225.331,-1867.48 227.063,-1860.7"/>
</g>
<!-- 140545465861288 -->
<g id="node4" class="node"><title>140545465861288</title>
<polygon fill="none" stroke="black" points="303.5,-1825.5 303.5,-1861.5 551.5,-1861.5 551.5,-1825.5 303.5,-1825.5"/>
<text text-anchor="middle" x="427.5" y="-1839.8" font-family="Times,serif" font-size="14.00">separable_conv2d_371: SeparableConv2D</text>
</g>
<!-- 140545465851464&#45;&gt;140545465861288 -->
<g id="edge3" class="edge"><title>140545465851464&#45;&gt;140545465861288</title>
<path fill="none" stroke="black" d="M427.5,-1898.31C427.5,-1890.29 427.5,-1880.55 427.5,-1871.57"/>
<polygon fill="black" stroke="black" points="431,-1871.53 427.5,-1861.53 424,-1871.53 431,-1871.53"/>
</g>
<!-- 140545465863080 -->
<g id="node9" class="node"><title>140545465863080</title>
<polygon fill="none" stroke="black" points="382.5,-1533.5 382.5,-1569.5 564.5,-1569.5 564.5,-1533.5 382.5,-1533.5"/>
<text text-anchor="middle" x="473.5" y="-1547.8" font-family="Times,serif" font-size="14.00">concatenate_692: Concatenate</text>
</g>
<!-- 140545465851464&#45;&gt;140545465863080 -->
<g id="edge9" class="edge"><title>140545465851464&#45;&gt;140545465863080</title>
<path fill="none" stroke="black" d="M496.055,-1902.45C519.807,-1894.57 544.468,-1882 560.5,-1862 584.317,-1832.28 614.124,-1686.26 592.5,-1625.5"/>
<path fill="none" stroke="black" d="M592.5,-1623.5C583.337,-1600.75 562.603,-1584.86 540.966,-1573.98"/>
<polygon fill="black" stroke="black" points="542.208,-1570.69 531.668,-1569.61 539.233,-1577.03 542.208,-1570.69"/>
</g>
<!-- 140545465863528 -->
<g id="node12" class="node"><title>140545465863528</title>
<polygon fill="none" stroke="black" points="441.5,-1387.5 441.5,-1423.5 623.5,-1423.5 623.5,-1387.5 441.5,-1387.5"/>
<text text-anchor="middle" x="532.5" y="-1401.8" font-family="Times,serif" font-size="14.00">concatenate_694: Concatenate</text>
</g>
<!-- 140545465851464&#45;&gt;140545465863528 -->
<g id="edge14" class="edge"><title>140545465851464&#45;&gt;140545465863528</title>
<path fill="none" stroke="black" d="M592.5,-1623.5C568.587,-1564.14 592.631,-1543.5 592.5,-1479.5"/>
</g>
<!-- 140545465862016 -->
<g id="node5" class="node"><title>140545465862016</title>
<polygon fill="none" stroke="black" points="0,-1752.5 0,-1788.5 273,-1788.5 273,-1752.5 0,-1752.5"/>
<text text-anchor="middle" x="136.5" y="-1766.8" font-family="Times,serif" font-size="14.00">batch_normalization_310: BatchNormalization</text>
</g>
<!-- 140545465851520&#45;&gt;140545465862016 -->
<g id="edge4" class="edge"><title>140545465851520&#45;&gt;140545465862016</title>
<path fill="none" stroke="black" d="M146.353,-1825.31C144.884,-1817.29 143.1,-1807.55 141.456,-1798.57"/>
<polygon fill="black" stroke="black" points="144.862,-1797.73 139.618,-1788.53 137.976,-1799 144.862,-1797.73"/>
</g>
<!-- 140545465862408 -->
<g id="node6" class="node"><title>140545465862408</title>
<polygon fill="none" stroke="black" points="291,-1752.5 291,-1788.5 564,-1788.5 564,-1752.5 291,-1752.5"/>
<text text-anchor="middle" x="427.5" y="-1766.8" font-family="Times,serif" font-size="14.00">batch_normalization_311: BatchNormalization</text>
</g>
<!-- 140545465861288&#45;&gt;140545465862408 -->
<g id="edge5" class="edge"><title>140545465861288&#45;&gt;140545465862408</title>
<path fill="none" stroke="black" d="M427.5,-1825.31C427.5,-1817.29 427.5,-1807.55 427.5,-1798.57"/>
<polygon fill="black" stroke="black" points="431,-1798.53 427.5,-1788.53 424,-1798.53 431,-1798.53"/>
</g>
<!-- 140545465862688 -->
<g id="node7" class="node"><title>140545465862688</title>
<polygon fill="none" stroke="black" points="286.5,-1679.5 286.5,-1715.5 468.5,-1715.5 468.5,-1679.5 286.5,-1679.5"/>
<text text-anchor="middle" x="377.5" y="-1693.8" font-family="Times,serif" font-size="14.00">concatenate_691: Concatenate</text>
</g>
<!-- 140545465862016&#45;&gt;140545465862688 -->
<g id="edge6" class="edge"><title>140545465862016&#45;&gt;140545465862688</title>
<path fill="none" stroke="black" d="M194.226,-1752.49C228.847,-1742.29 273.061,-1729.27 309.388,-1718.57"/>
<polygon fill="black" stroke="black" points="310.807,-1721.8 319.41,-1715.61 308.829,-1715.08 310.807,-1721.8"/>
</g>
<!-- 140545465862408&#45;&gt;140545465862688 -->
<g id="edge7" class="edge"><title>140545465862408&#45;&gt;140545465862688</title>
<path fill="none" stroke="black" d="M415.396,-1752.31C409.378,-1743.77 401.986,-1733.27 395.333,-1723.82"/>
<polygon fill="black" stroke="black" points="398.112,-1721.69 389.492,-1715.53 392.388,-1725.72 398.112,-1721.69"/>
</g>
<!-- 140545465862744 -->
<g id="node8" class="node"><title>140545465862744</title>
<polygon fill="none" stroke="black" points="209,-1606.5 209,-1642.5 346,-1642.5 346,-1606.5 209,-1606.5"/>
<text text-anchor="middle" x="277.5" y="-1620.8" font-family="Times,serif" font-size="14.00">conv2d_342: Conv2D</text>
</g>
<!-- 140545465862688&#45;&gt;140545465862744 -->
<g id="edge8" class="edge"><title>140545465862688&#45;&gt;140545465862744</title>
<path fill="none" stroke="black" d="M353.548,-1679.49C340.532,-1670.25 324.25,-1658.69 310.094,-1648.64"/>
<polygon fill="black" stroke="black" points="311.784,-1645.55 301.604,-1642.61 307.731,-1651.26 311.784,-1645.55"/>
</g>
<!-- 140545465862688&#45;&gt;140545465863080 -->
<g id="edge10" class="edge"><title>140545465862688&#45;&gt;140545465863080</title>
<path fill="none" stroke="black" d="M388.889,-1679.42C405.633,-1654.3 437.01,-1607.23 456.491,-1578.01"/>
<polygon fill="black" stroke="black" points="459.491,-1579.82 462.125,-1569.56 453.666,-1575.94 459.491,-1579.82"/>
</g>
<!-- 140545465863192 -->
<g id="node10" class="node"><title>140545465863192</title>
<polygon fill="none" stroke="black" points="91,-1533.5 91,-1569.5 364,-1569.5 364,-1533.5 91,-1533.5"/>
<text text-anchor="middle" x="227.5" y="-1547.8" font-family="Times,serif" font-size="14.00">batch_normalization_312: BatchNormalization</text>
</g>
<!-- 140545465862744&#45;&gt;140545465863192 -->
<g id="edge11" class="edge"><title>140545465862744&#45;&gt;140545465863192</title>
<path fill="none" stroke="black" d="M265.396,-1606.31C259.378,-1597.77 251.986,-1587.27 245.333,-1577.82"/>
<polygon fill="black" stroke="black" points="248.112,-1575.69 239.492,-1569.53 242.388,-1579.72 248.112,-1575.69"/>
</g>
<!-- 140545465863472 -->
<g id="node11" class="node"><title>140545465863472</title>
<polygon fill="none" stroke="black" points="382.5,-1460.5 382.5,-1496.5 564.5,-1496.5 564.5,-1460.5 382.5,-1460.5"/>
<text text-anchor="middle" x="473.5" y="-1474.8" font-family="Times,serif" font-size="14.00">concatenate_693: Concatenate</text>
</g>
<!-- 140545465863080&#45;&gt;140545465863472 -->
<g id="edge13" class="edge"><title>140545465863080&#45;&gt;140545465863472</title>
<path fill="none" stroke="black" d="M473.5,-1533.31C473.5,-1525.29 473.5,-1515.55 473.5,-1506.57"/>
<polygon fill="black" stroke="black" points="477,-1506.53 473.5,-1496.53 470,-1506.53 477,-1506.53"/>
</g>
<!-- 140545465863080&#45;&gt;140545465863528 -->
<g id="edge15" class="edge"><title>140545465863080&#45;&gt;140545465863528</title>
<path fill="none" stroke="black" d="M545.521,-1533.38C570.591,-1522.79 592.554,-1505.96 592.5,-1479.5"/>
<path fill="none" stroke="black" d="M592.5,-1477.5C592.462,-1458.88 580.274,-1442.63 566.895,-1430.38"/>
<polygon fill="black" stroke="black" points="568.852,-1427.45 558.962,-1423.65 564.322,-1432.79 568.852,-1427.45"/>
</g>
<!-- 140545465863192&#45;&gt;140545465863472 -->
<g id="edge12" class="edge"><title>140545465863192&#45;&gt;140545465863472</title>
<path fill="none" stroke="black" d="M286.423,-1533.49C321.914,-1523.25 367.281,-1510.16 404.45,-1499.43"/>
<polygon fill="black" stroke="black" points="405.568,-1502.75 414.205,-1496.61 403.627,-1496.02 405.568,-1502.75"/>
</g>
<!-- 140545465863472&#45;&gt;140545465863528 -->
<g id="edge16" class="edge"><title>140545465863472&#45;&gt;140545465863528</title>
<path fill="none" stroke="black" d="M487.782,-1460.31C495.029,-1451.59 503.964,-1440.84 511.936,-1431.25"/>
<polygon fill="black" stroke="black" points="514.65,-1433.46 518.349,-1423.53 509.266,-1428.98 514.65,-1433.46"/>
</g>
<!-- 140545465863584 -->
<g id="node13" class="node"><title>140545465863584</title>
<polygon fill="none" stroke="black" points="408.5,-1314.5 408.5,-1350.5 656.5,-1350.5 656.5,-1314.5 408.5,-1314.5"/>
<text text-anchor="middle" x="532.5" y="-1328.8" font-family="Times,serif" font-size="14.00">separable_conv2d_372: SeparableConv2D</text>
</g>
<!-- 140545465863528&#45;&gt;140545465863584 -->
<g id="edge17" class="edge"><title>140545465863528&#45;&gt;140545465863584</title>
<path fill="none" stroke="black" d="M532.5,-1387.31C532.5,-1379.29 532.5,-1369.55 532.5,-1360.57"/>
<polygon fill="black" stroke="black" points="536,-1360.53 532.5,-1350.53 529,-1360.53 536,-1360.53"/>
</g>
<!-- 140545465851744 -->
<g id="node14" class="node"><title>140545465851744</title>
<polygon fill="none" stroke="black" points="130.5,-1241.5 130.5,-1277.5 378.5,-1277.5 378.5,-1241.5 130.5,-1241.5"/>
<text text-anchor="middle" x="254.5" y="-1255.8" font-family="Times,serif" font-size="14.00">separable_conv2d_373: SeparableConv2D</text>
</g>
<!-- 140545465863584&#45;&gt;140545465851744 -->
<g id="edge18" class="edge"><title>140545465863584&#45;&gt;140545465851744</title>
<path fill="none" stroke="black" d="M465.912,-1314.49C425.463,-1304.16 373.663,-1290.93 331.462,-1280.16"/>
<polygon fill="black" stroke="black" points="332.063,-1276.7 321.508,-1277.61 330.331,-1283.48 332.063,-1276.7"/>
</g>
<!-- 140545465877280 -->
<g id="node15" class="node"><title>140545465877280</title>
<polygon fill="none" stroke="black" points="408.5,-1241.5 408.5,-1277.5 656.5,-1277.5 656.5,-1241.5 408.5,-1241.5"/>
<text text-anchor="middle" x="532.5" y="-1255.8" font-family="Times,serif" font-size="14.00">separable_conv2d_374: SeparableConv2D</text>
</g>
<!-- 140545465863584&#45;&gt;140545465877280 -->
<g id="edge19" class="edge"><title>140545465863584&#45;&gt;140545465877280</title>
<path fill="none" stroke="black" d="M532.5,-1314.31C532.5,-1306.29 532.5,-1296.55 532.5,-1287.57"/>
<polygon fill="black" stroke="black" points="536,-1287.53 532.5,-1277.53 529,-1287.53 536,-1287.53"/>
</g>
<!-- 140545465879072 -->
<g id="node20" class="node"><title>140545465879072</title>
<polygon fill="none" stroke="black" points="487.5,-949.5 487.5,-985.5 669.5,-985.5 669.5,-949.5 487.5,-949.5"/>
<text text-anchor="middle" x="578.5" y="-963.8" font-family="Times,serif" font-size="14.00">concatenate_696: Concatenate</text>
</g>
<!-- 140545465863584&#45;&gt;140545465879072 -->
<g id="edge25" class="edge"><title>140545465863584&#45;&gt;140545465879072</title>
<path fill="none" stroke="black" d="M611.661,-1314.45C631.885,-1306.5 651.768,-1294.9 665.5,-1278 691.305,-1246.24 716.971,-1096.21 697.5,-1041.5"/>
<path fill="none" stroke="black" d="M697.5,-1039.5C688.337,-1016.75 667.603,-1000.86 645.966,-989.977"/>
<polygon fill="black" stroke="black" points="647.208,-986.694 636.668,-985.613 644.233,-993.03 647.208,-986.694"/>
</g>
<!-- 140545465879520 -->
<g id="node23" class="node"><title>140545465879520</title>
<polygon fill="none" stroke="black" points="546.5,-803.5 546.5,-839.5 728.5,-839.5 728.5,-803.5 546.5,-803.5"/>
<text text-anchor="middle" x="637.5" y="-817.8" font-family="Times,serif" font-size="14.00">concatenate_698: Concatenate</text>
</g>
<!-- 140545465863584&#45;&gt;140545465879520 -->
<g id="edge30" class="edge"><title>140545465863584&#45;&gt;140545465879520</title>
<path fill="none" stroke="black" d="M697.5,-1039.5C673.587,-980.135 697.631,-959.5 697.5,-895.5"/>
</g>
<!-- 140545465878008 -->
<g id="node16" class="node"><title>140545465878008</title>
<polygon fill="none" stroke="black" points="105,-1168.5 105,-1204.5 378,-1204.5 378,-1168.5 105,-1168.5"/>
<text text-anchor="middle" x="241.5" y="-1182.8" font-family="Times,serif" font-size="14.00">batch_normalization_313: BatchNormalization</text>
</g>
<!-- 140545465851744&#45;&gt;140545465878008 -->
<g id="edge20" class="edge"><title>140545465851744&#45;&gt;140545465878008</title>
<path fill="none" stroke="black" d="M251.353,-1241.31C249.884,-1233.29 248.1,-1223.55 246.456,-1214.57"/>
<polygon fill="black" stroke="black" points="249.862,-1213.73 244.618,-1204.53 242.976,-1215 249.862,-1213.73"/>
</g>
<!-- 140545465878400 -->
<g id="node17" class="node"><title>140545465878400</title>
<polygon fill="none" stroke="black" points="396,-1168.5 396,-1204.5 669,-1204.5 669,-1168.5 396,-1168.5"/>
<text text-anchor="middle" x="532.5" y="-1182.8" font-family="Times,serif" font-size="14.00">batch_normalization_314: BatchNormalization</text>
</g>
<!-- 140545465877280&#45;&gt;140545465878400 -->
<g id="edge21" class="edge"><title>140545465877280&#45;&gt;140545465878400</title>
<path fill="none" stroke="black" d="M532.5,-1241.31C532.5,-1233.29 532.5,-1223.55 532.5,-1214.57"/>
<polygon fill="black" stroke="black" points="536,-1214.53 532.5,-1204.53 529,-1214.53 536,-1214.53"/>
</g>
<!-- 140545465878680 -->
<g id="node18" class="node"><title>140545465878680</title>
<polygon fill="none" stroke="black" points="304.5,-1095.5 304.5,-1131.5 486.5,-1131.5 486.5,-1095.5 304.5,-1095.5"/>
<text text-anchor="middle" x="395.5" y="-1109.8" font-family="Times,serif" font-size="14.00">concatenate_695: Concatenate</text>
</g>
<!-- 140545465878008&#45;&gt;140545465878680 -->
<g id="edge22" class="edge"><title>140545465878008&#45;&gt;140545465878680</title>
<path fill="none" stroke="black" d="M278.387,-1168.49C299.659,-1158.69 326.599,-1146.27 349.276,-1135.81"/>
<polygon fill="black" stroke="black" points="350.764,-1138.98 358.38,-1131.61 347.834,-1132.62 350.764,-1138.98"/>
</g>
<!-- 140545465878400&#45;&gt;140545465878680 -->
<g id="edge23" class="edge"><title>140545465878400&#45;&gt;140545465878680</title>
<path fill="none" stroke="black" d="M499.685,-1168.49C481.013,-1158.82 457.433,-1146.6 437.43,-1136.23"/>
<polygon fill="black" stroke="black" points="439.011,-1133.11 428.522,-1131.61 435.79,-1139.32 439.011,-1133.11"/>
</g>
<!-- 140545465878736 -->
<g id="node19" class="node"><title>140545465878736</title>
<polygon fill="none" stroke="black" points="302,-1022.5 302,-1058.5 439,-1058.5 439,-1022.5 302,-1022.5"/>
<text text-anchor="middle" x="370.5" y="-1036.8" font-family="Times,serif" font-size="14.00">conv2d_343: Conv2D</text>
</g>
<!-- 140545465878680&#45;&gt;140545465878736 -->
<g id="edge24" class="edge"><title>140545465878680&#45;&gt;140545465878736</title>
<path fill="none" stroke="black" d="M389.448,-1095.31C386.562,-1087.12 383.043,-1077.12 379.826,-1067.98"/>
<polygon fill="black" stroke="black" points="383.119,-1066.8 376.496,-1058.53 376.516,-1069.12 383.119,-1066.8"/>
</g>
<!-- 140545465878680&#45;&gt;140545465879072 -->
<g id="edge26" class="edge"><title>140545465878680&#45;&gt;140545465879072</title>
<path fill="none" stroke="black" d="M417.211,-1095.42C449.955,-1069.65 512.054,-1020.79 548.911,-991.783"/>
<polygon fill="black" stroke="black" points="551.123,-994.496 556.817,-985.562 546.794,-988.995 551.123,-994.496"/>
</g>
<!-- 140545465879184 -->
<g id="node21" class="node"><title>140545465879184</title>
<polygon fill="none" stroke="black" points="196,-949.5 196,-985.5 469,-985.5 469,-949.5 196,-949.5"/>
<text text-anchor="middle" x="332.5" y="-963.8" font-family="Times,serif" font-size="14.00">batch_normalization_315: BatchNormalization</text>
</g>
<!-- 140545465878736&#45;&gt;140545465879184 -->
<g id="edge27" class="edge"><title>140545465878736&#45;&gt;140545465879184</title>
<path fill="none" stroke="black" d="M361.301,-1022.31C356.82,-1013.94 351.338,-1003.7 346.363,-994.403"/>
<polygon fill="black" stroke="black" points="349.419,-992.694 341.614,-985.529 343.247,-995.997 349.419,-992.694"/>
</g>
<!-- 140545465879464 -->
<g id="node22" class="node"><title>140545465879464</title>
<polygon fill="none" stroke="black" points="487.5,-876.5 487.5,-912.5 669.5,-912.5 669.5,-876.5 487.5,-876.5"/>
<text text-anchor="middle" x="578.5" y="-890.8" font-family="Times,serif" font-size="14.00">concatenate_697: Concatenate</text>
</g>
<!-- 140545465879072&#45;&gt;140545465879464 -->
<g id="edge29" class="edge"><title>140545465879072&#45;&gt;140545465879464</title>
<path fill="none" stroke="black" d="M578.5,-949.313C578.5,-941.289 578.5,-931.547 578.5,-922.569"/>
<polygon fill="black" stroke="black" points="582,-922.529 578.5,-912.529 575,-922.529 582,-922.529"/>
</g>
<!-- 140545465879072&#45;&gt;140545465879520 -->
<g id="edge31" class="edge"><title>140545465879072&#45;&gt;140545465879520</title>
<path fill="none" stroke="black" d="M650.521,-949.383C675.591,-938.793 697.554,-921.963 697.5,-895.5"/>
<path fill="none" stroke="black" d="M697.5,-893.5C697.462,-874.883 685.274,-858.627 671.895,-846.385"/>
<polygon fill="black" stroke="black" points="673.852,-843.455 663.962,-839.653 669.322,-848.792 673.852,-843.455"/>
</g>
<!-- 140545465879184&#45;&gt;140545465879464 -->
<g id="edge28" class="edge"><title>140545465879184&#45;&gt;140545465879464</title>
<path fill="none" stroke="black" d="M391.423,-949.494C426.914,-939.25 472.281,-926.157 509.45,-915.429"/>
<polygon fill="black" stroke="black" points="510.568,-918.749 519.205,-912.614 508.627,-912.024 510.568,-918.749"/>
</g>
<!-- 140545465879464&#45;&gt;140545465879520 -->
<g id="edge32" class="edge"><title>140545465879464&#45;&gt;140545465879520</title>
<path fill="none" stroke="black" d="M592.782,-876.313C600.029,-867.592 608.964,-856.84 616.936,-847.246"/>
<polygon fill="black" stroke="black" points="619.65,-849.457 623.349,-839.529 614.266,-844.983 619.65,-849.457"/>
</g>
<!-- 140545465879576 -->
<g id="node24" class="node"><title>140545465879576</title>
<polygon fill="none" stroke="black" points="513.5,-730.5 513.5,-766.5 761.5,-766.5 761.5,-730.5 513.5,-730.5"/>
<text text-anchor="middle" x="637.5" y="-744.8" font-family="Times,serif" font-size="14.00">separable_conv2d_375: SeparableConv2D</text>
</g>
<!-- 140545465879520&#45;&gt;140545465879576 -->
<g id="edge33" class="edge"><title>140545465879520&#45;&gt;140545465879576</title>
<path fill="none" stroke="black" d="M637.5,-803.313C637.5,-795.289 637.5,-785.547 637.5,-776.569"/>
<polygon fill="black" stroke="black" points="641,-776.529 637.5,-766.529 634,-776.529 641,-776.529"/>
</g>
<!-- 140545465880192 -->
<g id="node25" class="node"><title>140545465880192</title>
<polygon fill="none" stroke="black" points="235.5,-657.5 235.5,-693.5 483.5,-693.5 483.5,-657.5 235.5,-657.5"/>
<text text-anchor="middle" x="359.5" y="-671.8" font-family="Times,serif" font-size="14.00">separable_conv2d_376: SeparableConv2D</text>
</g>
<!-- 140545465879576&#45;&gt;140545465880192 -->
<g id="edge34" class="edge"><title>140545465879576&#45;&gt;140545465880192</title>
<path fill="none" stroke="black" d="M570.912,-730.494C530.463,-720.163 478.663,-706.934 436.462,-696.156"/>
<polygon fill="black" stroke="black" points="437.063,-692.697 426.508,-693.614 435.331,-699.479 437.063,-692.697"/>
</g>
<!-- 140545465864032 -->
<g id="node26" class="node"><title>140545465864032</title>
<polygon fill="none" stroke="black" points="513.5,-657.5 513.5,-693.5 761.5,-693.5 761.5,-657.5 513.5,-657.5"/>
<text text-anchor="middle" x="637.5" y="-671.8" font-family="Times,serif" font-size="14.00">separable_conv2d_377: SeparableConv2D</text>
</g>
<!-- 140545465879576&#45;&gt;140545465864032 -->
<g id="edge35" class="edge"><title>140545465879576&#45;&gt;140545465864032</title>
<path fill="none" stroke="black" d="M637.5,-730.313C637.5,-722.289 637.5,-712.547 637.5,-703.569"/>
<polygon fill="black" stroke="black" points="641,-703.529 637.5,-693.529 634,-703.529 641,-703.529"/>
</g>
<!-- 140545465899160 -->
<g id="node31" class="node"><title>140545465899160</title>
<polygon fill="none" stroke="black" points="592.5,-365.5 592.5,-401.5 774.5,-401.5 774.5,-365.5 592.5,-365.5"/>
<text text-anchor="middle" x="683.5" y="-379.8" font-family="Times,serif" font-size="14.00">concatenate_700: Concatenate</text>
</g>
<!-- 140545465879576&#45;&gt;140545465899160 -->
<g id="edge41" class="edge"><title>140545465879576&#45;&gt;140545465899160</title>
<path fill="none" stroke="black" d="M716.661,-730.445C736.885,-722.5 756.768,-710.902 770.5,-694 796.305,-662.239 821.971,-512.208 802.5,-457.5"/>
<path fill="none" stroke="black" d="M802.5,-455.5C793.337,-432.753 772.603,-416.863 750.966,-405.977"/>
<polygon fill="black" stroke="black" points="752.208,-402.694 741.668,-401.613 749.233,-409.03 752.208,-402.694"/>
</g>
<!-- 140545465899608 -->
<g id="node34" class="node"><title>140545465899608</title>
<polygon fill="none" stroke="black" points="651.5,-219.5 651.5,-255.5 833.5,-255.5 833.5,-219.5 651.5,-219.5"/>
<text text-anchor="middle" x="742.5" y="-233.8" font-family="Times,serif" font-size="14.00">concatenate_702: Concatenate</text>
</g>
<!-- 140545465879576&#45;&gt;140545465899608 -->
<g id="edge46" class="edge"><title>140545465879576&#45;&gt;140545465899608</title>
<path fill="none" stroke="black" d="M802.5,-455.5C778.587,-396.135 802.631,-375.5 802.5,-311.5"/>
</g>
<!-- 140545465898096 -->
<g id="node27" class="node"><title>140545465898096</title>
<polygon fill="none" stroke="black" points="210,-584.5 210,-620.5 483,-620.5 483,-584.5 210,-584.5"/>
<text text-anchor="middle" x="346.5" y="-598.8" font-family="Times,serif" font-size="14.00">batch_normalization_316: BatchNormalization</text>
</g>
<!-- 140545465880192&#45;&gt;140545465898096 -->
<g id="edge36" class="edge"><title>140545465880192&#45;&gt;140545465898096</title>
<path fill="none" stroke="black" d="M356.353,-657.313C354.884,-649.289 353.1,-639.547 351.456,-630.569"/>
<polygon fill="black" stroke="black" points="354.862,-629.735 349.618,-620.529 347.976,-630.996 354.862,-629.735"/>
</g>
<!-- 140545465898488 -->
<g id="node28" class="node"><title>140545465898488</title>
<polygon fill="none" stroke="black" points="501,-584.5 501,-620.5 774,-620.5 774,-584.5 501,-584.5"/>
<text text-anchor="middle" x="637.5" y="-598.8" font-family="Times,serif" font-size="14.00">batch_normalization_317: BatchNormalization</text>
</g>
<!-- 140545465864032&#45;&gt;140545465898488 -->
<g id="edge37" class="edge"><title>140545465864032&#45;&gt;140545465898488</title>
<path fill="none" stroke="black" d="M637.5,-657.313C637.5,-649.289 637.5,-639.547 637.5,-630.569"/>
<polygon fill="black" stroke="black" points="641,-630.529 637.5,-620.529 634,-630.529 641,-630.529"/>
</g>
<!-- 140545465898768 -->
<g id="node29" class="node"><title>140545465898768</title>
<polygon fill="none" stroke="black" points="409.5,-511.5 409.5,-547.5 591.5,-547.5 591.5,-511.5 409.5,-511.5"/>
<text text-anchor="middle" x="500.5" y="-525.8" font-family="Times,serif" font-size="14.00">concatenate_699: Concatenate</text>
</g>
<!-- 140545465898096&#45;&gt;140545465898768 -->
<g id="edge38" class="edge"><title>140545465898096&#45;&gt;140545465898768</title>
<path fill="none" stroke="black" d="M383.387,-584.494C404.659,-574.686 431.599,-562.266 454.276,-551.811"/>
<polygon fill="black" stroke="black" points="455.764,-554.979 463.38,-547.614 452.834,-548.622 455.764,-554.979"/>
</g>
<!-- 140545465898488&#45;&gt;140545465898768 -->
<g id="edge39" class="edge"><title>140545465898488&#45;&gt;140545465898768</title>
<path fill="none" stroke="black" d="M604.685,-584.494C586.013,-574.817 562.433,-562.597 542.43,-552.23"/>
<polygon fill="black" stroke="black" points="544.011,-549.107 533.522,-547.614 540.79,-555.322 544.011,-549.107"/>
</g>
<!-- 140545465898824 -->
<g id="node30" class="node"><title>140545465898824</title>
<polygon fill="none" stroke="black" points="407,-438.5 407,-474.5 544,-474.5 544,-438.5 407,-438.5"/>
<text text-anchor="middle" x="475.5" y="-452.8" font-family="Times,serif" font-size="14.00">conv2d_344: Conv2D</text>
</g>
<!-- 140545465898768&#45;&gt;140545465898824 -->
<g id="edge40" class="edge"><title>140545465898768&#45;&gt;140545465898824</title>
<path fill="none" stroke="black" d="M494.448,-511.313C491.562,-503.115 488.043,-493.123 484.826,-483.985"/>
<polygon fill="black" stroke="black" points="488.119,-482.799 481.496,-474.529 481.516,-485.124 488.119,-482.799"/>
</g>
<!-- 140545465898768&#45;&gt;140545465899160 -->
<g id="edge42" class="edge"><title>140545465898768&#45;&gt;140545465899160</title>
<path fill="none" stroke="black" d="M522.211,-511.416C554.955,-485.65 617.054,-436.785 653.911,-407.783"/>
<polygon fill="black" stroke="black" points="656.123,-410.496 661.817,-401.562 651.794,-404.995 656.123,-410.496"/>
</g>
<!-- 140545465899272 -->
<g id="node32" class="node"><title>140545465899272</title>
<polygon fill="none" stroke="black" points="301,-365.5 301,-401.5 574,-401.5 574,-365.5 301,-365.5"/>
<text text-anchor="middle" x="437.5" y="-379.8" font-family="Times,serif" font-size="14.00">batch_normalization_318: BatchNormalization</text>
</g>
<!-- 140545465898824&#45;&gt;140545465899272 -->
<g id="edge43" class="edge"><title>140545465898824&#45;&gt;140545465899272</title>
<path fill="none" stroke="black" d="M466.301,-438.313C461.82,-429.941 456.338,-419.697 451.363,-410.403"/>
<polygon fill="black" stroke="black" points="454.419,-408.694 446.614,-401.529 448.247,-411.997 454.419,-408.694"/>
</g>
<!-- 140545465899552 -->
<g id="node33" class="node"><title>140545465899552</title>
<polygon fill="none" stroke="black" points="592.5,-292.5 592.5,-328.5 774.5,-328.5 774.5,-292.5 592.5,-292.5"/>
<text text-anchor="middle" x="683.5" y="-306.8" font-family="Times,serif" font-size="14.00">concatenate_701: Concatenate</text>
</g>
<!-- 140545465899160&#45;&gt;140545465899552 -->
<g id="edge45" class="edge"><title>140545465899160&#45;&gt;140545465899552</title>
<path fill="none" stroke="black" d="M683.5,-365.313C683.5,-357.289 683.5,-347.547 683.5,-338.569"/>
<polygon fill="black" stroke="black" points="687,-338.529 683.5,-328.529 680,-338.529 687,-338.529"/>
</g>
<!-- 140545465899160&#45;&gt;140545465899608 -->
<g id="edge47" class="edge"><title>140545465899160&#45;&gt;140545465899608</title>
<path fill="none" stroke="black" d="M755.521,-365.383C780.591,-354.793 802.554,-337.963 802.5,-311.5"/>
<path fill="none" stroke="black" d="M802.5,-309.5C802.462,-290.883 790.274,-274.627 776.895,-262.385"/>
<polygon fill="black" stroke="black" points="778.852,-259.455 768.962,-255.653 774.322,-264.792 778.852,-259.455"/>
</g>
<!-- 140545465899272&#45;&gt;140545465899552 -->
<g id="edge44" class="edge"><title>140545465899272&#45;&gt;140545465899552</title>
<path fill="none" stroke="black" d="M496.423,-365.494C531.914,-355.25 577.281,-342.157 614.45,-331.429"/>
<polygon fill="black" stroke="black" points="615.568,-334.749 624.205,-328.614 613.627,-328.024 615.568,-334.749"/>
</g>
<!-- 140545465899552&#45;&gt;140545465899608 -->
<g id="edge48" class="edge"><title>140545465899552&#45;&gt;140545465899608</title>
<path fill="none" stroke="black" d="M697.782,-292.313C705.029,-283.592 713.964,-272.84 721.936,-263.246"/>
<polygon fill="black" stroke="black" points="724.65,-265.457 728.349,-255.529 719.266,-260.983 724.65,-265.457"/>
</g>
<!-- 140545465899664 -->
<g id="node35" class="node"><title>140545465899664</title>
<polygon fill="none" stroke="black" points="618.5,-146.5 618.5,-182.5 866.5,-182.5 866.5,-146.5 618.5,-146.5"/>
<text text-anchor="middle" x="742.5" y="-160.8" font-family="Times,serif" font-size="14.00">separable_conv2d_378: SeparableConv2D</text>
</g>
<!-- 140545465899608&#45;&gt;140545465899664 -->
<g id="edge49" class="edge"><title>140545465899608&#45;&gt;140545465899664</title>
<path fill="none" stroke="black" d="M742.5,-219.313C742.5,-211.289 742.5,-201.547 742.5,-192.569"/>
<polygon fill="black" stroke="black" points="746,-192.529 742.5,-182.529 739,-192.529 746,-192.529"/>
</g>
<!-- 140545465900280 -->
<g id="node36" class="node"><title>140545465900280</title>
<polygon fill="none" stroke="black" points="574.5,-73.5 574.5,-109.5 910.5,-109.5 910.5,-73.5 574.5,-73.5"/>
<text text-anchor="middle" x="742.5" y="-87.8" font-family="Times,serif" font-size="14.00">global_average_pooling2d_101: GlobalAveragePooling2D</text>
</g>
<!-- 140545465899664&#45;&gt;140545465900280 -->
<g id="edge50" class="edge"><title>140545465899664&#45;&gt;140545465900280</title>
<path fill="none" stroke="black" d="M742.5,-146.313C742.5,-138.289 742.5,-128.547 742.5,-119.569"/>
<polygon fill="black" stroke="black" points="746,-119.529 742.5,-109.529 739,-119.529 746,-119.529"/>
</g>
<!-- 140545465900504 -->
<g id="node37" class="node"><title>140545465900504</title>
<polygon fill="none" stroke="black" points="684.5,-0.5 684.5,-36.5 800.5,-36.5 800.5,-0.5 684.5,-0.5"/>
<text text-anchor="middle" x="742.5" y="-14.8" font-family="Times,serif" font-size="14.00">dense_101: Dense</text>
</g>
<!-- 140545465900280&#45;&gt;140545465900504 -->
<g id="edge51" class="edge"><title>140545465900280&#45;&gt;140545465900504</title>
<path fill="none" stroke="black" d="M742.5,-73.3129C742.5,-65.2895 742.5,-55.5475 742.5,-46.5691"/>
<polygon fill="black" stroke="black" points="746,-46.5288 742.5,-36.5288 739,-46.5289 746,-46.5288"/>
</g>
</g>
</svg>
