<?xml version="1.0" encoding="ISO-8859-1" standalone="no"?>
<!DOCTYPE svg PUBLIC "-//W3C//DTD SVG 1.1//EN" "http://www.w3.org/Graphics/SVG/1.1/DTD/svg11.dtd">
<svg version="1.1" baseProfile="full" id="body" width="8in" height="8in" viewBox="0 0 1 1" preserveAspectRatio="none" xmlns="http://www.w3.org/2000/svg" xmlns:xlink="http://www.w3.org/1999/xlink" xmlns:ev="http://www.w3.org/2001/xml-events">
<title>SVG drawing</title>
<desc>This was produced by version 4.4 of GNU libplot, a free library for exporting 2-D vector graphics.</desc>
<rect id="background" x="0" y="0" width="1" height="1" stroke="none" fill="white"/>
<g id="content" transform="translate(0,1) scale(0.0016667,-0.0033333) " xml:space="preserve" stroke="black" stroke-linecap="butt" stroke-linejoin="miter" stroke-miterlimit="10.433" stroke-dasharray="none" stroke-dashoffset="0" stroke-opacity="1" fill="none" fill-rule="evenodd" fill-opacity="1" font-style="normal" font-variant="normal" font-weight="normal" font-stretch="normal" font-size-adjust="none" letter-spacing="normal" word-spacing="normal" text-anchor="start">
<line x1="243.49" y1="279.7" x2="243.49" y2="271.69" stroke-width="0.54142" stroke-linecap="round" />
<line x1="243.87" y1="279.7" x2="243.87" y2="271.69" stroke-width="0.54142" stroke-linecap="round" />
<polyline points="242.34,279.7 246.92,279.7 248.06,279.31 248.44,278.93 248.82,278.17 248.82,277.03 248.44,276.26 248.06,275.88 246.92,275.5 243.87,275.5 " stroke-width="0.54142" stroke-linecap="round" stroke-linejoin="round" />
<polyline points="246.92,279.7 247.68,279.31 248.06,278.93 248.44,278.17 248.44,277.03 248.06,276.26 247.68,275.88 246.92,275.5 " stroke-width="0.54142" stroke-linecap="round" stroke-linejoin="round" />
<line x1="242.34" y1="271.69" x2="245.01" y2="271.69" stroke-width="0.54142" stroke-linecap="round" />
<polyline points="253.4,277.03 252.25,276.65 251.49,275.88 251.11,274.74 251.11,273.98 251.49,272.83 252.25,272.07 253.4,271.69 254.16,271.69 255.31,272.07 256.07,272.83 256.45,273.98 256.45,274.74 256.07,275.88 255.31,276.65 254.16,277.03 253.4,277.03 " stroke-width="0.54142" stroke-linecap="round" stroke-linejoin="round" />
<polyline points="253.4,277.03 252.64,276.65 251.87,275.88 251.49,274.74 251.49,273.98 251.87,272.83 252.64,272.07 253.4,271.69 " stroke-width="0.54142" stroke-linecap="round" stroke-linejoin="round" />
<polyline points="254.16,271.69 254.92,272.07 255.69,272.83 256.07,273.98 256.07,274.74 255.69,275.88 254.92,276.65 254.16,277.03 " stroke-width="0.54142" stroke-linecap="round" stroke-linejoin="round" />
<line x1="259.5" y1="277.03" x2="259.5" y2="269.02" stroke-width="0.54142" stroke-linecap="round" />
<line x1="259.88" y1="277.03" x2="259.88" y2="269.02" stroke-width="0.54142" stroke-linecap="round" />
<polyline points="259.88,275.88 260.64,276.65 261.41,277.03 262.17,277.03 263.31,276.65 264.07,275.88 264.46,274.74 264.46,273.98 264.07,272.83 263.31,272.07 262.17,271.69 261.41,271.69 260.64,272.07 259.88,272.83 " stroke-width="0.54142" stroke-linecap="round" stroke-linejoin="round" />
<polyline points="262.17,277.03 262.93,276.65 263.69,275.88 264.07,274.74 264.07,273.98 263.69,272.83 262.93,272.07 262.17,271.69 " stroke-width="0.54142" stroke-linecap="round" stroke-linejoin="round" />
<line x1="258.36" y1="277.03" x2="259.88" y2="277.03" stroke-width="0.54142" stroke-linecap="round" />
<line x1="258.36" y1="269.02" x2="261.02" y2="269.02" stroke-width="0.54142" stroke-linecap="round" />
<polygon points="267.51,272.45 267.12,272.07 267.51,271.69 267.89,272.07 " stroke-width="0.54142" stroke-linejoin="round" />
<polyline points="277.42,276.26 277.42,275.88 277.04,275.88 277.04,276.26 277.42,276.65 278.18,277.03 279.71,277.03 280.47,276.65 280.85,276.26 281.23,275.5 281.23,272.83 281.61,272.07 281.99,271.69 " stroke-width="0.54142" stroke-linecap="round" stroke-linejoin="round" />
<polyline points="280.85,276.26 280.85,272.83 281.23,272.07 281.99,271.69 282.38,271.69 " stroke-width="0.54142" stroke-linecap="round" stroke-linejoin="round" />
<polyline points="280.85,275.5 280.47,275.12 278.18,274.74 277.04,274.36 276.66,273.6 276.66,272.83 277.04,272.07 278.18,271.69 279.33,271.69 280.09,272.07 280.85,272.83 " stroke-width="0.54142" stroke-linecap="round" stroke-linejoin="round" />
<polyline points="278.18,274.74 277.42,274.36 277.04,273.6 277.04,272.83 277.42,272.07 278.18,271.69 " stroke-width="0.54142" stroke-linecap="round" stroke-linejoin="round" />
<line x1="284.28" y1="277.03" x2="286.57" y2="271.69" stroke-width="0.54142" stroke-linecap="round" />
<line x1="284.66" y1="277.03" x2="286.57" y2="272.45" stroke-width="0.54142" stroke-linecap="round" />
<line x1="288.86" y1="277.03" x2="286.57" y2="271.69" stroke-width="0.54142" stroke-linecap="round" />
<line x1="283.52" y1="277.03" x2="285.81" y2="277.03" stroke-width="0.54142" stroke-linecap="round" />
<line x1="287.33" y1="277.03" x2="289.62" y2="277.03" stroke-width="0.54142" stroke-linecap="round" />
<polygon points="293.05,277.03 292.29,276.65 291.91,276.26 291.53,275.5 291.53,274.74 291.91,273.98 292.29,273.6 293.05,273.21 293.81,273.21 294.58,273.6 294.96,273.98 295.34,274.74 295.34,275.5 294.96,276.26 294.58,276.65 293.81,277.03 " stroke-width="0.54142" stroke-linejoin="round" />
<polyline points="292.29,276.65 291.91,275.88 291.91,274.36 292.29,273.6 " stroke-width="0.54142" stroke-linecap="round" stroke-linejoin="round" />
<polyline points="294.58,273.6 294.96,274.36 294.96,275.88 294.58,276.65 " stroke-width="0.54142" stroke-linecap="round" stroke-linejoin="round" />
<polyline points="294.96,276.26 295.34,276.65 296.1,277.03 296.1,276.65 295.34,276.65 " stroke-width="0.54142" stroke-linecap="round" stroke-linejoin="round" />
<polyline points="291.91,273.98 291.53,273.6 291.15,272.83 291.15,272.45 291.53,271.69 292.67,271.31 294.58,271.31 295.72,270.93 296.1,270.55 " stroke-width="0.54142" stroke-linecap="round" stroke-linejoin="round" />
<polyline points="291.15,272.45 291.53,272.07 292.67,271.69 294.58,271.69 295.72,271.31 296.1,270.55 296.1,270.16 295.72,269.4 294.58,269.02 292.29,269.02 291.15,269.4 290.76,270.16 290.76,270.55 291.15,271.31 292.29,271.69 " stroke-width="0.54142" stroke-linecap="round" stroke-linejoin="round" />
<polyline points="305.25,276.26 305.25,275.88 304.87,275.88 304.87,276.26 305.25,276.65 306.02,277.03 307.54,277.03 308.3,276.65 308.68,276.26 309.07,275.5 309.07,272.83 309.45,272.07 309.83,271.69 " stroke-width="0.54142" stroke-linecap="round" stroke-linejoin="round" />
<polyline points="308.68,276.26 308.68,272.83 309.07,272.07 309.83,271.69 310.21,271.69 " stroke-width="0.54142" stroke-linecap="round" stroke-linejoin="round" />
<polyline points="308.68,275.5 308.3,275.12 306.02,274.74 304.87,274.36 304.49,273.6 304.49,272.83 304.87,272.07 306.02,271.69 307.16,271.69 307.92,272.07 308.68,272.83 " stroke-width="0.54142" stroke-linecap="round" stroke-linejoin="round" />
<polyline points="306.02,274.74 305.25,274.36 304.87,273.6 304.87,272.83 305.25,272.07 306.02,271.69 " stroke-width="0.54142" stroke-linecap="round" stroke-linejoin="round" />
<line x1="312.88" y1="277.03" x2="312.88" y2="271.69" stroke-width="0.54142" stroke-linecap="round" />
<line x1="313.26" y1="277.03" x2="313.26" y2="271.69" stroke-width="0.54142" stroke-linecap="round" />
<polyline points="313.26,275.88 314.02,276.65 315.17,277.03 315.93,277.03 317.07,276.65 317.45,275.88 317.45,271.69 " stroke-width="0.54142" stroke-linecap="round" stroke-linejoin="round" />
<polyline points="315.93,277.03 316.69,276.65 317.07,275.88 317.07,271.69 " stroke-width="0.54142" stroke-linecap="round" stroke-linejoin="round" />
<line x1="311.74" y1="277.03" x2="313.26" y2="277.03" stroke-width="0.54142" stroke-linecap="round" />
<line x1="311.74" y1="271.69" x2="314.4" y2="271.69" stroke-width="0.54142" stroke-linecap="round" />
<line x1="315.93" y1="271.69" x2="318.6" y2="271.69" stroke-width="0.54142" stroke-linecap="round" />
<line x1="325.08" y1="279.7" x2="325.08" y2="271.69" stroke-width="0.54142" stroke-linecap="round" />
<line x1="325.46" y1="279.7" x2="325.46" y2="271.69" stroke-width="0.54142" stroke-linecap="round" />
<polyline points="325.08,275.88 324.32,276.65 323.55,277.03 322.79,277.03 321.65,276.65 320.89,275.88 320.5,274.74 320.5,273.98 320.89,272.83 321.65,272.07 322.79,271.69 323.55,271.69 324.32,272.07 325.08,272.83 " stroke-width="0.54142" stroke-linecap="round" stroke-linejoin="round" />
<polyline points="322.79,277.03 322.03,276.65 321.27,275.88 320.89,274.74 320.89,273.98 321.27,272.83 322.03,272.07 322.79,271.69 " stroke-width="0.54142" stroke-linecap="round" stroke-linejoin="round" />
<line x1="323.94" y1="279.7" x2="325.46" y2="279.7" stroke-width="0.54142" stroke-linecap="round" />
<line x1="325.08" y1="271.69" x2="326.61" y2="271.69" stroke-width="0.54142" stroke-linecap="round" />
<line x1="335.37" y1="279.7" x2="335.37" y2="271.69" stroke-width="0.54142" stroke-linecap="round" />
<line x1="335.76" y1="279.7" x2="335.76" y2="271.69" stroke-width="0.54142" stroke-linecap="round" />
<polyline points="335.76,275.88 336.52,276.65 337.28,277.03 338.04,277.03 339.19,276.65 339.95,275.88 340.33,274.74 340.33,273.98 339.95,272.83 339.19,272.07 338.04,271.69 337.28,271.69 336.52,272.07 335.76,272.83 " stroke-width="0.54142" stroke-linecap="round" stroke-linejoin="round" />
<polyline points="338.04,277.03 338.81,276.65 339.57,275.88 339.95,274.74 339.95,273.98 339.57,272.83 338.81,272.07 338.04,271.69 " stroke-width="0.54142" stroke-linecap="round" stroke-linejoin="round" />
<line x1="334.23" y1="279.7" x2="335.76" y2="279.7" stroke-width="0.54142" stroke-linecap="round" />
<polyline points="343,274.74 347.58,274.74 347.58,275.5 347.19,276.26 346.81,276.65 346.05,277.03 344.91,277.03 343.76,276.65 343,275.88 342.62,274.74 342.62,273.98 343,272.83 343.76,272.07 344.91,271.69 345.67,271.69 346.81,272.07 347.58,272.83 " stroke-width="0.54142" stroke-linecap="round" stroke-linejoin="round" />
<polyline points="347.19,274.74 347.19,275.88 346.81,276.65 " stroke-width="0.54142" stroke-linecap="round" stroke-linejoin="round" />
<polyline points="344.91,277.03 344.14,276.65 343.38,275.88 343,274.74 343,273.98 343.38,272.83 344.14,272.07 344.91,271.69 " stroke-width="0.54142" stroke-linecap="round" stroke-linejoin="round" />
<polyline points="353.68,276.26 354.06,277.03 354.06,275.5 353.68,276.26 353.29,276.65 352.53,277.03 351.01,277.03 350.24,276.65 349.86,276.26 349.86,275.5 350.24,275.12 351.01,274.74 352.91,273.98 353.68,273.6 354.06,273.21 " stroke-width="0.54142" stroke-linecap="round" stroke-linejoin="round" />
<polyline points="349.86,275.88 350.24,275.5 351.01,275.12 352.91,274.36 353.68,273.98 354.06,273.6 354.06,272.45 353.68,272.07 352.91,271.69 351.39,271.69 350.63,272.07 350.24,272.45 349.86,273.21 349.86,271.69 350.24,272.45 " stroke-width="0.54142" stroke-linecap="round" stroke-linejoin="round" />
<polyline points="357.11,279.7 357.11,273.21 357.49,272.07 358.25,271.69 359.01,271.69 359.78,272.07 360.16,272.83 " stroke-width="0.54142" stroke-linecap="round" stroke-linejoin="round" />
<polyline points="357.49,279.7 357.49,273.21 357.87,272.07 358.25,271.69 " stroke-width="0.54142" stroke-linecap="round" stroke-linejoin="round" />
<line x1="355.96" y1="277.03" x2="359.01" y2="277.03" stroke-width="0.54142" stroke-linecap="round" />
<polyline points="373.12,279.31 372.74,278.93 373.12,278.55 373.5,278.93 373.12,279.31 372.36,279.7 371.22,279.7 370.07,279.31 369.31,278.55 368.93,277.41 368.93,271.69 " stroke-width="0.54142" stroke-linecap="round" stroke-linejoin="round" />
<polyline points="371.22,279.7 370.45,279.31 369.69,278.55 369.31,277.41 369.31,271.69 " stroke-width="0.54142" stroke-linecap="round" stroke-linejoin="round" />
<line x1="373.12" y1="277.03" x2="373.12" y2="271.69" stroke-width="0.54142" stroke-linecap="round" />
<line x1="373.5" y1="277.03" x2="373.5" y2="271.69" stroke-width="0.54142" stroke-linecap="round" />
<line x1="367.78" y1="277.03" x2="373.5" y2="277.03" stroke-width="0.54142" stroke-linecap="round" />
<line x1="367.78" y1="271.69" x2="370.45" y2="271.69" stroke-width="0.54142" stroke-linecap="round" />
<line x1="371.98" y1="271.69" x2="374.65" y2="271.69" stroke-width="0.54142" stroke-linecap="round" />
<polyline points="377.32,279.7 377.32,273.21 377.7,272.07 378.46,271.69 379.22,271.69 379.98,272.07 380.37,272.83 " stroke-width="0.54142" stroke-linecap="round" stroke-linejoin="round" />
<polyline points="377.7,279.7 377.7,273.21 378.08,272.07 378.46,271.69 " stroke-width="0.54142" stroke-linecap="round" stroke-linejoin="round" />
<line x1="376.17" y1="277.03" x2="379.22" y2="277.03" stroke-width="0.54142" stroke-linecap="round" />
<line x1="383.03" y1="277.03" x2="383.03" y2="271.69" stroke-width="0.54142" stroke-linecap="round" />
<line x1="383.42" y1="277.03" x2="383.42" y2="271.69" stroke-width="0.54142" stroke-linecap="round" />
<polyline points="383.42,275.88 384.18,276.65 385.32,277.03 386.09,277.03 387.23,276.65 387.61,275.88 387.61,271.69 " stroke-width="0.54142" stroke-linecap="round" stroke-linejoin="round" />
<polyline points="386.09,277.03 386.85,276.65 387.23,275.88 387.23,271.69 " stroke-width="0.54142" stroke-linecap="round" stroke-linejoin="round" />
<line x1="381.89" y1="277.03" x2="383.42" y2="277.03" stroke-width="0.54142" stroke-linecap="round" />
<line x1="381.89" y1="271.69" x2="384.56" y2="271.69" stroke-width="0.54142" stroke-linecap="round" />
<line x1="386.09" y1="271.69" x2="388.75" y2="271.69" stroke-width="0.54142" stroke-linecap="round" />
<polyline points="391.04,274.74 395.62,274.74 395.62,275.5 395.24,276.26 394.85,276.65 394.09,277.03 392.95,277.03 391.8,276.65 391.04,275.88 390.66,274.74 390.66,273.98 391.04,272.83 391.8,272.07 392.95,271.69 393.71,271.69 394.85,272.07 395.62,272.83 " stroke-width="0.54142" stroke-linecap="round" stroke-linejoin="round" />
<polyline points="395.24,274.74 395.24,275.88 394.85,276.65 " stroke-width="0.54142" stroke-linecap="round" stroke-linejoin="round" />
<polyline points="392.95,277.03 392.19,276.65 391.42,275.88 391.04,274.74 391.04,273.98 391.42,272.83 392.19,272.07 392.95,271.69 " stroke-width="0.54142" stroke-linecap="round" stroke-linejoin="round" />
<polyline points="401.72,276.26 402.1,277.03 402.1,275.5 401.72,276.26 401.34,276.65 400.57,277.03 399.05,277.03 398.29,276.65 397.91,276.26 397.91,275.5 398.29,275.12 399.05,274.74 400.96,273.98 401.72,273.6 402.1,273.21 " stroke-width="0.54142" stroke-linecap="round" stroke-linejoin="round" />
<polyline points="397.91,275.88 398.29,275.5 399.05,275.12 400.96,274.36 401.72,273.98 402.1,273.6 402.1,272.45 401.72,272.07 400.96,271.69 399.43,271.69 398.67,272.07 398.29,272.45 397.91,273.21 397.91,271.69 398.29,272.45 " stroke-width="0.54142" stroke-linecap="round" stroke-linejoin="round" />
<polyline points="408.2,276.26 408.58,277.03 408.58,275.5 408.2,276.26 407.82,276.65 407.06,277.03 405.53,277.03 404.77,276.65 404.39,276.26 404.39,275.5 404.77,275.12 405.53,274.74 407.44,273.98 408.2,273.6 408.58,273.21 " stroke-width="0.54142" stroke-linecap="round" stroke-linejoin="round" />
<polyline points="404.39,275.88 404.77,275.5 405.53,275.12 407.44,274.36 408.2,273.98 408.58,273.6 408.58,272.45 408.2,272.07 407.44,271.69 405.91,271.69 405.15,272.07 404.77,272.45 404.39,273.21 404.39,271.69 404.77,272.45 " stroke-width="0.54142" stroke-linecap="round" stroke-linejoin="round" />
<polyline points="103.52,254.96 152.88,247.6 202.24,253.64 251.61,197.11 300.97,130.85 350.33,176.08 399.7,75.531 449.06,184.14 498.42,234.27 547.79,233.92 " stroke="red" stroke-width="0.41941" />
<polyline points="103.52,212.55 152.88,222.25 202.24,240.94 251.61,182.17 300.97,97.25 350.33,111.97 399.7,61.434 449.06,144.27 498.42,200.67 547.79,129.62 " stroke="blue" stroke-width="0.41941" />
<line x1="570" y1="53.655" x2="566.85" y2="53.655" stroke-width="0.70588" />
<line x1="570" y1="65.434" x2="566.85" y2="65.434" stroke-width="0.70588" />
<line x1="570" y1="77.214" x2="566.85" y2="77.214" stroke-width="0.70588" />
<line x1="570" y1="88.993" x2="566.85" y2="88.993" stroke-width="0.70588" />
<line x1="570" y1="100.77" x2="566.85" y2="100.77" stroke-width="0.70588" />
<line x1="570" y1="112.55" x2="566.85" y2="112.55" stroke-width="0.70588" />
<line x1="570" y1="124.33" x2="566.85" y2="124.33" stroke-width="0.70588" />
<line x1="570" y1="136.11" x2="566.85" y2="136.11" stroke-width="0.70588" />
<line x1="570" y1="147.89" x2="566.85" y2="147.89" stroke-width="0.70588" />
<line x1="570" y1="159.67" x2="566.85" y2="159.67" stroke-width="0.70588" />
<line x1="570" y1="171.45" x2="566.85" y2="171.45" stroke-width="0.70588" />
<line x1="570" y1="183.23" x2="566.85" y2="183.23" stroke-width="0.70588" />
<line x1="570" y1="195.01" x2="566.85" y2="195.01" stroke-width="0.70588" />
<line x1="570" y1="206.79" x2="566.85" y2="206.79" stroke-width="0.70588" />
<line x1="570" y1="218.57" x2="566.85" y2="218.57" stroke-width="0.70588" />
<line x1="570" y1="230.35" x2="566.85" y2="230.35" stroke-width="0.70588" />
<line x1="570" y1="242.13" x2="566.85" y2="242.13" stroke-width="0.70588" />
<line x1="570" y1="253.91" x2="566.85" y2="253.91" stroke-width="0.70588" />
<line x1="570" y1="77.214" x2="563.71" y2="77.214" stroke-width="0.70588" />
<line x1="570" y1="136.11" x2="563.71" y2="136.11" stroke-width="0.70588" />
<line x1="570" y1="195.01" x2="563.71" y2="195.01" stroke-width="0.70588" />
<line x1="570" y1="253.91" x2="563.71" y2="253.91" stroke-width="0.70588" />
<line x1="570" y1="51.758" x2="570" y2="264.64" stroke-width="0.70588" />
<line x1="103.52" y1="264.64" x2="103.52" y2="261.49" stroke-width="0.70588" />
<line x1="128.2" y1="264.64" x2="128.2" y2="261.49" stroke-width="0.70588" />
<line x1="152.88" y1="264.64" x2="152.88" y2="261.49" stroke-width="0.70588" />
<line x1="177.56" y1="264.64" x2="177.56" y2="261.49" stroke-width="0.70588" />
<line x1="202.24" y1="264.64" x2="202.24" y2="261.49" stroke-width="0.70588" />
<line x1="226.93" y1="264.64" x2="226.93" y2="261.49" stroke-width="0.70588" />
<line x1="251.61" y1="264.64" x2="251.61" y2="261.49" stroke-width="0.70588" />
<line x1="276.29" y1="264.64" x2="276.29" y2="261.49" stroke-width="0.70588" />
<line x1="300.97" y1="264.64" x2="300.97" y2="261.49" stroke-width="0.70588" />
<line x1="325.65" y1="264.64" x2="325.65" y2="261.49" stroke-width="0.70588" />
<line x1="350.33" y1="264.64" x2="350.33" y2="261.49" stroke-width="0.70588" />
<line x1="375.02" y1="264.64" x2="375.02" y2="261.49" stroke-width="0.70588" />
<line x1="399.7" y1="264.64" x2="399.7" y2="261.49" stroke-width="0.70588" />
<line x1="424.38" y1="264.64" x2="424.38" y2="261.49" stroke-width="0.70588" />
<line x1="449.06" y1="264.64" x2="449.06" y2="261.49" stroke-width="0.70588" />
<line x1="473.74" y1="264.64" x2="473.74" y2="261.49" stroke-width="0.70588" />
<line x1="498.42" y1="264.64" x2="498.42" y2="261.49" stroke-width="0.70588" />
<line x1="523.1" y1="264.64" x2="523.1" y2="261.49" stroke-width="0.70588" />
<line x1="547.79" y1="264.64" x2="547.79" y2="261.49" stroke-width="0.70588" />
<line x1="103.52" y1="264.64" x2="103.52" y2="258.34" stroke-width="0.70588" />
<line x1="202.24" y1="264.64" x2="202.24" y2="258.34" stroke-width="0.70588" />
<line x1="300.97" y1="264.64" x2="300.97" y2="258.34" stroke-width="0.70588" />
<line x1="399.7" y1="264.64" x2="399.7" y2="258.34" stroke-width="0.70588" />
<line x1="498.42" y1="264.64" x2="498.42" y2="258.34" stroke-width="0.70588" />
<line x1="81.304" y1="264.64" x2="570" y2="264.64" stroke-width="0.70588" />
<line x1="81.304" y1="53.655" x2="84.449" y2="53.655" stroke-width="0.70588" />
<line x1="81.304" y1="65.434" x2="84.449" y2="65.434" stroke-width="0.70588" />
<line x1="81.304" y1="77.214" x2="84.449" y2="77.214" stroke-width="0.70588" />
<line x1="81.304" y1="88.993" x2="84.449" y2="88.993" stroke-width="0.70588" />
<line x1="81.304" y1="100.77" x2="84.449" y2="100.77" stroke-width="0.70588" />
<line x1="81.304" y1="112.55" x2="84.449" y2="112.55" stroke-width="0.70588" />
<line x1="81.304" y1="124.33" x2="84.449" y2="124.33" stroke-width="0.70588" />
<line x1="81.304" y1="136.11" x2="84.449" y2="136.11" stroke-width="0.70588" />
<line x1="81.304" y1="147.89" x2="84.449" y2="147.89" stroke-width="0.70588" />
<line x1="81.304" y1="159.67" x2="84.449" y2="159.67" stroke-width="0.70588" />
<line x1="81.304" y1="171.45" x2="84.449" y2="171.45" stroke-width="0.70588" />
<line x1="81.304" y1="183.23" x2="84.449" y2="183.23" stroke-width="0.70588" />
<line x1="81.304" y1="195.01" x2="84.449" y2="195.01" stroke-width="0.70588" />
<line x1="81.304" y1="206.79" x2="84.449" y2="206.79" stroke-width="0.70588" />
<line x1="81.304" y1="218.57" x2="84.449" y2="218.57" stroke-width="0.70588" />
<line x1="81.304" y1="230.35" x2="84.449" y2="230.35" stroke-width="0.70588" />
<line x1="81.304" y1="242.13" x2="84.449" y2="242.13" stroke-width="0.70588" />
<line x1="81.304" y1="253.91" x2="84.449" y2="253.91" stroke-width="0.70588" />
<line x1="81.304" y1="77.214" x2="87.595" y2="77.214" stroke-width="0.70588" />
<line x1="81.304" y1="136.11" x2="87.595" y2="136.11" stroke-width="0.70588" />
<line x1="81.304" y1="195.01" x2="87.595" y2="195.01" stroke-width="0.70588" />
<line x1="81.304" y1="253.91" x2="87.595" y2="253.91" stroke-width="0.70588" />
<line x1="81.304" y1="51.758" x2="81.304" y2="264.64" stroke-width="0.70588" />
<polygon points="59.38,81.789 58.236,81.408 57.473,80.264 57.092,78.358 57.092,77.214 57.473,75.307 58.236,74.164 59.38,73.782 60.142,73.782 61.286,74.164 62.049,75.307 62.43,77.214 62.43,78.358 62.049,80.264 61.286,81.408 60.142,81.789 " stroke-width="0.54142" stroke-linejoin="round" />
<polyline points="59.38,81.789 58.617,81.408 58.236,81.027 57.855,80.264 57.473,78.358 57.473,77.214 57.855,75.307 58.236,74.545 58.617,74.164 59.38,73.782 " stroke-width="0.54142" stroke-linecap="round" stroke-linejoin="round" />
<polyline points="60.142,73.782 60.905,74.164 61.286,74.545 61.668,75.307 62.049,77.214 62.049,78.358 61.668,80.264 61.286,81.027 60.905,81.408 60.142,81.789 " stroke-width="0.54142" stroke-linecap="round" stroke-linejoin="round" />
<polygon points="65.48,74.545 65.099,74.164 65.48,73.782 65.862,74.164 " stroke-width="0.54142" stroke-linejoin="round" />
<line x1="69.293" y1="81.789" x2="68.531" y2="77.976" stroke-width="0.54142" stroke-linecap="round" />
<polyline points="68.531,77.976 69.293,78.739 70.437,79.12 71.581,79.12 72.725,78.739 73.487,77.976 73.869,76.833 73.869,76.07 73.487,74.926 72.725,74.164 71.581,73.782 70.437,73.782 69.293,74.164 68.912,74.545 68.531,75.307 68.531,75.689 68.912,76.07 69.293,75.689 68.912,75.307 " stroke-width="0.54142" stroke-linecap="round" stroke-linejoin="round" />
<polyline points="71.581,79.12 72.344,78.739 73.106,77.976 73.487,76.833 73.487,76.07 73.106,74.926 72.344,74.164 71.581,73.782 " stroke-width="0.54142" stroke-linecap="round" stroke-linejoin="round" />
<line x1="69.293" y1="81.789" x2="73.106" y2="81.789" stroke-width="0.54142" stroke-linecap="round" />
<polyline points="69.293,81.408 71.2,81.408 73.106,81.789 " stroke-width="0.54142" stroke-linecap="round" stroke-linejoin="round" />
<polygon points="51.754,140.69 50.61,140.31 49.848,139.16 49.467,137.26 49.467,136.11 49.848,134.21 50.61,133.06 51.754,132.68 52.517,132.68 53.661,133.06 54.423,134.21 54.805,136.11 54.805,137.26 54.423,139.16 53.661,140.31 52.517,140.69 " stroke-width="0.54142" stroke-linejoin="round" />
<polyline points="51.754,140.69 50.992,140.31 50.61,139.92 50.229,139.16 49.848,137.26 49.848,136.11 50.229,134.21 50.61,133.44 50.992,133.06 51.754,132.68 " stroke-width="0.54142" stroke-linecap="round" stroke-linejoin="round" />
<polyline points="52.517,132.68 53.279,133.06 53.661,133.44 54.042,134.21 54.423,136.11 54.423,137.26 54.042,139.16 53.661,139.92 53.279,140.31 52.517,140.69 " stroke-width="0.54142" stroke-linecap="round" stroke-linejoin="round" />
<polygon points="57.855,133.44 57.473,133.06 57.855,132.68 58.236,133.06 " stroke-width="0.54142" stroke-linejoin="round" />
<line x1="61.668" y1="140.69" x2="60.905" y2="136.87" stroke-width="0.54142" stroke-linecap="round" />
<polyline points="60.905,136.87 61.668,137.64 62.811,138.02 63.955,138.02 65.099,137.64 65.862,136.87 66.243,135.73 66.243,134.97 65.862,133.82 65.099,133.06 63.955,132.68 62.811,132.68 61.668,133.06 61.286,133.44 60.905,134.21 60.905,134.59 61.286,134.97 61.668,134.59 61.286,134.21 " stroke-width="0.54142" stroke-linecap="round" stroke-linejoin="round" />
<polyline points="63.955,138.02 64.718,137.64 65.48,136.87 65.862,135.73 65.862,134.97 65.48,133.82 64.718,133.06 63.955,132.68 " stroke-width="0.54142" stroke-linecap="round" stroke-linejoin="round" />
<line x1="61.668" y1="140.69" x2="65.48" y2="140.69" stroke-width="0.54142" stroke-linecap="round" />
<polyline points="61.668,140.31 63.574,140.31 65.48,140.69 " stroke-width="0.54142" stroke-linecap="round" stroke-linejoin="round" />
<line x1="69.293" y1="140.69" x2="68.531" y2="136.87" stroke-width="0.54142" stroke-linecap="round" />
<polyline points="68.531,136.87 69.293,137.64 70.437,138.02 71.581,138.02 72.725,137.64 73.487,136.87 73.869,135.73 73.869,134.97 73.487,133.82 72.725,133.06 71.581,132.68 70.437,132.68 69.293,133.06 68.912,133.44 68.531,134.21 68.531,134.59 68.912,134.97 69.293,134.59 68.912,134.21 " stroke-width="0.54142" stroke-linecap="round" stroke-linejoin="round" />
<polyline points="71.581,138.02 72.344,137.64 73.106,136.87 73.487,135.73 73.487,134.97 73.106,133.82 72.344,133.06 71.581,132.68 " stroke-width="0.54142" stroke-linecap="round" stroke-linejoin="round" />
<line x1="69.293" y1="140.69" x2="73.106" y2="140.69" stroke-width="0.54142" stroke-linecap="round" />
<polyline points="69.293,140.31 71.2,140.31 73.106,140.69 " stroke-width="0.54142" stroke-linecap="round" stroke-linejoin="round" />
<polygon points="59.38,199.58 58.236,199.2 57.473,198.06 57.092,196.15 57.092,195.01 57.473,193.1 58.236,191.96 59.38,191.58 60.142,191.58 61.286,191.96 62.049,193.1 62.43,195.01 62.43,196.15 62.049,198.06 61.286,199.2 60.142,199.58 " stroke-width="0.54142" stroke-linejoin="round" />
<polyline points="59.38,199.58 58.617,199.2 58.236,198.82 57.855,198.06 57.473,196.15 57.473,195.01 57.855,193.1 58.236,192.34 58.617,191.96 59.38,191.58 " stroke-width="0.54142" stroke-linecap="round" stroke-linejoin="round" />
<polyline points="60.142,191.58 60.905,191.96 61.286,192.34 61.668,193.1 62.049,195.01 62.049,196.15 61.668,198.06 61.286,198.82 60.905,199.2 60.142,199.58 " stroke-width="0.54142" stroke-linecap="round" stroke-linejoin="round" />
<polygon points="65.48,192.34 65.099,191.96 65.48,191.58 65.862,191.96 " stroke-width="0.54142" stroke-linejoin="round" />
<polyline points="73.106,198.44 72.725,198.06 73.106,197.68 73.487,198.06 73.487,198.44 73.106,199.2 72.344,199.58 71.2,199.58 70.056,199.2 69.293,198.44 68.912,197.68 68.531,196.15 68.531,193.87 68.912,192.72 69.675,191.96 70.818,191.58 71.581,191.58 72.725,191.96 73.487,192.72 73.869,193.87 73.869,194.25 73.487,195.39 72.725,196.15 71.581,196.53 71.2,196.53 70.056,196.15 69.293,195.39 68.912,194.25 " stroke-width="0.54142" stroke-linecap="round" stroke-linejoin="round" />
<polyline points="71.2,199.58 70.437,199.2 69.675,198.44 69.293,197.68 68.912,196.15 68.912,193.87 69.293,192.72 70.056,191.96 70.818,191.58 " stroke-width="0.54142" stroke-linecap="round" stroke-linejoin="round" />
<polyline points="71.581,191.58 72.344,191.96 73.106,192.72 73.487,193.87 73.487,194.25 73.106,195.39 72.344,196.15 71.581,196.53 " stroke-width="0.54142" stroke-linecap="round" stroke-linejoin="round" />
<polygon points="51.754,258.48 50.61,258.1 49.848,256.96 49.467,255.05 49.467,253.91 49.848,252 50.61,250.86 51.754,250.48 52.517,250.48 53.661,250.86 54.423,252 54.805,253.91 54.805,255.05 54.423,256.96 53.661,258.1 52.517,258.48 " stroke-width="0.54142" stroke-linejoin="round" />
<polyline points="51.754,258.48 50.992,258.1 50.61,257.72 50.229,256.96 49.848,255.05 49.848,253.91 50.229,252 50.61,251.24 50.992,250.86 51.754,250.48 " stroke-width="0.54142" stroke-linecap="round" stroke-linejoin="round" />
<polyline points="52.517,250.48 53.279,250.86 53.661,251.24 54.042,252 54.423,253.91 54.423,255.05 54.042,256.96 53.661,257.72 53.279,258.1 52.517,258.48 " stroke-width="0.54142" stroke-linecap="round" stroke-linejoin="round" />
<polygon points="57.855,251.24 57.473,250.86 57.855,250.48 58.236,250.86 " stroke-width="0.54142" stroke-linejoin="round" />
<polyline points="65.48,257.34 65.099,256.96 65.48,256.58 65.862,256.96 65.862,257.34 65.48,258.1 64.718,258.48 63.574,258.48 62.43,258.1 61.668,257.34 61.286,256.58 60.905,255.05 60.905,252.76 61.286,251.62 62.049,250.86 63.193,250.48 63.955,250.48 65.099,250.86 65.862,251.62 66.243,252.76 66.243,253.14 65.862,254.29 65.099,255.05 63.955,255.43 63.574,255.43 62.43,255.05 61.668,254.29 61.286,253.14 " stroke-width="0.54142" stroke-linecap="round" stroke-linejoin="round" />
<polyline points="63.574,258.48 62.811,258.1 62.049,257.34 61.668,256.58 61.286,255.05 61.286,252.76 61.668,251.62 62.43,250.86 63.193,250.48 " stroke-width="0.54142" stroke-linecap="round" stroke-linejoin="round" />
<polyline points="63.955,250.48 64.718,250.86 65.48,251.62 65.862,252.76 65.862,253.14 65.48,254.29 64.718,255.05 63.955,255.43 " stroke-width="0.54142" stroke-linecap="round" stroke-linejoin="round" />
<line x1="69.293" y1="258.48" x2="68.531" y2="254.67" stroke-width="0.54142" stroke-linecap="round" />
<polyline points="68.531,254.67 69.293,255.43 70.437,255.81 71.581,255.81 72.725,255.43 73.487,254.67 73.869,253.53 73.869,252.76 73.487,251.62 72.725,250.86 71.581,250.48 70.437,250.48 69.293,250.86 68.912,251.24 68.531,252 68.531,252.38 68.912,252.76 69.293,252.38 68.912,252 " stroke-width="0.54142" stroke-linecap="round" stroke-linejoin="round" />
<polyline points="71.581,255.81 72.344,255.43 73.106,254.67 73.487,253.53 73.487,252.76 73.106,251.62 72.344,250.86 71.581,250.48 " stroke-width="0.54142" stroke-linecap="round" stroke-linejoin="round" />
<line x1="69.293" y1="258.48" x2="73.106" y2="258.48" stroke-width="0.54142" stroke-linecap="round" />
<polyline points="69.293,258.1 71.2,258.1 73.106,258.48 " stroke-width="0.54142" stroke-linecap="round" stroke-linejoin="round" />
<line x1="33.262" y1="137.04" x2="41.269" y2="137.04" stroke-width="0.54142" stroke-linecap="round" />
<line x1="33.262" y1="137.42" x2="41.269" y2="137.42" stroke-width="0.54142" stroke-linecap="round" />
<line x1="35.55" y1="139.7" x2="38.6" y2="139.7" stroke-width="0.54142" stroke-linecap="round" />
<polyline points="33.262,135.89 33.262,141.99 35.55,141.99 33.262,141.61 " stroke-width="0.54142" stroke-linecap="round" stroke-linejoin="round" />
<line x1="37.075" y1="137.42" x2="37.075" y2="139.7" stroke-width="0.54142" stroke-linecap="round" />
<line x1="41.269" y1="135.89" x2="41.269" y2="138.56" stroke-width="0.54142" stroke-linecap="round" />
<polygon points="33.262,144.66 33.643,144.28 34.025,144.66 33.643,145.04 " stroke-width="0.54142" stroke-linejoin="round" />
<line x1="35.931" y1="144.66" x2="41.269" y2="144.66" stroke-width="0.54142" stroke-linecap="round" />
<line x1="35.931" y1="145.04" x2="41.269" y2="145.04" stroke-width="0.54142" stroke-linecap="round" />
<line x1="35.931" y1="143.52" x2="35.931" y2="145.04" stroke-width="0.54142" stroke-linecap="round" />
<line x1="41.269" y1="143.52" x2="41.269" y2="146.19" stroke-width="0.54142" stroke-linecap="round" />
<polyline points="33.262,148.86 39.744,148.86 40.888,149.24 41.269,150 41.269,150.76 40.888,151.52 40.125,151.91 " stroke-width="0.54142" stroke-linecap="round" stroke-linejoin="round" />
<polyline points="33.262,149.24 39.744,149.24 40.888,149.62 41.269,150 " stroke-width="0.54142" stroke-linecap="round" stroke-linejoin="round" />
<line x1="35.931" y1="147.71" x2="35.931" y2="150.76" stroke-width="0.54142" stroke-linecap="round" />
<line x1="35.931" y1="154.57" x2="41.269" y2="154.57" stroke-width="0.54142" stroke-linecap="round" />
<line x1="35.931" y1="154.96" x2="41.269" y2="154.96" stroke-width="0.54142" stroke-linecap="round" />
<polyline points="37.075,154.96 36.312,155.72 35.931,156.86 35.931,157.62 36.312,158.77 37.075,159.15 41.269,159.15 " stroke-width="0.54142" stroke-linecap="round" stroke-linejoin="round" />
<polyline points="35.931,157.62 36.312,158.39 37.075,158.77 41.269,158.77 " stroke-width="0.54142" stroke-linecap="round" stroke-linejoin="round" />
<line x1="35.931" y1="153.43" x2="35.931" y2="154.96" stroke-width="0.54142" stroke-linecap="round" />
<line x1="41.269" y1="153.43" x2="41.269" y2="156.1" stroke-width="0.54142" stroke-linecap="round" />
<line x1="41.269" y1="157.62" x2="41.269" y2="160.29" stroke-width="0.54142" stroke-linecap="round" />
<polyline points="38.219,162.58 38.219,167.16 37.456,167.16 36.694,166.78 36.312,166.39 35.931,165.63 35.931,164.49 36.312,163.34 37.075,162.58 38.219,162.2 38.981,162.2 40.125,162.58 40.888,163.34 41.269,164.49 41.269,165.25 40.888,166.39 40.125,167.16 " stroke-width="0.54142" stroke-linecap="round" stroke-linejoin="round" />
<polyline points="38.219,166.78 37.075,166.78 36.312,166.39 " stroke-width="0.54142" stroke-linecap="round" stroke-linejoin="round" />
<polyline points="35.931,164.49 36.312,163.73 37.075,162.96 38.219,162.58 38.981,162.58 40.125,162.96 40.888,163.73 41.269,164.49 " stroke-width="0.54142" stroke-linecap="round" stroke-linejoin="round" />
<polyline points="36.694,173.26 35.931,173.64 37.456,173.64 36.694,173.26 36.312,172.88 35.931,172.11 35.931,170.59 36.312,169.83 36.694,169.44 37.456,169.44 37.837,169.83 38.219,170.59 38.981,172.49 39.363,173.26 39.744,173.64 " stroke-width="0.54142" stroke-linecap="round" stroke-linejoin="round" />
<polyline points="37.075,169.44 37.456,169.83 37.837,170.59 38.6,172.49 38.981,173.26 39.363,173.64 40.506,173.64 40.888,173.26 41.269,172.49 41.269,170.97 40.888,170.21 40.506,169.83 39.744,169.44 41.269,169.44 40.506,169.83 " stroke-width="0.54142" stroke-linecap="round" stroke-linejoin="round" />
<polyline points="36.694,179.74 35.931,180.12 37.456,180.12 36.694,179.74 36.312,179.36 35.931,178.6 35.931,177.07 36.312,176.31 36.694,175.93 37.456,175.93 37.837,176.31 38.219,177.07 38.981,178.98 39.363,179.74 39.744,180.12 " stroke-width="0.54142" stroke-linecap="round" stroke-linejoin="round" />
<polyline points="37.075,175.93 37.456,176.31 37.837,177.07 38.6,178.98 38.981,179.74 39.363,180.12 40.506,180.12 40.888,179.74 41.269,178.98 41.269,177.45 40.888,176.69 40.506,176.31 39.744,175.93 41.269,175.93 40.506,176.31 " stroke-width="0.54142" stroke-linecap="round" stroke-linejoin="round" />
<line x1="103.52" y1="51.758" x2="103.52" y2="54.903" stroke-width="0.70588" />
<line x1="128.2" y1="51.758" x2="128.2" y2="54.903" stroke-width="0.70588" />
<line x1="152.88" y1="51.758" x2="152.88" y2="54.903" stroke-width="0.70588" />
<line x1="177.56" y1="51.758" x2="177.56" y2="54.903" stroke-width="0.70588" />
<line x1="202.24" y1="51.758" x2="202.24" y2="54.903" stroke-width="0.70588" />
<line x1="226.93" y1="51.758" x2="226.93" y2="54.903" stroke-width="0.70588" />
<line x1="251.61" y1="51.758" x2="251.61" y2="54.903" stroke-width="0.70588" />
<line x1="276.29" y1="51.758" x2="276.29" y2="54.903" stroke-width="0.70588" />
<line x1="300.97" y1="51.758" x2="300.97" y2="54.903" stroke-width="0.70588" />
<line x1="325.65" y1="51.758" x2="325.65" y2="54.903" stroke-width="0.70588" />
<line x1="350.33" y1="51.758" x2="350.33" y2="54.903" stroke-width="0.70588" />
<line x1="375.02" y1="51.758" x2="375.02" y2="54.903" stroke-width="0.70588" />
<line x1="399.7" y1="51.758" x2="399.7" y2="54.903" stroke-width="0.70588" />
<line x1="424.38" y1="51.758" x2="424.38" y2="54.903" stroke-width="0.70588" />
<line x1="449.06" y1="51.758" x2="449.06" y2="54.903" stroke-width="0.70588" />
<line x1="473.74" y1="51.758" x2="473.74" y2="54.903" stroke-width="0.70588" />
<line x1="498.42" y1="51.758" x2="498.42" y2="54.903" stroke-width="0.70588" />
<line x1="523.1" y1="51.758" x2="523.1" y2="54.903" stroke-width="0.70588" />
<line x1="547.79" y1="51.758" x2="547.79" y2="54.903" stroke-width="0.70588" />
<line x1="103.52" y1="51.758" x2="103.52" y2="58.049" stroke-width="0.70588" />
<line x1="202.24" y1="51.758" x2="202.24" y2="58.049" stroke-width="0.70588" />
<line x1="300.97" y1="51.758" x2="300.97" y2="58.049" stroke-width="0.70588" />
<line x1="399.7" y1="51.758" x2="399.7" y2="58.049" stroke-width="0.70588" />
<line x1="498.42" y1="51.758" x2="498.42" y2="58.049" stroke-width="0.70588" />
<line x1="81.304" y1="51.758" x2="570" y2="51.758" stroke-width="0.70588" />
<polyline points="103.14,43.751 101.99,43.37 101.23,42.226 100.85,40.319 100.85,39.175 101.23,37.269 101.99,36.125 103.14,35.744 103.9,35.744 105.04,36.125 105.8,37.269 106.19,39.175 106.19,40.319 105.8,42.226 105.04,43.37 103.9,43.751 103.14,43.751 " stroke-width="0.54142" stroke-linecap="round" stroke-linejoin="round" />
<polyline points="103.14,43.751 102.37,43.37 101.99,42.988 101.61,42.226 101.23,40.319 101.23,39.175 101.61,37.269 101.99,36.506 102.37,36.125 103.14,35.744 " stroke-width="0.54142" stroke-linecap="round" stroke-linejoin="round" />
<polyline points="103.9,35.744 104.66,36.125 105.04,36.506 105.42,37.269 105.8,39.175 105.8,40.319 105.42,42.226 105.04,42.988 104.66,43.37 103.9,43.751 " stroke-width="0.54142" stroke-linecap="round" stroke-linejoin="round" />
<polyline points="199.96,42.226 200.34,41.844 199.96,41.463 199.57,41.844 199.57,42.226 199.96,42.988 200.34,43.37 201.48,43.751 203.01,43.751 204.15,43.37 204.53,42.988 204.91,42.226 204.91,41.463 204.53,40.701 203.39,39.938 201.48,39.175 200.72,38.794 199.96,38.032 199.57,36.888 199.57,35.744 " stroke-width="0.54142" stroke-linecap="round" stroke-linejoin="round" />
<polyline points="203.01,43.751 203.77,43.37 204.15,42.988 204.53,42.226 204.53,41.463 204.15,40.701 203.01,39.938 201.48,39.175 " stroke-width="0.54142" stroke-linecap="round" stroke-linejoin="round" />
<polyline points="199.57,36.506 199.96,36.888 200.72,36.888 202.62,36.125 203.77,36.125 204.53,36.506 204.91,36.888 " stroke-width="0.54142" stroke-linecap="round" stroke-linejoin="round" />
<polyline points="200.72,36.888 202.62,35.744 204.15,35.744 204.53,36.125 204.91,36.888 204.91,37.65 " stroke-width="0.54142" stroke-linecap="round" stroke-linejoin="round" />
<line x1="301.73" y1="42.988" x2="301.73" y2="35.744" stroke-width="0.54142" stroke-linecap="round" />
<line x1="302.11" y1="43.751" x2="302.11" y2="35.744" stroke-width="0.54142" stroke-linecap="round" />
<polyline points="302.11,43.751 297.92,38.032 304.02,38.032 " stroke-width="0.54142" stroke-linecap="round" stroke-linejoin="round" />
<line x1="300.59" y1="35.744" x2="303.26" y2="35.744" stroke-width="0.54142" stroke-linecap="round" />
<polyline points="401.6,42.607 401.22,42.226 401.6,41.844 401.98,42.226 401.98,42.607 401.6,43.37 400.84,43.751 399.7,43.751 398.55,43.37 397.79,42.607 397.41,41.844 397.03,40.319 397.03,38.032 397.41,36.888 398.17,36.125 399.32,35.744 400.08,35.744 401.22,36.125 401.98,36.888 402.37,38.032 402.37,38.413 401.98,39.557 401.22,40.319 400.08,40.701 399.7,40.701 398.55,40.319 397.79,39.557 397.41,38.413 " stroke-width="0.54142" stroke-linecap="round" stroke-linejoin="round" />
<polyline points="399.7,43.751 398.93,43.37 398.17,42.607 397.79,41.844 397.41,40.319 397.41,38.032 397.79,36.888 398.55,36.125 399.32,35.744 " stroke-width="0.54142" stroke-linecap="round" stroke-linejoin="round" />
<polyline points="400.08,35.744 400.84,36.125 401.6,36.888 401.98,38.032 401.98,38.413 401.6,39.557 400.84,40.319 400.08,40.701 " stroke-width="0.54142" stroke-linecap="round" stroke-linejoin="round" />
<polyline points="497.66,43.751 496.52,43.37 496.14,42.607 496.14,41.463 496.52,40.701 497.66,40.319 499.19,40.319 500.33,40.701 500.71,41.463 500.71,42.607 500.33,43.37 499.19,43.751 497.66,43.751 " stroke-width="0.54142" stroke-linecap="round" stroke-linejoin="round" />
<polyline points="497.66,43.751 496.9,43.37 496.52,42.607 496.52,41.463 496.9,40.701 497.66,40.319 " stroke-width="0.54142" stroke-linecap="round" stroke-linejoin="round" />
<polyline points="499.19,40.319 499.95,40.701 500.33,41.463 500.33,42.607 499.95,43.37 499.19,43.751 " stroke-width="0.54142" stroke-linecap="round" stroke-linejoin="round" />
<polyline points="497.66,40.319 496.52,39.938 496.14,39.557 495.75,38.794 495.75,37.269 496.14,36.506 496.52,36.125 497.66,35.744 499.19,35.744 500.33,36.125 500.71,36.506 501.09,37.269 501.09,38.794 500.71,39.557 500.33,39.938 499.19,40.319 " stroke-width="0.54142" stroke-linecap="round" stroke-linejoin="round" />
<polyline points="497.66,40.319 496.9,39.938 496.52,39.557 496.14,38.794 496.14,37.269 496.52,36.506 496.9,36.125 497.66,35.744 " stroke-width="0.54142" stroke-linecap="round" stroke-linejoin="round" />
<polyline points="499.19,35.744 499.95,36.125 500.33,36.506 500.71,37.269 500.71,38.794 500.33,39.557 499.95,39.938 499.19,40.319 " stroke-width="0.54142" stroke-linecap="round" stroke-linejoin="round" />
<polyline points="293.05,25.831 293.43,24.687 293.43,26.974 293.05,25.831 292.29,26.593 291.15,26.974 290.38,26.974 289.24,26.593 288.48,25.831 288.1,25.068 287.71,23.924 287.71,22.018 288.1,20.874 288.48,20.111 289.24,19.349 290.38,18.967 291.15,18.967 292.29,19.349 293.05,20.111 " stroke-width="0.54142" stroke-linecap="round" stroke-linejoin="round" />
<polyline points="290.38,26.974 289.62,26.593 288.86,25.831 288.48,25.068 288.1,23.924 288.1,22.018 288.48,20.874 288.86,20.111 289.62,19.349 290.38,18.967 " stroke-width="0.54142" stroke-linecap="round" stroke-linejoin="round" />
<line x1="293.05" y1="22.018" x2="293.05" y2="18.967" stroke-width="0.54142" stroke-linecap="round" />
<line x1="293.43" y1="22.018" x2="293.43" y2="18.967" stroke-width="0.54142" stroke-linecap="round" />
<line x1="291.91" y1="22.018" x2="294.58" y2="22.018" stroke-width="0.54142" stroke-linecap="round" />
<polyline points="296.86,22.018 301.44,22.018 301.44,22.78 301.06,23.543 300.68,23.924 299.92,24.305 298.77,24.305 297.63,23.924 296.86,23.162 296.48,22.018 296.48,21.255 296.86,20.111 297.63,19.349 298.77,18.967 299.53,18.967 300.68,19.349 301.44,20.111 " stroke-width="0.54142" stroke-linecap="round" stroke-linejoin="round" />
<polyline points="301.06,22.018 301.06,23.162 300.68,23.924 " stroke-width="0.54142" stroke-linecap="round" stroke-linejoin="round" />
<polyline points="298.77,24.305 298.01,23.924 297.25,23.162 296.86,22.018 296.86,21.255 297.25,20.111 298.01,19.349 298.77,18.967 " stroke-width="0.54142" stroke-linecap="round" stroke-linejoin="round" />
<line x1="304.49" y1="24.305" x2="304.49" y2="18.967" stroke-width="0.54142" stroke-linecap="round" />
<line x1="304.87" y1="24.305" x2="304.87" y2="18.967" stroke-width="0.54142" stroke-linecap="round" />
<polyline points="304.87,23.162 305.63,23.924 306.78,24.305 307.54,24.305 308.68,23.924 309.07,23.162 309.07,18.967 " stroke-width="0.54142" stroke-linecap="round" stroke-linejoin="round" />
<polyline points="307.54,24.305 308.3,23.924 308.68,23.162 308.68,18.967 " stroke-width="0.54142" stroke-linecap="round" stroke-linejoin="round" />
<line x1="303.35" y1="24.305" x2="304.87" y2="24.305" stroke-width="0.54142" stroke-linecap="round" />
<line x1="303.35" y1="18.967" x2="306.02" y2="18.967" stroke-width="0.54142" stroke-linecap="round" />
<line x1="307.54" y1="18.967" x2="310.21" y2="18.967" stroke-width="0.54142" stroke-linecap="round" />
<polyline points="312.5,22.018 317.07,22.018 317.07,22.78 316.69,23.543 316.31,23.924 315.55,24.305 314.4,24.305 313.26,23.924 312.5,23.162 312.12,22.018 312.12,21.255 312.5,20.111 313.26,19.349 314.4,18.967 315.17,18.967 316.31,19.349 317.07,20.111 " stroke-width="0.54142" stroke-linecap="round" stroke-linejoin="round" />
<polyline points="316.69,22.018 316.69,23.162 316.31,23.924 " stroke-width="0.54142" stroke-linecap="round" stroke-linejoin="round" />
<polyline points="314.4,24.305 313.64,23.924 312.88,23.162 312.5,22.018 312.5,21.255 312.88,20.111 313.64,19.349 314.4,18.967 " stroke-width="0.54142" stroke-linecap="round" stroke-linejoin="round" />
<line x1="320.12" y1="24.305" x2="320.12" y2="18.967" stroke-width="0.54142" stroke-linecap="round" />
<line x1="320.5" y1="24.305" x2="320.5" y2="18.967" stroke-width="0.54142" stroke-linecap="round" />
<polyline points="320.5,22.018 320.89,23.162 321.65,23.924 322.41,24.305 323.55,24.305 323.94,23.924 323.94,23.543 323.55,23.162 323.17,23.543 323.55,23.924 " stroke-width="0.54142" stroke-linecap="round" stroke-linejoin="round" />
<line x1="318.98" y1="24.305" x2="320.5" y2="24.305" stroke-width="0.54142" stroke-linecap="round" />
<line x1="318.98" y1="18.967" x2="321.65" y2="18.967" stroke-width="0.54142" stroke-linecap="round" />
<polyline points="326.61,23.543 326.61,23.162 326.22,23.162 326.22,23.543 326.61,23.924 327.37,24.305 328.89,24.305 329.66,23.924 330.04,23.543 330.42,22.78 330.42,20.111 330.8,19.349 331.18,18.967 " stroke-width="0.54142" stroke-linecap="round" stroke-linejoin="round" />
<polyline points="330.04,23.543 330.04,20.111 330.42,19.349 331.18,18.967 331.56,18.967 " stroke-width="0.54142" stroke-linecap="round" stroke-linejoin="round" />
<polyline points="330.04,22.78 329.66,22.399 327.37,22.018 326.22,21.636 325.84,20.874 325.84,20.111 326.22,19.349 327.37,18.967 328.51,18.967 329.27,19.349 330.04,20.111 " stroke-width="0.54142" stroke-linecap="round" stroke-linejoin="round" />
<polyline points="327.37,22.018 326.61,21.636 326.22,20.874 326.22,20.111 326.61,19.349 327.37,18.967 " stroke-width="0.54142" stroke-linecap="round" stroke-linejoin="round" />
<polyline points="334.23,26.974 334.23,20.493 334.61,19.349 335.37,18.967 336.14,18.967 336.9,19.349 337.28,20.111 " stroke-width="0.54142" stroke-linecap="round" stroke-linejoin="round" />
<polyline points="334.61,26.974 334.61,20.493 334.99,19.349 335.37,18.967 " stroke-width="0.54142" stroke-linecap="round" stroke-linejoin="round" />
<line x1="333.09" y1="24.305" x2="336.14" y2="24.305" stroke-width="0.54142" stroke-linecap="round" />
<polygon points="339.95,26.974 339.57,26.593 339.95,26.212 340.33,26.593 " stroke-width="0.54142" stroke-linejoin="round" />
<line x1="339.95" y1="24.305" x2="339.95" y2="18.967" stroke-width="0.54142" stroke-linecap="round" />
<line x1="340.33" y1="24.305" x2="340.33" y2="18.967" stroke-width="0.54142" stroke-linecap="round" />
<line x1="338.81" y1="24.305" x2="340.33" y2="24.305" stroke-width="0.54142" stroke-linecap="round" />
<line x1="338.81" y1="18.967" x2="341.48" y2="18.967" stroke-width="0.54142" stroke-linecap="round" />
<polygon points="345.67,24.305 344.53,23.924 343.76,23.162 343.38,22.018 343.38,21.255 343.76,20.111 344.53,19.349 345.67,18.967 346.43,18.967 347.58,19.349 348.34,20.111 348.72,21.255 348.72,22.018 348.34,23.162 347.58,23.924 346.43,24.305 " stroke-width="0.54142" stroke-linejoin="round" />
<polyline points="345.67,24.305 344.91,23.924 344.14,23.162 343.76,22.018 343.76,21.255 344.14,20.111 344.91,19.349 345.67,18.967 " stroke-width="0.54142" stroke-linecap="round" stroke-linejoin="round" />
<polyline points="346.43,18.967 347.19,19.349 347.96,20.111 348.34,21.255 348.34,22.018 347.96,23.162 347.19,23.924 346.43,24.305 " stroke-width="0.54142" stroke-linecap="round" stroke-linejoin="round" />
<line x1="351.77" y1="24.305" x2="351.77" y2="18.967" stroke-width="0.54142" stroke-linecap="round" />
<line x1="352.15" y1="24.305" x2="352.15" y2="18.967" stroke-width="0.54142" stroke-linecap="round" />
<polyline points="352.15,23.162 352.91,23.924 354.06,24.305 354.82,24.305 355.96,23.924 356.35,23.162 356.35,18.967 " stroke-width="0.54142" stroke-linecap="round" stroke-linejoin="round" />
<polyline points="354.82,24.305 355.58,23.924 355.96,23.162 355.96,18.967 " stroke-width="0.54142" stroke-linecap="round" stroke-linejoin="round" />
<line x1="350.63" y1="24.305" x2="352.15" y2="24.305" stroke-width="0.54142" stroke-linecap="round" />
<line x1="350.63" y1="18.967" x2="353.29" y2="18.967" stroke-width="0.54142" stroke-linecap="round" />
<line x1="354.82" y1="18.967" x2="357.49" y2="18.967" stroke-width="0.54142" stroke-linecap="round" />
<polyline points="363.21,23.543 363.59,24.305 363.59,22.78 363.21,23.543 362.83,23.924 362.06,24.305 360.54,24.305 359.78,23.924 359.4,23.543 359.4,22.78 359.78,22.399 360.54,22.018 362.45,21.255 363.21,20.874 363.59,20.493 " stroke-width="0.54142" stroke-linecap="round" stroke-linejoin="round" />
<polyline points="359.4,23.162 359.78,22.78 360.54,22.399 362.45,21.636 363.21,21.255 363.59,20.874 363.59,19.73 363.21,19.349 362.45,18.967 360.92,18.967 360.16,19.349 359.78,19.73 359.4,20.493 359.4,18.967 359.78,19.73 " stroke-width="0.54142" stroke-linecap="round" stroke-linejoin="round" />
</g>
</svg>
